<svg width="201" height="201" viewBox="0 0 201 201" fill="none" xmlns="http://www.w3.org/2000/svg">
<path fill-rule="evenodd" clip-rule="evenodd" d="M119.247 36.1534C119.247 34.2428 119.247 32.3334 119.247 30.4229C104.197 29.8007 89.2977 30.5647 74.5498 32.7151C77.9571 30.3173 82.5725 28.1302 86.0107 27.5577C89.449 26.9851 109.69 26.7938 121.54 26.9846C121.465 30.3406 120.701 33.397 119.247 36.1534Z" fill="#D9433E"/>
<path fill-rule="evenodd" clip-rule="evenodd" d="M119.248 36.1538C118.302 42.6155 116.775 48.919 114.663 55.0643C103.793 54.9429 91.1686 52.7723 82.5728 58.5026C73.977 64.2329 68.2464 76.8403 67.6736 81.9975C67.1007 87.1548 67.4824 87.1548 67.1007 87.1548C66.3363 99.3802 64.9997 106.447 64.2353 118.673C62.664 115.881 63.0891 115.807 60.797 109.504C58.5049 103.2 58.4934 100.204 57.3587 95.7507C54.7846 81.6285 55.0667 59.6486 56.7857 53.3452C58.5046 47.0419 66.2421 37.4569 74.5501 32.7155C89.2981 30.5651 104.197 29.8011 119.248 30.4233C119.248 32.3339 119.248 34.2433 119.248 36.1538Z" fill="#E22726"/>
<path fill-rule="evenodd" clip-rule="evenodd" d="M92.8872 64.8054C104.523 63.6661 116.366 63.2833 128.416 63.6593C128.786 71.1341 128.405 78.3923 127.27 85.435C127.27 78.5585 127.27 71.6819 127.27 64.8054C115.809 64.8054 104.348 64.8054 92.8872 64.8054Z" fill="#C4C5C9"/>
<path fill-rule="evenodd" clip-rule="evenodd" d="M92.8876 64.8057C104.349 64.8057 115.809 64.8057 127.27 64.8057C127.27 71.6822 127.27 78.5588 127.27 85.4354C117.33 85.2451 107.213 85.4354 97.4717 85.4354C96.8986 86.0084 96.3262 85.4354 95.7528 87.7275C95.1795 90.0197 94.9884 125.93 95.7528 145.032C96.5219 145.894 97.4765 146.277 98.6181 146.178C104.509 147.311 110.622 147.692 116.956 147.324C117.329 137.183 116.956 119.818 115.809 117.526C114.663 115.234 109.332 108.76 105.495 104.919C114.452 103.782 123.621 103.399 133.001 103.773C133.001 126.313 133.001 148.852 133.001 171.392C127.9 170.649 122.934 169.311 118.102 167.381C110.079 166.999 102.056 166.617 94.0337 166.235C84.1819 162.878 77.8783 156.192 75.1231 146.178C74.3587 125.93 74.3587 105.683 75.1231 85.4354C76.4045 74.4214 82.3252 67.5448 92.8876 64.8057Z" fill="#0C0D10"/>
</svg>
