<svg width="1024" height="1536" viewBox="0 0 1024 1536" fill="none" xmlns="http://www.w3.org/2000/svg">
<path fill-rule="evenodd" clip-rule="evenodd" d="M245.5 125.5C245.821 127.048 246.821 127.715 248.5 127.5C252.766 151.908 249.432 175.241 238.5 197.5C234.918 204.325 230.585 210.658 225.5 216.5C222.348 218.121 219.015 219.121 215.5 219.5C208.605 217.091 205.105 212.091 205 204.5C203.944 179.005 210.944 156.005 226 135.5C230.843 128.829 237.343 125.496 245.5 125.5Z" fill="#E63629"/>
<path fill-rule="evenodd" clip-rule="evenodd" d="M616.5 267.5C610.964 256.112 602.297 253.279 590.5 259C585.927 263.408 580.927 267.241 575.5 270.5C575.167 269.833 574.833 269.167 574.5 268.5C575.795 265.284 576.462 261.951 576.5 258.5C580.755 247.914 578.922 238.581 571 230.5C564.602 220.18 563.769 209.347 568.5 198C568.355 197.228 568.022 196.561 567.5 196C544.68 187.263 521.013 183.263 496.5 184C493.185 183.009 490.185 181.509 487.5 179.5C483.558 180.446 480.891 182.779 479.5 186.5C465.46 176.564 462.46 164.064 470.5 149C473.347 147.148 475.847 147.648 478 150.5C480.238 143.525 483.405 137.025 487.5 131C489.167 130.333 490.833 130.333 492.5 131C496.234 133.246 500.234 134.913 504.5 136C536.66 132.138 567.327 137.138 596.5 151C612.997 159.508 622.497 173.008 625 191.5C634.063 201.024 637.73 212.357 636 225.5C633.505 241.483 627.005 255.483 616.5 267.5Z" fill="#10120F"/>
<path fill-rule="evenodd" clip-rule="evenodd" d="M245.5 125.5C256.105 129.425 266.772 133.258 277.5 137C281.709 140.917 284.209 145.75 285 151.5C285.499 157.491 285.666 163.491 285.5 169.5C284.521 172.625 284.187 175.958 284.5 179.5C282.157 189.195 278.824 198.528 274.5 207.5C273.957 207.44 273.624 207.107 273.5 206.5C274.304 205.059 274.971 203.559 275.5 202C273.71 200.266 271.71 198.766 269.5 197.5C268.692 197.808 268.025 198.308 267.5 199C268.956 199.423 269.456 200.256 269 201.5C267.951 200.483 266.784 200.316 265.5 201C264.789 202.255 263.956 203.421 263 204.5C262.383 203.551 262.549 202.718 263.5 202C262.551 201.383 261.718 201.549 261 202.5C260.667 201.833 260.333 201.167 260 200.5C258.493 204.236 257.66 204.236 257.5 200.5C255.738 200.643 254.071 200.309 252.5 199.5C250.07 202.249 246.903 204.916 243 207.5C243.317 204.476 243.484 201.476 243.5 198.5C241.955 197.548 240.288 197.215 238.5 197.5C249.432 175.241 252.766 151.908 248.5 127.5C246.821 127.715 245.821 127.048 245.5 125.5Z" fill="#B41716"/>
<path fill-rule="evenodd" clip-rule="evenodd" d="M576.5 258.5C575.809 256.978 574.642 255.978 573 255.5C571.115 256.992 570.115 258.992 570 261.5C569.667 261.167 569.333 260.833 569 260.5C567.903 262.053 566.57 263.386 565 264.5C563.796 263.529 563.296 262.529 563.5 261.5C562.935 263.51 561.935 265.176 560.5 266.5C559.949 264.587 559.782 262.587 560 260.5C558.872 262.345 558.372 264.345 558.5 266.5C557.448 266.351 556.448 266.517 555.5 267C557.618 268.142 559.618 268.642 561.5 268.5C560.67 270.135 560.503 271.802 561 273.5C559.221 272.521 557.555 272.854 556 274.5C555.383 273.551 555.549 272.718 556.5 272C554.699 271.683 554.366 271.016 555.5 270C554.167 266.667 552.833 266.667 551.5 270C553.878 270.974 553.544 271.641 550.5 272C554.19 272.424 554.357 273.258 551 274.5C546.206 274.321 545.706 275.821 549.5 279C548.315 280.353 546.981 281.52 545.5 282.5C544.808 281.975 544.308 281.308 544 280.5C542.946 282.754 541.446 283.087 539.5 281.5C539.81 283.201 539.31 284.868 538 286.5C537.883 283.371 536.383 282.205 533.5 283C536.905 283.967 537.405 285.8 535 288.5C535.09 284.461 533.923 283.794 531.5 286.5C531.846 287.696 532.346 287.696 533 286.5C533.667 287.5 533.667 288.5 533 289.5C531.853 288.542 530.853 288.875 530 290.5C529.667 291.833 529.333 293.167 529 294.5C528.333 291.833 527.667 291.833 527 294.5C525.913 292.068 525.413 292.402 525.5 295.5C529.195 294.874 530.029 295.874 528 298.5C526.921 296.606 525.587 296.273 524 297.5C523.316 296.216 523.483 295.049 524.5 294C523.584 293.626 522.75 293.126 522 292.5C521.25 293.126 520.416 293.626 519.5 294C520.624 294.249 521.624 294.749 522.5 295.5C521.695 297.472 520.361 298.972 518.5 300C519.891 301.65 521.391 302.15 523 301.5C528.788 302.42 528.788 303.753 523 305.5C522.544 306.744 523.044 307.577 524.5 308C522.699 308.317 522.366 308.984 523.5 310C522.033 311.098 521.199 312.598 521 314.5C519.938 312.792 518.771 312.126 517.5 312.5C518.025 311.808 518.692 311.308 519.5 311C514.981 310.825 510.647 310.325 506.5 309.5C511.267 309.809 515.934 309.309 520.5 308C512.378 307.828 504.378 306.995 496.5 305.5C498.834 304.876 501.167 304.043 503.5 303C495.267 298.941 486.601 297.441 477.5 298.5C475.876 298.36 474.71 299.027 474 300.5C472.294 299.692 471.461 298.359 471.5 296.5C470.127 296.657 468.793 296.49 467.5 296C470.362 295.279 473.195 293.779 476 291.5C476.333 291.833 476.667 292.167 477 292.5C477.483 291.552 477.649 290.552 477.5 289.5C478.822 289.33 479.989 289.663 481 290.5C481.5 290 482 289.5 482.5 289C480.782 288.654 479.115 288.154 477.5 287.5C476.115 291.378 474.949 291.378 474 287.5C474.123 289.45 473.123 291.117 471 292.5C470.612 291.572 469.945 290.905 469 290.5C467.584 291.573 466.25 291.573 465 290.5C464.667 292.167 464.333 293.833 464 295.5C463.677 283.312 463.51 271.312 463.5 259.5C466.495 251.252 468.495 242.919 469.5 234.5C471.224 235.26 472.89 235.593 474.5 235.5C471.593 239.642 471.926 243.476 475.5 247C480.634 248.042 483.301 245.876 483.5 240.5C483.514 238.407 482.848 236.574 481.5 235C477.637 233.646 473.637 233.146 469.5 233.5C468.877 231.289 467.877 229.289 466.5 227.5C474.472 227.076 482.139 228.41 489.5 231.5C490.646 230.855 491.646 230.022 492.5 229C487.614 220.714 480.28 216.214 470.5 215.5C471.495 205.177 474.495 195.511 479.5 186.5C480.891 182.779 483.558 180.446 487.5 179.5C490.185 181.509 493.185 183.009 496.5 184C521.013 183.263 544.68 187.263 567.5 196C568.022 196.561 568.355 197.228 568.5 198C563.769 209.347 564.602 220.18 571 230.5C578.922 238.581 580.755 247.914 576.5 258.5Z" fill="#EFA081"/>
<path fill-rule="evenodd" clip-rule="evenodd" d="M290.5 190.5C290.747 187.061 290.414 183.728 289.5 180.5C290.754 178.643 290.754 176.643 289.5 174.5C290.355 173.707 291.189 174.04 292 175.5C293.162 180.125 293.496 184.792 293 189.5C292.329 190.252 291.496 190.586 290.5 190.5Z" fill="#A44E3B"/>
<path fill-rule="evenodd" clip-rule="evenodd" d="M355.5 197.5C355.263 198.791 355.596 199.791 356.5 200.5C356.5 200.833 356.5 201.167 356.5 201.5C353.449 201.636 350.449 201.302 347.5 200.5C345.049 202.29 342.382 203.623 339.5 204.5C334.58 203.359 329.913 201.526 325.5 199C324.304 198.346 324.304 197.846 325.5 197.5C331.023 200.92 337.023 202.254 343.5 201.5C343.134 199.095 342.467 196.762 341.5 194.5C341.97 191.45 342.803 191.117 344 193.5C344.151 190.881 344.985 188.547 346.5 186.5C347.167 189.5 347.833 192.5 348.5 195.5C350.729 196.577 353.063 197.244 355.5 197.5Z" fill="#BC654A"/>
<path fill-rule="evenodd" clip-rule="evenodd" d="M368.5 203.5C365.5 203.5 362.5 203.5 359.5 203.5C358.5 202.833 357.5 202.167 356.5 201.5C356.5 201.167 356.5 200.833 356.5 200.5C359.141 199.737 361.808 199.57 364.5 200C366.544 200.498 367.878 201.665 368.5 203.5Z" fill="#811C17"/>
<path fill-rule="evenodd" clip-rule="evenodd" d="M284.5 179.5C286.117 180.038 287.784 180.371 289.5 180.5C290.414 183.728 290.747 187.061 290.5 190.5C287.958 196.424 287.958 202.257 290.5 208C302.393 209.661 314.393 210.661 326.5 211C329.5 213.167 332.5 215.333 335.5 217.5C334.91 218.799 333.91 219.632 332.5 220C326.577 220.658 320.744 220.158 315 218.5C311.924 219.694 308.757 220.361 305.5 220.5C295.394 216.128 285.061 212.128 274.5 208.5C274.5 208.167 274.5 207.833 274.5 207.5C278.824 198.528 282.157 189.195 284.5 179.5Z" fill="#0E0F0D"/>
<path fill-rule="evenodd" clip-rule="evenodd" d="M378.5 176.5C379.946 175.387 381.613 175.22 383.5 176C394.577 179.803 405.577 183.803 416.5 188C423.106 195.582 425.773 204.415 424.5 214.5C424.156 235.874 417.489 254.874 404.5 271.5C403.922 270.453 403.256 270.62 402.5 272C400.5 272.667 398.5 272.667 396.5 272C398.886 271.716 399.552 270.716 398.5 269C399.804 268.196 400.471 267.029 400.5 265.5C399.957 264.136 399.79 262.803 400 261.5C400.333 261.833 400.667 262.167 401 262.5C402.882 258.953 405.716 256.453 409.5 255C408.167 253.16 408.334 252.66 410 253.5C410.93 251.064 412.097 248.731 413.5 246.5C412.726 245.289 411.893 245.289 411 246.5C411 245.167 411 243.833 411 242.5C410.189 243.96 409.355 244.293 408.5 243.5C409.154 241.885 409.654 240.218 410 238.5C411.297 239.784 412.464 239.617 413.5 238C411.833 237.667 410.167 237.333 408.5 237C410.715 236.83 412.715 236.163 414.5 235C412.431 234.676 412.098 233.842 413.5 232.5C412.855 231.354 412.022 230.354 411 229.5C411.019 231.107 411.185 232.774 411.5 234.5C409.089 234.863 407.589 233.863 407 231.5C405.796 232.471 405.296 233.471 405.5 234.5C403.866 234.032 402.7 233.032 402 231.5C401.396 233.686 400.23 233.852 398.5 232C400.167 231 401.833 230 403.5 229C400.46 228.68 397.46 228.68 394.5 229C396.259 227.992 397.426 226.492 398 224.5C398.483 225.448 398.649 226.448 398.5 227.5C401.276 227.911 401.943 227.078 400.5 225C399.381 223.124 397.714 222.291 395.5 222.5C395.657 223.873 395.49 225.207 395 226.5C393.667 226.5 392.333 226.5 391 226.5C390.51 227.793 390.343 229.127 390.5 230.5C389.448 230.351 388.448 230.517 387.5 231C388.696 231.654 388.696 232.154 387.5 232.5C386.719 231.271 386.219 229.938 386 228.5C385.722 229.416 385.222 230.082 384.5 230.5C389.394 218.304 391.227 205.637 390 192.5C389.251 187.5 387.584 182.833 385 178.5C383.103 176.984 380.936 176.317 378.5 176.5Z" fill="#B31816"/>
<path fill-rule="evenodd" clip-rule="evenodd" d="M238.5 197.5C240.288 197.215 241.955 197.548 243.5 198.5C243.484 201.476 243.317 204.476 243 207.5C246.903 204.916 250.07 202.249 252.5 199.5C254.071 200.309 255.738 200.643 257.5 200.5C257.66 204.236 258.493 204.236 260 200.5C260.333 201.167 260.667 201.833 261 202.5C261.718 201.549 262.551 201.383 263.5 202C262.549 202.718 262.383 203.551 263 204.5C263.956 203.421 264.789 202.255 265.5 201C266.784 200.316 267.951 200.483 269 201.5C269.456 200.256 268.956 199.423 267.5 199C268.025 198.308 268.692 197.808 269.5 197.5C271.71 198.766 273.71 200.266 275.5 202C274.971 203.559 274.304 205.059 273.5 206.5C273.624 207.107 273.957 207.44 274.5 207.5C274.5 207.833 274.5 208.167 274.5 208.5C271.122 215.283 266.789 221.283 261.5 226.5C260.038 227.458 258.705 228.624 257.5 230C252.833 230.667 248.167 230.667 243.5 230C234.107 226.373 224.773 222.873 215.5 219.5C219.015 219.121 222.348 218.121 225.5 216.5C230.585 210.658 234.918 204.325 238.5 197.5Z" fill="#AC1515"/>
<path fill-rule="evenodd" clip-rule="evenodd" d="M359.5 203.5C362.5 203.5 365.5 203.5 368.5 203.5C368.833 204.167 369.167 204.833 369.5 205.5C372.212 216.819 369.546 226.652 361.5 235C359.975 236.009 358.308 236.509 356.5 236.5C359.203 228.519 361.203 220.353 362.5 212C362.749 208.677 361.749 205.843 359.5 203.5Z" fill="#0E0E0C"/>
<path fill-rule="evenodd" clip-rule="evenodd" d="M470.5 215.5C480.28 216.214 487.614 220.714 492.5 229C491.646 230.022 490.646 230.855 489.5 231.5C482.139 228.41 474.472 227.076 466.5 227.5C461.703 221.722 463.036 217.722 470.5 215.5Z" fill="#131310"/>
<path fill-rule="evenodd" clip-rule="evenodd" d="M523.5 223.5C533.745 221.93 542.578 224.597 550 231.5C550.971 234.304 550.138 236.304 547.5 237.5C535.76 233.733 523.76 232.566 511.5 234C510.124 231.46 510.79 229.46 513.5 228C516.564 225.63 519.897 224.13 523.5 223.5Z" fill="#121210"/>
<path fill-rule="evenodd" clip-rule="evenodd" d="M356.5 237.5C356.5 237.167 356.5 236.833 356.5 236.5C358.308 236.509 359.975 236.009 361.5 235C369.546 226.652 372.212 216.819 369.5 205.5C370.268 204.737 370.768 203.737 371 202.5C373.069 203.264 375.236 203.764 377.5 204C384.911 219.573 381.578 232.573 367.5 243C363.381 244.281 360.047 243.281 357.5 240C360.39 238.108 360.056 237.275 356.5 237.5Z" fill="#B31916"/>
<path fill-rule="evenodd" clip-rule="evenodd" d="M469.5 233.5C473.637 233.146 477.637 233.646 481.5 235C482.848 236.574 483.514 238.407 483.5 240.5C483.301 245.876 480.634 248.042 475.5 247C471.926 243.476 471.593 239.642 474.5 235.5C472.89 235.593 471.224 235.26 469.5 234.5C469.5 234.167 469.5 233.833 469.5 233.5Z" fill="#151411"/>
<path fill-rule="evenodd" clip-rule="evenodd" d="M525.5 240.5C530.582 241.081 533.582 243.914 534.5 249C531.131 258.461 526.631 258.961 521 250.5C519.571 245.783 521.071 242.45 525.5 240.5Z" fill="#141512"/>
<path fill-rule="evenodd" clip-rule="evenodd" d="M378.5 176.5C380.936 176.317 383.103 176.984 385 178.5C387.584 182.833 389.251 187.5 390 192.5C391.227 205.637 389.394 218.304 384.5 230.5C380.534 245.263 372.868 257.763 361.5 268C357.687 269.772 353.687 270.605 349.5 270.5C347.284 269.797 345.451 268.464 344 266.5C341.383 261.817 339.883 256.817 339.5 251.5C339.414 250.504 339.748 249.671 340.5 249C346.43 245.88 351.763 242.047 356.5 237.5C360.056 237.275 360.39 238.108 357.5 240C360.047 243.281 363.381 244.281 367.5 243C381.578 232.573 384.911 219.573 377.5 204C375.236 203.764 373.069 203.264 371 202.5C370.768 203.737 370.268 204.737 369.5 205.5C369.167 204.833 368.833 204.167 368.5 203.5C367.878 201.665 366.544 200.498 364.5 200C361.808 199.57 359.141 199.737 356.5 200.5C355.596 199.791 355.263 198.791 355.5 197.5C357.432 194.634 359.099 191.634 360.5 188.5C363.306 184.863 366.639 181.696 370.5 179C372.909 177.293 375.575 176.46 378.5 176.5Z" fill="#E8392A"/>
<path fill-rule="evenodd" clip-rule="evenodd" d="M404.5 271.5C397.414 282.023 387.747 285.19 375.5 281C366.613 277.767 357.947 274.267 349.5 270.5C353.687 270.605 357.687 269.772 361.5 268C372.868 257.763 380.534 245.263 384.5 230.5C385.222 230.082 385.722 229.416 386 228.5C386.219 229.938 386.719 231.271 387.5 232.5C388.696 232.154 388.696 231.654 387.5 231C388.448 230.517 389.448 230.351 390.5 230.5C390.343 229.127 390.51 227.793 391 226.5C392.333 226.5 393.667 226.5 395 226.5C395.49 225.207 395.657 223.873 395.5 222.5C397.714 222.291 399.381 223.124 400.5 225C401.943 227.078 401.276 227.911 398.5 227.5C398.649 226.448 398.483 225.448 398 224.5C397.426 226.492 396.259 227.992 394.5 229C397.46 228.68 400.46 228.68 403.5 229C401.833 230 400.167 231 398.5 232C400.23 233.852 401.396 233.686 402 231.5C402.7 233.032 403.866 234.032 405.5 234.5C405.296 233.471 405.796 232.471 407 231.5C407.589 233.863 409.089 234.863 411.5 234.5C411.185 232.774 411.019 231.107 411 229.5C412.022 230.354 412.855 231.354 413.5 232.5C412.098 233.842 412.431 234.676 414.5 235C412.715 236.163 410.715 236.83 408.5 237C410.167 237.333 411.833 237.667 413.5 238C412.464 239.617 411.297 239.784 410 238.5C409.654 240.218 409.154 241.885 408.5 243.5C409.355 244.293 410.189 243.96 411 242.5C411 243.833 411 245.167 411 246.5C411.893 245.289 412.726 245.289 413.5 246.5C412.097 248.731 410.93 251.064 410 253.5C408.334 252.66 408.167 253.16 409.5 255C405.716 256.453 402.882 258.953 401 262.5C400.667 262.167 400.333 261.833 400 261.5C399.79 262.803 399.957 264.136 400.5 265.5C400.471 267.029 399.804 268.196 398.5 269C399.552 270.716 398.886 271.716 396.5 272C398.5 272.667 400.5 272.667 402.5 272C403.256 270.62 403.922 270.453 404.5 271.5Z" fill="#AD1515"/>
<path fill-rule="evenodd" clip-rule="evenodd" d="M763.5 622.5C758.911 600.378 754.744 578.045 751 555.5C745.938 540.71 739.271 526.71 731 513.5C730.31 498.812 729.31 484.145 728 469.5C725.1 445.5 713.934 426.667 694.5 413C683.372 407.973 671.705 404.973 659.5 404C656.505 402.502 653.505 401.002 650.5 399.5C635.108 393.304 620.108 386.304 605.5 378.5C601.469 376.715 597.803 374.382 594.5 371.5C595.847 370.829 597.014 370.829 598 371.5C599.008 369.741 600.508 368.574 602.5 368C601.578 364.541 601.745 361.041 603 357.5C604.745 353.987 607.245 350.487 610.5 347C610.043 346.586 609.709 346.086 609.5 345.5C633.951 309.402 668.117 286.402 712 276.5C720.296 274.075 728.796 272.575 737.5 272C752.304 271.704 767.304 272.037 782.5 273C827.754 279.751 864.921 302.584 894 341.5C904.62 359.903 913.454 379.07 920.5 399C921.042 406.231 922.375 413.564 924.5 421C924.415 422.107 924.081 423.107 923.5 424C925.007 430.545 926.007 437.212 926.5 444C926.157 478.385 916.991 510.218 899 539.5C893.635 546.857 888.301 554.19 883 561.5C861.876 585.38 836.542 603.046 807 614.5C806.667 614.167 806.333 613.833 806 613.5C799.334 617.5 792.334 619.833 785 620.5C779.41 622.488 773.744 624.154 768 625.5C766.881 624.448 766.381 623.281 766.5 622C765.251 621.26 764.251 621.427 763.5 622.5Z" fill="#F7F6F4"/>
<path fill-rule="evenodd" clip-rule="evenodd" d="M488.5 244.5C489.124 244.917 489.457 245.584 489.5 246.5C486.949 257 482.949 266.833 477.5 276C480.765 282.3 486.099 284.967 493.5 284C494.833 284.667 494.833 285.333 493.5 286C488.245 286.438 483.245 285.438 478.5 283C476.552 281.561 475.219 279.728 474.5 277.5C477.649 271.203 480.815 264.87 484 258.5C485.802 253.905 487.302 249.238 488.5 244.5Z" fill="#16100E"/>
<path fill-rule="evenodd" clip-rule="evenodd" d="M603.5 303.5C600.246 305.029 596.913 306.362 593.5 307.5C587.788 307.687 582.121 307.354 576.5 306.5C576.856 305.13 577.69 304.13 579 303.5C586.891 305.763 594.724 305.43 602.5 302.5C603.107 302.624 603.44 302.957 603.5 303.5Z" fill="#C36D57"/>
<path fill-rule="evenodd" clip-rule="evenodd" d="M576.5 258.5C576.462 261.951 575.795 265.284 574.5 268.5C574.833 269.167 575.167 269.833 575.5 270.5C580.927 267.241 585.927 263.408 590.5 259C602.297 253.279 610.964 256.112 616.5 267.5C617.692 281.598 613.359 293.598 603.5 303.5C603.44 302.957 603.107 302.624 602.5 302.5C594.724 305.43 586.891 305.763 579 303.5C577.69 304.13 576.856 305.13 576.5 306.5C572.659 318.025 565.993 327.525 556.5 335C537.771 345.182 517.771 351.016 496.5 352.5C483.068 352.036 473.568 345.702 468 333.5C462.366 309.036 460.866 284.37 463.5 259.5C463.51 271.312 463.677 283.312 464 295.5C464.333 293.833 464.667 292.167 465 290.5C466.25 291.573 467.584 291.573 469 290.5C469.945 290.905 470.612 291.572 471 292.5C473.123 291.117 474.123 289.45 474 287.5C474.949 291.378 476.115 291.378 477.5 287.5C479.115 288.154 480.782 288.654 482.5 289C482 289.5 481.5 290 481 290.5C479.989 289.663 478.822 289.33 477.5 289.5C477.649 290.552 477.483 291.552 477 292.5C476.667 292.167 476.333 291.833 476 291.5C473.195 293.779 470.362 295.279 467.5 296C468.793 296.49 470.127 296.657 471.5 296.5C471.461 298.359 472.294 299.692 474 300.5C474.71 299.027 475.876 298.36 477.5 298.5C476.824 300.188 476.824 301.521 477.5 302.5C476.448 302.351 475.448 302.517 474.5 303C478.985 304.548 483.318 306.381 487.5 308.5C485.681 309.936 485.348 311.603 486.5 313.5C491.318 315.886 496.318 316.053 501.5 314C503.687 312.975 505.354 311.475 506.5 309.5C510.647 310.325 514.981 310.825 519.5 311C518.692 311.308 518.025 311.808 517.5 312.5C518.771 312.126 519.938 312.792 521 314.5C521.199 312.598 522.033 311.098 523.5 310C522.366 308.984 522.699 308.317 524.5 308C523.044 307.577 522.544 306.744 523 305.5C528.788 303.753 528.788 302.42 523 301.5C521.391 302.15 519.891 301.65 518.5 300C520.361 298.972 521.695 297.472 522.5 295.5C521.624 294.749 520.624 294.249 519.5 294C520.416 293.626 521.25 293.126 522 292.5C522.75 293.126 523.584 293.626 524.5 294C523.483 295.049 523.316 296.216 524 297.5C525.587 296.273 526.921 296.606 528 298.5C530.029 295.874 529.195 294.874 525.5 295.5C525.413 292.402 525.913 292.068 527 294.5C527.667 291.833 528.333 291.833 529 294.5C529.333 293.167 529.667 291.833 530 290.5C530.853 288.875 531.853 288.542 533 289.5C533.667 288.5 533.667 287.5 533 286.5C532.346 287.696 531.846 287.696 531.5 286.5C533.923 283.794 535.09 284.461 535 288.5C537.405 285.8 536.905 283.967 533.5 283C536.383 282.205 537.883 283.371 538 286.5C539.31 284.868 539.81 283.201 539.5 281.5C541.446 283.087 542.946 282.754 544 280.5C544.308 281.308 544.808 281.975 545.5 282.5C546.981 281.52 548.315 280.353 549.5 279C545.706 275.821 546.206 274.321 551 274.5C554.357 273.258 554.19 272.424 550.5 272C553.544 271.641 553.878 270.974 551.5 270C552.833 266.667 554.167 266.667 555.5 270C554.366 271.016 554.699 271.683 556.5 272C555.549 272.718 555.383 273.551 556 274.5C557.555 272.854 559.221 272.521 561 273.5C560.503 271.802 560.67 270.135 561.5 268.5C559.618 268.642 557.618 268.142 555.5 267C556.448 266.517 557.448 266.351 558.5 266.5C558.372 264.345 558.872 262.345 560 260.5C559.782 262.587 559.949 264.587 560.5 266.5C561.935 265.176 562.935 263.51 563.5 261.5C563.296 262.529 563.796 263.529 565 264.5C566.57 263.386 567.903 262.053 569 260.5C569.333 260.833 569.667 261.167 570 261.5C570.115 258.992 571.115 256.992 573 255.5C574.642 255.978 575.809 256.978 576.5 258.5Z" fill="#EE9B7D"/>
<path fill-rule="evenodd" clip-rule="evenodd" d="M487.5 308.5C494.022 308.177 500.355 308.51 506.5 309.5C505.354 311.475 503.687 312.975 501.5 314C496.318 316.053 491.318 315.886 486.5 313.5C485.348 311.603 485.681 309.936 487.5 308.5Z" fill="#C37059"/>
<path fill-rule="evenodd" clip-rule="evenodd" d="M477.5 302.5C478.263 303.268 479.263 303.768 480.5 304C485.866 304.323 491.199 304.823 496.5 305.5C504.378 306.995 512.378 307.828 520.5 308C515.934 309.309 511.267 309.809 506.5 309.5C500.355 308.51 494.022 308.177 487.5 308.5C483.318 306.381 478.985 304.548 474.5 303C475.448 302.517 476.448 302.351 477.5 302.5Z" fill="#20130F"/>
<path fill-rule="evenodd" clip-rule="evenodd" d="M496.5 305.5C491.199 304.823 485.866 304.323 480.5 304C479.263 303.768 478.263 303.268 477.5 302.5C476.824 301.521 476.824 300.188 477.5 298.5C486.601 297.441 495.267 298.941 503.5 303C501.167 304.043 498.834 304.876 496.5 305.5Z" fill="#D68268"/>
<path fill-rule="evenodd" clip-rule="evenodd" d="M613.5 273.5C614.283 280.348 612.449 286.681 608 292.5C610.304 286.409 612.137 280.076 613.5 273.5Z" fill="#6C3028"/>
<path fill-rule="evenodd" clip-rule="evenodd" d="M595.5 271.5C597.461 273.963 599.628 276.297 602 278.5C603.202 282.793 602.035 286.293 598.5 289C597.668 289.688 597.002 289.521 596.5 288.5C600.341 286.468 601.341 283.468 599.5 279.5C598.702 281.078 598.202 282.744 598 284.5C595.705 284.689 593.705 286.023 592 288.5C591.333 287.167 591.333 285.833 592 284.5C593.563 283.275 594.73 281.775 595.5 280C594.244 278.155 593.244 276.155 592.5 274C592.57 273.235 592.903 272.735 593.5 272.5C593.435 272.938 593.601 273.272 594 273.5C594.278 272.584 594.778 271.918 595.5 271.5Z" fill="#9A5042"/>
<path fill-rule="evenodd" clip-rule="evenodd" d="M595.5 271.5C594.778 271.918 594.278 272.584 594 273.5C593.601 273.272 593.435 272.938 593.5 272.5C596.733 265.048 602.066 262.881 609.5 266C603.748 264.975 599.081 266.808 595.5 271.5Z" fill="#481A19"/>
<path fill-rule="evenodd" clip-rule="evenodd" d="M576.5 306.5C582.121 307.354 587.788 307.687 593.5 307.5C593.245 311.8 592.245 315.8 590.5 319.5C586.46 316.135 582.127 313.135 577.5 310.5C571.68 325.486 562.013 337.319 548.5 346C533.346 355.575 517.013 362.408 499.5 366.5C498.503 373.134 498.17 379.8 498.5 386.5C497.833 375.833 497.167 365.167 496.5 354.5C496.5 353.833 496.5 353.167 496.5 352.5C517.771 351.016 537.771 345.182 556.5 335C565.993 327.525 572.659 318.025 576.5 306.5Z" fill="#11100E"/>
<path fill-rule="evenodd" clip-rule="evenodd" d="M316.5 165.5C313.468 169.061 310.968 173.061 309 177.5C307.086 185.736 304.92 193.903 302.5 202C302.833 202.5 303.167 203 303.5 203.5C305.121 201.847 306.288 199.847 307 197.5C309.812 186.564 313.312 175.898 317.5 165.5C325.253 163.349 331.587 165.349 336.5 171.5C325.334 180.498 319.501 192.164 319 206.5C320.207 202.133 321.541 197.8 323 193.5C328.6 186.624 333.433 179.29 337.5 171.5C348.248 172.904 355.915 178.571 360.5 188.5C359.099 191.634 357.432 194.634 355.5 197.5C353.063 197.244 350.729 196.577 348.5 195.5C347.833 192.5 347.167 189.5 346.5 186.5C344.985 188.547 344.151 190.881 344 193.5C342.803 191.117 341.97 191.45 341.5 194.5C342.467 196.762 343.134 199.095 343.5 201.5C337.023 202.254 331.023 200.92 325.5 197.5C324.304 197.846 324.304 198.346 325.5 199C329.913 201.526 334.58 203.359 339.5 204.5C342.382 203.623 345.049 202.29 347.5 200.5C350.449 201.302 353.449 201.636 356.5 201.5C357.5 202.167 358.5 202.833 359.5 203.5C361.749 205.843 362.749 208.677 362.5 212C361.203 220.353 359.203 228.519 356.5 236.5C356.5 236.833 356.5 237.167 356.5 237.5C351.763 242.047 346.43 245.88 340.5 249C339.748 249.671 339.414 250.504 339.5 251.5C329.633 255.098 319.966 259.264 310.5 264C301.261 285.648 292.427 307.482 284 329.5C281.238 345.728 279.238 362.061 278 378.5C277.023 383.886 275.856 389.22 274.5 394.5C293.723 390.172 313.056 390.672 332.5 396C337.706 397.68 342.706 399.847 347.5 402.5C362.77 389.2 380.437 380.7 400.5 377C417.753 374.261 433.753 377.428 448.5 386.5C412.45 415.263 388.45 451.929 376.5 496.5C375.05 488.929 374.383 481.262 374.5 473.5C374.872 463.131 375.372 452.798 376 442.5C374.089 452.789 372.422 463.122 371 473.5C369.769 474.108 368.436 474.441 367 474.5C362.807 473.426 358.641 472.593 354.5 472C359.364 475.05 364.697 476.55 370.5 476.5C370.237 487.205 370.57 497.872 371.5 508.5C333.466 511.567 296.133 507.734 259.5 497C236.751 490.528 214.418 482.862 192.5 474C180.838 469.337 172.005 461.504 166 450.5C165.228 445.096 165.561 439.762 167 434.5C172.326 414.855 178.659 395.522 186 376.5C192.063 364.041 198.396 351.708 205 339.5C223 308.833 241 278.167 259 247.5C262.032 240.578 262.865 233.578 261.5 226.5C266.789 221.283 271.122 215.283 274.5 208.5C285.061 212.128 295.394 216.128 305.5 220.5C308.757 220.361 311.924 219.694 315 218.5C320.744 220.158 326.577 220.658 332.5 220C333.91 219.632 334.91 218.799 335.5 217.5C332.5 215.333 329.5 213.167 326.5 211C314.393 210.661 302.393 209.661 290.5 208C287.958 202.257 287.958 196.424 290.5 190.5C291.496 190.586 292.329 190.252 293 189.5C293.496 184.792 293.162 180.125 292 175.5C291.189 174.04 290.355 173.707 289.5 174.5C290.754 176.643 290.754 178.643 289.5 180.5C287.784 180.371 286.117 180.038 284.5 179.5C284.187 175.958 284.521 172.625 285.5 169.5C287.437 165.728 290.27 162.728 294 160.5C295.285 160.95 296.452 161.617 297.5 162.5C301.636 160.553 305.97 160.053 310.5 161C313.106 161.792 315.106 163.292 316.5 165.5Z" fill="#EB9370"/>
<path fill-rule="evenodd" clip-rule="evenodd" d="M305.5 220.5C302.979 222.701 300.479 225.034 298 227.5C296.032 231.96 294.698 236.627 294 241.5C291.955 233.503 293.788 226.669 299.5 221C301.473 220.505 303.473 220.338 305.5 220.5Z" fill="#7E3529"/>
<path fill-rule="evenodd" clip-rule="evenodd" d="M316.5 165.5C316.833 165.5 317.167 165.5 317.5 165.5C313.312 175.898 309.812 186.564 307 197.5C306.288 199.847 305.121 201.847 303.5 203.5C303.167 203 302.833 202.5 302.5 202C304.92 193.903 307.086 185.736 309 177.5C310.968 173.061 313.468 169.061 316.5 165.5Z" fill="#9C4936"/>
<path fill-rule="evenodd" clip-rule="evenodd" d="M336.5 171.5C336.833 171.5 337.167 171.5 337.5 171.5C333.433 179.29 328.6 186.624 323 193.5C321.541 197.8 320.207 202.133 319 206.5C319.501 192.164 325.334 180.498 336.5 171.5Z" fill="#904130"/>
<path fill-rule="evenodd" clip-rule="evenodd" d="M590.5 319.5C588.984 329.78 587.651 340.113 586.5 350.5C586.617 356.754 587.784 362.754 590 368.5C591.129 370.141 592.629 371.141 594.5 371.5C597.803 374.382 601.469 376.715 605.5 378.5C598.397 386.105 591.063 393.605 583.5 401C564.05 417.056 541.716 425.89 516.5 427.5C484.699 426.132 473.699 410.799 483.5 381.5C487.825 380.054 492.158 378.387 496.5 376.5C496.788 382.229 496.454 387.896 495.5 393.5C495.846 394.696 496.346 394.696 497 393.5C497.29 391.08 497.79 388.746 498.5 386.5C498.17 379.8 498.503 373.134 499.5 366.5C517.013 362.408 533.346 355.575 548.5 346C562.013 337.319 571.68 325.486 577.5 310.5C582.127 313.135 586.46 316.135 590.5 319.5Z" fill="#EC9878"/>
<path fill-rule="evenodd" clip-rule="evenodd" d="M496.5 354.5C497.167 365.167 497.833 375.833 498.5 386.5C497.79 388.746 497.29 391.08 497 393.5C496.346 394.696 495.846 394.696 495.5 393.5C496.454 387.896 496.788 382.229 496.5 376.5C496.5 369.167 496.5 361.833 496.5 354.5Z" fill="#78554A"/>
<path fill-rule="evenodd" clip-rule="evenodd" d="M273.5 396.5C269.717 409.876 261.884 420.876 250 429.5C254.488 424.323 259.155 418.99 264 413.5C267.686 408.129 270.852 402.462 273.5 396.5Z" fill="#1B1310"/>
<path fill-rule="evenodd" clip-rule="evenodd" d="M605.5 378.5C620.108 386.304 635.108 393.304 650.5 399.5C641.512 408.115 635.012 418.448 631 430.5C624.491 445.855 620.991 461.855 620.5 478.5C619.67 488.659 619.17 498.992 619 509.5C618.568 495.212 618.401 481.046 618.5 467C615.526 466.965 614.526 468.298 615.5 471C614.789 472.255 613.956 473.421 613 474.5C612.667 473.833 612.333 473.167 612 472.5C611.333 473.833 610.667 473.833 610 472.5C610.077 473.738 609.911 474.738 609.5 475.5C608.3 474.469 606.966 473.635 605.5 473C607.973 471.598 607.973 470.098 605.5 468.5C604.289 469.274 604.289 470.107 605.5 471C603.744 471.202 602.078 471.702 600.5 472.5C601.833 473.5 601.833 474.5 600.5 475.5C600.977 476.478 601.643 477.311 602.5 478C601.551 478.617 600.718 478.451 600 477.5C599.833 478 599.667 478.5 599.5 479C600.384 480.098 601.384 480.598 602.5 480.5C599.972 481.816 599.972 482.983 602.5 484C598.907 484.684 598.573 486.184 601.5 488.5C601.167 488.833 600.833 489.167 600.5 489.5C599.509 487.677 598.176 486.177 596.5 485C597.328 484.085 598.328 483.419 599.5 483C598.376 482.751 597.376 482.251 596.5 481.5C597.833 480.5 597.833 479.5 596.5 478.5C597.025 477.808 597.692 477.308 598.5 477C596.439 474.937 594.106 473.27 591.5 472C593.988 470.315 593.655 468.981 590.5 468C589.092 467.685 587.759 468.018 586.5 469C586.957 469.414 587.291 469.914 587.5 470.5C585.107 472.837 584.273 475.503 585 478.5C584.333 477.167 583.667 477.167 583 478.5C581.98 477.109 581.147 475.609 580.5 474C578.888 473.28 577.388 473.446 576 474.5C574.421 472.959 572.587 471.792 570.5 471C571.167 470.667 571.833 470.333 572.5 470C569.283 467.636 569.283 465.969 572.5 465C568.715 464.426 565.048 463.76 561.5 463C564.034 464.734 565.534 466.9 566 469.5C564.703 468.216 563.536 468.383 562.5 470C563.793 470.49 565.127 470.657 566.5 470.5C566.5 471.5 566.5 472.5 566.5 473.5C568.592 473.561 570.092 474.561 571 476.5C570.923 475.262 571.089 474.262 571.5 473.5C573.155 476.025 574.988 477.691 577 478.5C578.044 477.377 578.71 476.044 579 474.5C580.009 476.025 580.509 477.692 580.5 479.5C579.127 479.343 577.793 479.51 576.5 480C577.956 480.423 578.456 481.256 578 482.5C577 481.167 576 481.167 575 482.5C572.591 480.251 570.757 480.918 569.5 484.5C569.167 484.333 568.833 484.167 568.5 484C568.255 482.089 568.255 480.089 568.5 478C567.874 477.25 567.374 476.416 567 475.5C566.667 475.833 566.333 476.167 566 476.5C565.667 475.5 565.333 474.5 565 473.5C565.123 475.45 564.123 477.117 562 478.5C561.28 476.888 561.446 475.388 562.5 474C561.91 472.491 561.244 470.991 560.5 469.5C559.549 470.326 558.549 470.492 557.5 470C558.551 468.615 559.884 467.615 561.5 467C558.045 465.356 555.045 466.189 552.5 469.5C551.914 469.291 551.414 468.957 551 468.5C549.167 469.667 547.667 471.167 546.5 473C547.833 473 549.167 473 550.5 473C549.346 473.914 549.513 474.747 551 475.5C551.333 474.5 551.667 473.5 552 472.5C553.033 475.033 554.867 476.699 557.5 477.5C557.591 480.619 558.424 483.619 560 486.5C559.333 485.167 558.667 485.167 558 486.5C557.667 485.833 557.333 485.167 557 484.5C555.667 486.167 554.333 487.833 553 489.5C552.217 487.567 552.717 486.067 554.5 485C552.759 483.38 550.925 481.88 549 480.5C548.667 481.833 548.333 483.167 548 484.5C547.5 483.333 546.667 482.5 545.5 482C547.208 479.957 549.208 478.29 551.5 477C549.018 476.323 547.185 477.156 546 479.5C542.803 475.833 541.469 476.499 542 481.5C540.467 481.056 538.967 480.723 537.5 480.5C536.808 481.025 536.308 481.692 536 482.5C534.055 481.137 531.888 480.303 529.5 480C530.308 479.692 530.975 479.192 531.5 478.5C531.167 477.167 530.833 475.833 530.5 474.5C529.522 474.977 528.689 475.643 528 476.5C527.667 478.5 527.333 480.5 527 482.5C525.16 481.167 524.66 481.334 525.5 483C523.699 483.317 523.366 483.984 524.5 485C524 485.5 523.5 486 523 486.5C522.167 484.333 520.667 482.833 518.5 482C520.5 481.333 522.5 480.667 524.5 480C527.156 477.771 526.823 475.938 523.5 474.5C522.522 474.977 521.689 475.643 521 476.5C520.228 475.151 519.061 474.318 517.5 474C517.833 473.667 518.167 473.333 518.5 473C516.421 472.192 514.421 472.359 512.5 473.5C513.5 475.833 512.833 476.5 510.5 475.5C509.749 476.376 509.249 477.376 509 478.5C507.658 477.098 506.824 477.431 506.5 479.5C506.529 481.029 507.196 482.196 508.5 483C507.044 483.423 506.544 484.256 507 485.5C508.744 486.03 510.244 486.03 511.5 485.5C511.023 486.478 510.357 487.311 509.5 488C510.634 489.016 510.301 489.683 508.5 490C510.405 490.826 510.739 491.993 509.5 493.5C506.369 492.203 504.036 490.036 502.5 487C505.001 485.582 504.668 484.582 501.5 484C502.016 481.967 501.35 481.967 499.5 484C500.28 485.073 500.113 486.24 499 487.5C497.701 484.024 496.868 480.691 496.5 477.5C497.833 476.167 499.167 474.833 500.5 473.5C500.154 472.304 499.654 472.304 499 473.5C498.516 468.523 499.682 468.189 502.5 472.5C501.794 474.479 501.794 476.146 502.5 477.5C503.676 475.239 504.843 473.239 506 471.5C504.16 472.833 503.66 472.666 504.5 471C502.114 470.716 501.448 469.716 502.5 468C500.939 467.682 499.772 466.849 499 465.5C498.667 466.167 498.333 466.833 498 467.5C497.915 465.915 497.749 464.582 497.5 463.5C496.328 463.919 495.328 464.585 494.5 465.5C495.167 465.833 495.833 466.167 496.5 466.5C495.635 467.583 494.635 467.749 493.5 467C493.406 465.578 493.072 464.078 492.5 462.5C490.304 464.747 488.97 464.08 488.5 460.5C486.123 460.216 483.956 460.216 482 460.5C481.581 459.328 480.915 458.328 480 457.5C479.654 459.218 479.154 460.885 478.5 462.5C478.709 463.086 479.043 463.586 479.5 464C476.895 465.79 475.395 468.29 475 471.5C474.581 470.328 473.915 469.328 473 468.5C470.182 469.128 467.515 470.128 465 471.5C463.775 471.138 462.609 470.638 461.5 470C462.112 468.141 462.112 466.141 461.5 464C461.359 462.045 460.526 460.545 459 459.5C458.707 461.925 457.541 463.758 455.5 465C456.5 465.833 457.5 466.667 458.5 467.5C458.291 468.086 457.957 468.586 457.5 469C458.744 469.456 459.577 468.956 460 467.5C460.667 468.833 460.667 470.167 460 471.5C459.333 470.167 458.667 470.167 458 471.5C457.044 470.421 456.211 469.255 455.5 468C454.365 467.251 453.365 467.417 452.5 468.5C454.417 471.239 457.084 472.739 460.5 473C459.051 474.117 457.384 474.784 455.5 475C458.493 475.427 458.993 476.594 457 478.5C456.667 477.833 456.333 477.167 456 476.5C455.83 478.715 455.163 480.715 454 482.5C450.349 479.817 449.182 480.65 450.5 485C448.819 486.989 447.486 489.156 446.5 491.5C448.331 492.052 449.997 492.052 451.5 491.5C452.833 492.5 454.167 493.5 455.5 494.5C454.667 494.833 453.833 495.167 453 495.5C450.97 494.123 448.97 493.123 447 492.5C444 494.997 443.833 497.664 446.5 500.5C445.726 501.711 444.893 501.711 444 500.5C443.388 503.032 441.888 503.865 439.5 503C440.167 502.667 440.833 502.333 441.5 502C439.899 501.727 438.399 501.227 437 500.5C432.622 503.337 427.955 504.337 423 503.5C422.544 504.744 423.044 505.577 424.5 506C422.126 508.065 419.96 507.899 418 505.5C416.256 506.649 416.089 507.983 417.5 509.5C415.15 510.774 415.317 512.107 418 513.5C418.967 512.322 419.467 510.989 419.5 509.5C421.833 508.833 424.167 508.167 426.5 507.5C425.391 506.035 425.891 505.035 428 504.5C430.167 506 430 507.167 427.5 508C428.938 508.219 430.271 508.719 431.5 509.5C430.754 510.736 430.421 512.07 430.5 513.5C435.921 513.734 436.754 515.734 433 519.5C432.581 518.328 431.915 517.328 431 516.5C431.068 519.338 430.901 522.004 430.5 524.5C429.692 524.192 429.025 523.692 428.5 523C429.833 521 429.833 519 428.5 517C429.623 515.956 430.956 515.29 432.5 515C430.782 514.654 429.115 514.154 427.5 513.5C426.289 512.726 426.289 511.893 427.5 511C425.887 510.911 424.72 511.745 424 513.5C422.869 512.396 422.035 512.729 421.5 514.5C422.894 515.687 422.727 516.354 421 516.5C417.648 515.767 415.148 513.934 413.5 511C413.905 510.055 414.572 509.388 415.5 509C414.234 508.691 413.067 508.191 412 507.5C412.149 511.436 410.983 511.436 408.5 507.5C407.479 508.002 407.312 508.668 408 509.5C409.298 510.56 410.465 511.726 411.5 513C410.506 515.918 411.006 516.084 413 513.5C415.969 514.603 416.136 515.936 413.5 517.5C415.87 520.626 415.203 521.126 411.5 519C412.711 518.107 412.711 517.274 411.5 516.5C409.036 519.134 406.369 521.468 403.5 523.5C400.716 525.952 401.049 527.952 404.5 529.5C402.922 530.298 401.256 530.798 399.5 531C400.5 531.333 401.5 531.667 402.5 532C401.354 532.645 400.354 533.478 399.5 534.5C397.519 533.895 397.185 532.895 398.5 531.5C397.333 529.833 396.167 528.167 395 526.5C392.266 527.362 392.099 528.195 394.5 529C393.833 529.333 393.167 529.667 392.5 530C394.596 533.767 397.762 535.934 402 536.5C402.915 535.672 403.581 534.672 404 533.5C406.021 535.651 405.521 537.151 402.5 538C409.075 538.532 409.075 539.366 402.5 540.5C400.247 539.747 398.413 538.414 397 536.5C396.7 539.016 397.867 540.682 400.5 541.5C399.313 541.554 397.98 541.887 396.5 542.5C398.674 543.893 400.507 543.56 402 541.5C403.044 542.623 403.71 543.956 404 545.5C404.75 544.874 405.584 544.374 406.5 544C405.044 543.577 404.544 542.744 405 541.5C406.5 542.667 408 543.833 409.5 545C408.552 545.483 407.552 545.649 406.5 545.5C406.778 547.346 406.111 548.68 404.5 549.5C403.304 549.154 403.304 548.654 404.5 548C403.833 547.333 403.167 547.333 402.5 548C401.624 549.586 400.624 551.086 399.5 552.5C401.369 553.624 403.369 554.457 405.5 555C403.114 555.284 402.448 556.284 403.5 558C402.451 558.492 401.451 558.326 400.5 557.5C399.757 556.092 398.923 554.759 398 553.5C396.43 553.694 394.93 553.694 393.5 553.5C394.939 555.343 394.772 557.01 393 558.5C392.667 558.167 392.333 557.833 392 557.5C391.161 560.14 391.661 562.473 393.5 564.5C391.675 565.571 390.508 564.904 390 562.5C387.259 563.222 386.259 564.888 387 567.5C387.414 567.043 387.914 566.709 388.5 566.5C389.318 568.108 389.985 569.775 390.5 571.5C389.194 572.912 388.36 574.579 388 576.5C387.682 574.939 386.849 573.772 385.5 573C386.448 572.517 387.448 572.351 388.5 572.5C388.367 569.104 387.367 568.771 385.5 571.5C384.808 570.975 384.308 570.308 384 569.5C384.443 572.992 384.276 576.325 383.5 579.5C380.939 566.529 378.439 553.529 376 540.5C375.501 536.848 375.335 533.182 375.5 529.5C375.5 521.167 375.5 512.833 375.5 504.5C375.833 501.833 376.167 499.167 376.5 496.5C388.45 451.929 412.45 415.263 448.5 386.5C460.172 384.975 471.838 383.308 483.5 381.5C473.699 410.799 484.699 426.132 516.5 427.5C541.716 425.89 564.05 417.056 583.5 401C591.063 393.605 598.397 386.105 605.5 378.5Z" fill="#C61F1B"/>
<path fill-rule="evenodd" clip-rule="evenodd" d="M376.5 496.5C376.167 499.167 375.833 501.833 375.5 504.5C374.566 505.568 374.232 506.901 374.5 508.5C373.5 508.5 372.5 508.5 371.5 508.5C370.57 497.872 370.237 487.205 370.5 476.5C364.697 476.55 359.364 475.05 354.5 472C358.641 472.593 362.807 473.426 367 474.5C368.436 474.441 369.769 474.108 371 473.5C372.422 463.122 374.089 452.789 376 442.5C375.372 452.798 374.872 463.131 374.5 473.5C374.383 481.262 375.05 488.929 376.5 496.5Z" fill="#100F0D"/>
<path fill-rule="evenodd" clip-rule="evenodd" d="M375.5 504.5C375.5 512.833 375.5 521.167 375.5 529.5C374.509 523.021 374.176 516.354 374.5 509.5C373.209 509.737 372.209 509.404 371.5 508.5C372.5 508.5 373.5 508.5 374.5 508.5C374.232 506.901 374.566 505.568 375.5 504.5Z" fill="#E0AEA3"/>
<path fill-rule="evenodd" clip-rule="evenodd" d="M330.5 730.5C314.398 728.478 298.231 727.144 282 726.5C259.452 725.01 240.452 732.343 225 748.5C219.241 756.609 215.741 765.609 214.5 775.5C213.883 775.389 213.383 775.056 213 774.5C212.667 784.5 212.333 794.5 212 804.5C211.667 794.833 211.333 785.167 211 775.5C209.667 776.833 208.333 778.167 207 779.5C181.707 767.611 161.207 749.444 145.5 725C135.361 705.393 129.694 685.06 128.5 664C128.835 655.445 130.169 646.611 132.5 637.5C132.291 636.914 131.957 636.414 131.5 636C133.527 634.604 133.86 632.938 132.5 631C138.414 613.26 146.748 596.76 157.5 581.5C160.161 580.108 162.494 578.274 164.5 576C163.549 575.282 163.383 574.449 164 573.5C178.377 558.366 195.043 548.366 214 543.5C232.988 534.524 252.321 533.191 272 539.5C274.064 538.409 276.231 538.242 278.5 539C308.061 547.131 331.895 562.964 350 586.5C354.383 596.267 359.049 605.933 364 615.5C375.458 649.496 373.125 682.496 357 714.5C353.546 718.58 350.046 722.58 346.5 726.5C344.659 727.23 342.825 727.897 341 728.5C339.75 727.427 338.416 727.427 337 728.5C334.641 725.966 333.474 726.633 333.5 730.5C332.5 730.5 331.5 730.5 330.5 730.5Z" fill="#F7F6F4"/>
<path fill-rule="evenodd" clip-rule="evenodd" d="M651.5 585.5C650.5 586.833 649.5 588.167 648.5 589.5C643.013 577.036 639.347 564.036 637.5 550.5C637.658 541.648 637.325 532.815 636.5 524C636.582 520.765 637.082 517.598 638 514.5C638.146 526.574 639.146 538.574 641 550.5C644.005 562.345 647.505 574.012 651.5 585.5Z" fill="#14100D"/>
<path fill-rule="evenodd" clip-rule="evenodd" d="M620.5 478.5C619.912 493.597 620.745 508.597 623 523.5C625.255 534.018 630.089 543.018 637.5 550.5C639.347 564.036 643.013 577.036 648.5 589.5C647.883 589.611 647.383 589.944 647 590.5C645.056 596.165 643.222 601.832 641.5 607.5C639.733 609.792 638.733 612.458 638.5 615.5C636.733 617.792 635.733 620.458 635.5 623.5C634.662 623.842 634.328 624.508 634.5 625.5C633.069 626.78 632.402 628.447 632.5 630.5C627.706 640.96 624.873 651.96 624 663.5C622.25 683.158 622.083 702.825 623.5 722.5C623.5 725.167 623.5 727.833 623.5 730.5C610.378 731.089 599.045 735.756 589.5 744.5C591.04 733.001 588.873 722.335 583 712.5C580.079 708.908 576.579 706.075 572.5 704C561.904 700.523 551.238 697.356 540.5 694.5C535.915 694.921 531.582 696.255 527.5 698.5C517.389 706.699 510.222 717.032 506 729.5C501.877 741.672 499.044 754.172 497.5 767C497.532 775.18 499.532 782.68 503.5 789.5C503.376 790.107 503.043 790.44 502.5 790.5C501.972 789.279 501.305 788.113 500.5 787C484.228 787.676 468.561 785.009 453.5 779C438.675 771.424 424.342 763.091 410.5 754C403.608 750.326 396.608 747.159 389.5 744.5C390.09 726.833 390.756 709.167 391.5 691.5C389.712 654.053 387.045 616.72 383.5 579.5C384.276 576.325 384.443 572.992 384 569.5C384.308 570.308 384.808 570.975 385.5 571.5C387.367 568.771 388.367 569.104 388.5 572.5C387.448 572.351 386.448 572.517 385.5 573C386.849 573.772 387.682 574.939 388 576.5C388.36 574.579 389.194 572.912 390.5 571.5C389.985 569.775 389.318 568.108 388.5 566.5C387.914 566.709 387.414 567.043 387 567.5C386.259 564.888 387.259 563.222 390 562.5C390.508 564.904 391.675 565.571 393.5 564.5C391.661 562.473 391.161 560.14 392 557.5C392.333 557.833 392.667 558.167 393 558.5C394.772 557.01 394.939 555.343 393.5 553.5C394.93 553.694 396.43 553.694 398 553.5C398.923 554.759 399.757 556.092 400.5 557.5C401.451 558.326 402.451 558.492 403.5 558C402.448 556.284 403.114 555.284 405.5 555C403.369 554.457 401.369 553.624 399.5 552.5C400.624 551.086 401.624 549.586 402.5 548C403.167 547.333 403.833 547.333 404.5 548C403.304 548.654 403.304 549.154 404.5 549.5C406.111 548.68 406.778 547.346 406.5 545.5C407.552 545.649 408.552 545.483 409.5 545C408 543.833 406.5 542.667 405 541.5C404.544 542.744 405.044 543.577 406.5 544C405.584 544.374 404.75 544.874 404 545.5C403.71 543.956 403.044 542.623 402 541.5C400.507 543.56 398.674 543.893 396.5 542.5C397.98 541.887 399.313 541.554 400.5 541.5C397.867 540.682 396.7 539.016 397 536.5C398.413 538.414 400.247 539.747 402.5 540.5C409.075 539.366 409.075 538.532 402.5 538C405.521 537.151 406.021 535.651 404 533.5C403.581 534.672 402.915 535.672 402 536.5C397.762 535.934 394.596 533.767 392.5 530C393.167 529.667 393.833 529.333 394.5 529C392.099 528.195 392.266 527.362 395 526.5C396.167 528.167 397.333 529.833 398.5 531.5C397.185 532.895 397.519 533.895 399.5 534.5C400.354 533.478 401.354 532.645 402.5 532C401.5 531.667 400.5 531.333 399.5 531C401.256 530.798 402.922 530.298 404.5 529.5C401.049 527.952 400.716 525.952 403.5 523.5C406.369 521.468 409.036 519.134 411.5 516.5C412.711 517.274 412.711 518.107 411.5 519C415.203 521.126 415.87 520.626 413.5 517.5C416.136 515.936 415.969 514.603 413 513.5C411.006 516.084 410.506 515.918 411.5 513C410.465 511.726 409.298 510.56 408 509.5C407.312 508.668 407.479 508.002 408.5 507.5C410.983 511.436 412.149 511.436 412 507.5C413.067 508.191 414.234 508.691 415.5 509C414.572 509.388 413.905 510.055 413.5 511C415.148 513.934 417.648 515.767 421 516.5C422.727 516.354 422.894 515.687 421.5 514.5C422.035 512.729 422.869 512.396 424 513.5C424.72 511.745 425.887 510.911 427.5 511C426.289 511.893 426.289 512.726 427.5 513.5C429.115 514.154 430.782 514.654 432.5 515C430.956 515.29 429.623 515.956 428.5 517C429.833 519 429.833 521 428.5 523C429.025 523.692 429.692 524.192 430.5 524.5C430.901 522.004 431.068 519.338 431 516.5C431.915 517.328 432.581 518.328 433 519.5C436.754 515.734 435.921 513.734 430.5 513.5C430.421 512.07 430.754 510.736 431.5 509.5C430.271 508.719 428.938 508.219 427.5 508C430 507.167 430.167 506 428 504.5C425.891 505.035 425.391 506.035 426.5 507.5C424.167 508.167 421.833 508.833 419.5 509.5C419.467 510.989 418.967 512.322 418 513.5C415.317 512.107 415.15 510.774 417.5 509.5C416.089 507.983 416.256 506.649 418 505.5C419.96 507.899 422.126 508.065 424.5 506C423.044 505.577 422.544 504.744 423 503.5C427.955 504.337 432.622 503.337 437 500.5C438.399 501.227 439.899 501.727 441.5 502C440.833 502.333 440.167 502.667 439.5 503C441.888 503.865 443.388 503.032 444 500.5C444.893 501.711 445.726 501.711 446.5 500.5C443.833 497.664 444 494.997 447 492.5C448.97 493.123 450.97 494.123 453 495.5C453.833 495.167 454.667 494.833 455.5 494.5C454.167 493.5 452.833 492.5 451.5 491.5C449.997 492.052 448.331 492.052 446.5 491.5C447.486 489.156 448.819 486.989 450.5 485C449.182 480.65 450.349 479.817 454 482.5C455.163 480.715 455.83 478.715 456 476.5C456.333 477.167 456.667 477.833 457 478.5C458.993 476.594 458.493 475.427 455.5 475C457.384 474.784 459.051 474.117 460.5 473C457.084 472.739 454.417 471.239 452.5 468.5C453.365 467.417 454.365 467.251 455.5 468C456.211 469.255 457.044 470.421 458 471.5C458.667 470.167 459.333 470.167 460 471.5C460.667 470.167 460.667 468.833 460 467.5C459.577 468.956 458.744 469.456 457.5 469C457.957 468.586 458.291 468.086 458.5 467.5C457.5 466.667 456.5 465.833 455.5 465C457.541 463.758 458.707 461.925 459 459.5C460.526 460.545 461.359 462.045 461.5 464C462.112 466.141 462.112 468.141 461.5 470C462.609 470.638 463.775 471.138 465 471.5C467.515 470.128 470.182 469.128 473 468.5C473.915 469.328 474.581 470.328 475 471.5C475.395 468.29 476.895 465.79 479.5 464C479.043 463.586 478.709 463.086 478.5 462.5C479.154 460.885 479.654 459.218 480 457.5C480.915 458.328 481.581 459.328 482 460.5C483.956 460.216 486.123 460.216 488.5 460.5C488.97 464.08 490.304 464.747 492.5 462.5C493.072 464.078 493.406 465.578 493.5 467C494.635 467.749 495.635 467.583 496.5 466.5C495.833 466.167 495.167 465.833 494.5 465.5C495.328 464.585 496.328 463.919 497.5 463.5C497.749 464.582 497.915 465.915 498 467.5C498.333 466.833 498.667 466.167 499 465.5C499.772 466.849 500.939 467.682 502.5 468C501.448 469.716 502.114 470.716 504.5 471C503.66 472.666 504.16 472.833 506 471.5C504.843 473.239 503.676 475.239 502.5 477.5C501.794 476.146 501.794 474.479 502.5 472.5C499.682 468.189 498.516 468.523 499 473.5C499.654 472.304 500.154 472.304 500.5 473.5C499.167 474.833 497.833 476.167 496.5 477.5C496.868 480.691 497.701 484.024 499 487.5C500.113 486.24 500.28 485.073 499.5 484C501.35 481.967 502.016 481.967 501.5 484C504.668 484.582 505.001 485.582 502.5 487C504.036 490.036 506.369 492.203 509.5 493.5C510.739 491.993 510.405 490.826 508.5 490C510.301 489.683 510.634 489.016 509.5 488C510.357 487.311 511.023 486.478 511.5 485.5C510.244 486.03 508.744 486.03 507 485.5C506.544 484.256 507.044 483.423 508.5 483C507.196 482.196 506.529 481.029 506.5 479.5C506.824 477.431 507.658 477.098 509 478.5C509.249 477.376 509.749 476.376 510.5 475.5C512.833 476.5 513.5 475.833 512.5 473.5C514.421 472.359 516.421 472.192 518.5 473C518.167 473.333 517.833 473.667 517.5 474C519.061 474.318 520.228 475.151 521 476.5C521.689 475.643 522.522 474.977 523.5 474.5C526.823 475.938 527.156 477.771 524.5 480C522.5 480.667 520.5 481.333 518.5 482C520.667 482.833 522.167 484.333 523 486.5C523.5 486 524 485.5 524.5 485C523.366 483.984 523.699 483.317 525.5 483C524.66 481.334 525.16 481.167 527 482.5C527.333 480.5 527.667 478.5 528 476.5C528.689 475.643 529.522 474.977 530.5 474.5C530.833 475.833 531.167 477.167 531.5 478.5C530.975 479.192 530.308 479.692 529.5 480C531.888 480.303 534.055 481.137 536 482.5C536.308 481.692 536.808 481.025 537.5 480.5C538.967 480.723 540.467 481.056 542 481.5C541.469 476.499 542.803 475.833 546 479.5C547.185 477.156 549.018 476.323 551.5 477C549.208 478.29 547.208 479.957 545.5 482C546.667 482.5 547.5 483.333 548 484.5C548.333 483.167 548.667 481.833 549 480.5C550.925 481.88 552.759 483.38 554.5 485C552.717 486.067 552.217 487.567 553 489.5C554.333 487.833 555.667 486.167 557 484.5C557.333 485.167 557.667 485.833 558 486.5C558.667 485.167 559.333 485.167 560 486.5C558.424 483.619 557.591 480.619 557.5 477.5C554.867 476.699 553.033 475.033 552 472.5C551.667 473.5 551.333 474.5 551 475.5C549.513 474.747 549.346 473.914 550.5 473C549.167 473 547.833 473 546.5 473C547.667 471.167 549.167 469.667 551 468.5C551.414 468.957 551.914 469.291 552.5 469.5C555.045 466.189 558.045 465.356 561.5 467C559.884 467.615 558.551 468.615 557.5 470C558.549 470.492 559.549 470.326 560.5 469.5C561.244 470.991 561.91 472.491 562.5 474C561.446 475.388 561.28 476.888 562 478.5C564.123 477.117 565.123 475.45 565 473.5C565.333 474.5 565.667 475.5 566 476.5C566.333 476.167 566.667 475.833 567 475.5C567.374 476.416 567.874 477.25 568.5 478C568.255 480.089 568.255 482.089 568.5 484C568.833 484.167 569.167 484.333 569.5 484.5C570.757 480.918 572.591 480.251 575 482.5C576 481.167 577 481.167 578 482.5C578.456 481.256 577.956 480.423 576.5 480C577.793 479.51 579.127 479.343 580.5 479.5C580.509 477.692 580.009 476.025 579 474.5C578.71 476.044 578.044 477.377 577 478.5C574.988 477.691 573.155 476.025 571.5 473.5C571.089 474.262 570.923 475.262 571 476.5C570.092 474.561 568.592 473.561 566.5 473.5C566.5 472.5 566.5 471.5 566.5 470.5C565.127 470.657 563.793 470.49 562.5 470C563.536 468.383 564.703 468.216 566 469.5C565.534 466.9 564.034 464.734 561.5 463C565.048 463.76 568.715 464.426 572.5 465C569.283 465.969 569.283 467.636 572.5 470C571.833 470.333 571.167 470.667 570.5 471C572.587 471.792 574.421 472.959 576 474.5C577.388 473.446 578.888 473.28 580.5 474C581.147 475.609 581.98 477.109 583 478.5C583.667 477.167 584.333 477.167 585 478.5C584.273 475.503 585.107 472.837 587.5 470.5C587.291 469.914 586.957 469.414 586.5 469C587.759 468.018 589.092 467.685 590.5 468C593.655 468.981 593.988 470.315 591.5 472C594.106 473.27 596.439 474.937 598.5 477C597.692 477.308 597.025 477.808 596.5 478.5C597.833 479.5 597.833 480.5 596.5 481.5C597.376 482.251 598.376 482.751 599.5 483C598.328 483.419 597.328 484.085 596.5 485C598.176 486.177 599.509 487.677 600.5 489.5C600.833 489.167 601.167 488.833 601.5 488.5C598.573 486.184 598.907 484.684 602.5 484C599.972 482.983 599.972 481.816 602.5 480.5C601.384 480.598 600.384 480.098 599.5 479C599.667 478.5 599.833 478 600 477.5C600.718 478.451 601.551 478.617 602.5 478C601.643 477.311 600.977 476.478 600.5 475.5C601.833 474.5 601.833 473.5 600.5 472.5C602.078 471.702 603.744 471.202 605.5 471C604.289 470.107 604.289 469.274 605.5 468.5C607.973 470.098 607.973 471.598 605.5 473C606.966 473.635 608.3 474.469 609.5 475.5C609.911 474.738 610.077 473.738 610 472.5C610.667 473.833 611.333 473.833 612 472.5C612.333 473.167 612.667 473.833 613 474.5C613.956 473.421 614.789 472.255 615.5 471C614.526 468.298 615.526 466.965 618.5 467C618.401 481.046 618.568 495.212 619 509.5C619.17 498.992 619.67 488.659 620.5 478.5Z" fill="#C31F1B"/>
<path fill-rule="evenodd" clip-rule="evenodd" d="M650.5 399.5C653.505 401.002 656.505 402.502 659.5 404C671.705 404.973 683.372 407.973 694.5 413C713.934 426.667 725.1 445.5 728 469.5C729.31 484.145 730.31 498.812 731 513.5C739.271 526.71 745.938 540.71 751 555.5C754.744 578.045 758.911 600.378 763.5 622.5C765.197 633.778 765.697 645.112 765 656.5C757.175 675.316 746.508 692.316 733 707.5C715.797 725.047 697.13 740.714 677 754.5C675.178 760.748 673.678 767.081 672.5 773.5C672.624 774.107 672.957 774.44 673.5 774.5C671.41 779.945 670.076 785.612 669.5 791.5C669.285 806.952 662.285 817.952 648.5 824.5C643.833 825.5 639.167 826.5 634.5 827.5C632.698 826.542 630.698 825.875 628.5 825.5C634.552 822.378 640.052 818.378 645 813.5C646.241 812.123 646.408 810.79 645.5 809.5C638.91 814.614 632.577 819.947 626.5 825.5C622.888 826.511 619.221 826.678 615.5 826C613.416 825.303 611.749 824.136 610.5 822.5C617.058 818.122 623.224 813.122 629 807.5C631.51 804.801 633.176 801.801 634 798.5C626.201 807.142 617.701 814.809 608.5 821.5C602.425 822.628 597.425 820.961 593.5 816.5C602.216 809.283 609.716 800.949 616 791.5C617.59 789.35 618.257 787.017 618 784.5C610.396 795.933 601.563 806.266 591.5 815.5C579.673 816.672 573.34 811.339 572.5 799.5C572.102 791.132 575.936 787.799 584 789.5C589.052 787.446 592.385 783.779 594 778.5C596.961 771.988 597.127 765.488 594.5 759C592.35 757.589 590.016 756.755 587.5 756.5C587.191 752.295 587.857 748.295 589.5 744.5C599.045 735.756 610.378 731.089 623.5 730.5C623.5 727.833 623.5 725.167 623.5 722.5C624.161 723.718 624.828 725.051 625.5 726.5C629.477 723.691 633.31 720.691 637 717.5C639.667 713.5 642.333 709.5 645 705.5C651.728 691.044 658.728 676.711 666 662.5C671.843 654.138 677.676 645.804 683.5 637.5C689.438 633.422 695.771 629.922 702.5 627C708.745 625.261 715.078 623.927 721.5 623C706.707 621.873 694.041 626.373 683.5 636.5C670.585 621.024 659.918 604.024 651.5 585.5C647.505 574.012 644.005 562.345 641 550.5C639.146 538.574 638.146 526.574 638 514.5C637.082 517.598 636.582 520.765 636.5 524C637.325 532.815 637.658 541.648 637.5 550.5C630.089 543.018 625.255 534.018 623 523.5C620.745 508.597 619.912 493.597 620.5 478.5C620.991 461.855 624.491 445.855 631 430.5C635.012 418.448 641.512 408.115 650.5 399.5Z" fill="#EA9471"/>
<path fill-rule="evenodd" clip-rule="evenodd" d="M651.5 585.5C659.918 604.024 670.585 621.024 683.5 636.5C683.5 636.833 683.5 637.167 683.5 637.5C677.676 645.804 671.843 654.138 666 662.5C658.728 676.711 651.728 691.044 645 705.5C642.333 709.5 639.667 713.5 637 717.5C633.31 720.691 629.477 723.691 625.5 726.5C624.828 725.051 624.161 723.718 623.5 722.5C622.083 702.825 622.25 683.158 624 663.5C624.873 651.96 627.706 640.96 632.5 630.5C633.931 629.22 634.598 627.553 634.5 625.5C634.328 624.508 634.662 623.842 635.5 623.5C637.397 621.302 638.397 618.636 638.5 615.5C640.267 613.208 641.267 610.542 641.5 607.5C644.907 602.003 647.241 596.003 648.5 589.5C649.5 588.167 650.5 586.833 651.5 585.5Z" fill="#FCF9F7"/>
<path fill-rule="evenodd" clip-rule="evenodd" d="M648.5 589.5C647.241 596.003 644.907 602.003 641.5 607.5C643.222 601.832 645.056 596.165 647 590.5C647.383 589.944 647.883 589.611 648.5 589.5Z" fill="#1A1211"/>
<path fill-rule="evenodd" clip-rule="evenodd" d="M641.5 607.5C641.267 610.542 640.267 613.208 638.5 615.5C638.733 612.458 639.733 609.792 641.5 607.5Z" fill="#1F1B19"/>
<path fill-rule="evenodd" clip-rule="evenodd" d="M638.5 615.5C638.397 618.636 637.397 621.302 635.5 623.5C635.733 620.458 636.733 617.792 638.5 615.5Z" fill="#585D5B"/>
<path fill-rule="evenodd" clip-rule="evenodd" d="M683.5 637.5C683.5 637.167 683.5 636.833 683.5 636.5C694.041 626.373 706.707 621.873 721.5 623C715.078 623.927 708.745 625.261 702.5 627C695.771 629.922 689.438 633.422 683.5 637.5Z" fill="#19110E"/>
<path fill-rule="evenodd" clip-rule="evenodd" d="M634.5 625.5C634.598 627.553 633.931 629.22 632.5 630.5C632.402 628.447 633.069 626.78 634.5 625.5Z" fill="#39221C"/>
<path fill-rule="evenodd" clip-rule="evenodd" d="M540.5 694.5C547.237 697.555 551.403 702.888 553 710.5C555.4 738.9 548.734 764.9 533 788.5C526.453 797.349 517.953 800.182 507.5 797C505.235 795.242 503.568 793.075 502.5 790.5C503.043 790.44 503.376 790.107 503.5 789.5C499.532 782.68 497.532 775.18 497.5 767C499.044 754.172 501.877 741.672 506 729.5C510.222 717.032 517.389 706.699 527.5 698.5C531.582 696.255 535.915 694.921 540.5 694.5Z" fill="#A41214"/>
<path fill-rule="evenodd" clip-rule="evenodd" d="M430.5 721.5C436.242 728.714 443.576 733.881 452.5 737C462.317 738.801 471.984 741.135 481.5 744C466.086 743.862 451.753 739.862 438.5 732C434.825 729.172 432.158 725.672 430.5 721.5Z" fill="#2D1510"/>
<path fill-rule="evenodd" clip-rule="evenodd" d="M693.5 758.5C703.566 759.061 709.4 764.395 711 774.5C714.172 804.34 706.005 830.507 686.5 853C680 858.338 672.666 859.838 664.5 857.5C660.611 855.757 658.111 852.757 657 848.5C654.615 841.225 654.115 833.892 655.5 826.5C672.778 830.232 682.111 823.232 683.5 805.5C683.179 796.512 678.512 791.845 669.5 791.5C670.076 785.612 671.41 779.945 673.5 774.5C678.124 766.536 684.79 761.203 693.5 758.5Z" fill="#A41213"/>
<path fill-rule="evenodd" clip-rule="evenodd" d="M598.5 761.5C600.026 762.492 600.693 763.992 600.5 766C599.843 771.283 598.677 776.45 597 781.5C596.07 784.362 594.403 786.695 592 788.5C594.473 783.516 596.473 778.183 598 772.5C598.499 768.848 598.665 765.182 598.5 761.5Z" fill="#562926"/>
<path fill-rule="evenodd" clip-rule="evenodd" d="M593.5 816.5C592.833 816.167 592.167 815.833 591.5 815.5C601.563 806.266 610.396 795.933 618 784.5C618.257 787.017 617.59 789.35 616 791.5C609.716 800.949 602.216 809.283 593.5 816.5Z" fill="#7D3F31"/>
<path fill-rule="evenodd" clip-rule="evenodd" d="M693.5 758.5C693.917 757.876 694.584 757.543 695.5 757.5C706.98 760.493 718.313 763.993 729.5 768C739.309 775.052 743.976 784.719 743.5 797C742.869 819.899 735.702 840.399 722 858.5C715.433 866.689 706.933 870.189 696.5 869C685.5 865.615 674.834 861.782 664.5 857.5C672.666 859.838 680 858.338 686.5 853C706.005 830.507 714.172 804.34 711 774.5C709.4 764.395 703.566 759.061 693.5 758.5Z" fill="#10120F"/>
<path fill-rule="evenodd" clip-rule="evenodd" d="M610.5 822.5C609.833 822.167 609.167 821.833 608.5 821.5C617.701 814.809 626.201 807.142 634 798.5C633.176 801.801 631.51 804.801 629 807.5C623.224 813.122 617.058 818.122 610.5 822.5Z" fill="#783E32"/>
<path fill-rule="evenodd" clip-rule="evenodd" d="M669.5 791.5C678.512 791.845 683.179 796.512 683.5 805.5C682.111 823.232 672.778 830.232 655.5 826.5C653.485 825.076 651.152 824.41 648.5 824.5C662.285 817.952 669.285 806.952 669.5 791.5Z" fill="#0E0F0C"/>
<path fill-rule="evenodd" clip-rule="evenodd" d="M628.5 825.5C627.833 825.5 627.167 825.5 626.5 825.5C632.577 819.947 638.91 814.614 645.5 809.5C646.408 810.79 646.241 812.123 645 813.5C640.052 818.378 634.552 822.378 628.5 825.5Z" fill="#834234"/>
<path fill-rule="evenodd" clip-rule="evenodd" d="M492.5 1080.5C444.297 1089.75 396.297 1099.42 348.5 1109.5C346.833 1109.5 345.167 1109.5 343.5 1109.5C343.67 1108.18 343.337 1107.01 342.5 1106C339.924 1104.54 337.258 1103.38 334.5 1102.5C334.44 1101.96 334.107 1101.62 333.5 1101.5C332.749 1102.38 332.249 1103.38 332 1104.5C329.939 1097 329.106 1089.33 329.5 1081.5C331.317 1047.05 332.15 1012.39 332 977.5C334.331 960.509 336.664 943.509 339 926.5C339.667 913.833 339.667 901.167 339 888.5C338.131 882.717 337.131 877.051 336 871.5C380.097 892.42 426.597 902.42 475.5 901.5C477.903 961.479 483.57 1021.15 492.5 1080.5Z" fill="#FCFBF9"/>
<path fill-rule="evenodd" clip-rule="evenodd" d="M540.5 694.5C551.238 697.356 561.904 700.523 572.5 704C576.579 706.075 580.079 708.908 583 712.5C588.873 722.335 591.04 733.001 589.5 744.5C587.857 748.295 587.191 752.295 587.5 756.5C590.016 756.755 592.35 757.589 594.5 759C597.127 765.488 596.961 771.988 594 778.5C592.385 783.779 589.052 787.446 584 789.5C575.936 787.799 572.102 791.132 572.5 799.5C573.34 811.339 579.673 816.672 591.5 815.5C592.167 815.833 592.833 816.167 593.5 816.5C597.425 820.961 602.425 822.628 608.5 821.5C609.167 821.833 609.833 822.167 610.5 822.5C611.749 824.136 613.416 825.303 615.5 826C619.221 826.678 622.888 826.511 626.5 825.5C627.167 825.5 627.833 825.5 628.5 825.5C630.698 825.875 632.698 826.542 634.5 827.5C634.461 838.557 633.628 849.557 632 860.5C629.477 873.256 626.644 885.923 623.5 898.5C625.998 937.866 625.998 977.2 623.5 1016.5C623.624 1017.11 623.957 1017.44 624.5 1017.5C624.938 1017.43 625.272 1017.6 625.5 1018C620.684 1020.12 619.684 1023.45 622.5 1028C621 1030.62 620.666 1033.29 621.5 1036C618.212 1039.51 617.212 1043.51 618.5 1048C616.51 1051.58 615.844 1055.25 616.5 1059C615.114 1062.69 614.28 1066.53 614 1070.5C611.999 1075.18 609.999 1079.85 608 1084.5C607.163 1086.82 606.83 1089.15 607 1091.5C615.776 1088.58 619.942 1082.58 619.5 1073.5C622.564 1067.92 624.397 1061.92 625 1055.5C626.535 1042.52 628.035 1029.52 629.5 1016.5C628.5 1016.5 627.5 1016.5 626.5 1016.5C637.652 1009.83 649.652 1005 662.5 1002C683.429 997.401 704.429 993.235 725.5 989.5C735.317 996.114 740.817 1005.45 742 1017.5C742.5 1024.49 742.666 1031.49 742.5 1038.5C741.273 1042.13 740.106 1045.79 739 1049.5C736.648 1051.03 734.481 1052.7 732.5 1054.5C725.24 1059.42 718.574 1065.09 712.5 1071.5C692.199 1089.99 671.865 1108.49 651.5 1127C640.167 1136.33 628.833 1145.67 617.5 1155C592.952 1171.55 566.619 1175.22 538.5 1166C518.688 1155.9 505.855 1140.07 500 1118.5C497.164 1105.77 494.664 1093.1 492.5 1080.5C483.57 1021.15 477.903 961.479 475.5 901.5C426.597 902.42 380.097 892.42 336 871.5C337.131 877.051 338.131 882.717 339 888.5C339.667 901.167 339.667 913.833 339 926.5C336.664 943.509 334.331 960.509 332 977.5C332.15 1012.39 331.317 1047.05 329.5 1081.5C310.258 1084.03 290.924 1085.03 271.5 1084.5C269.393 1083.53 267.059 1083.2 264.5 1083.5C256.666 1034.5 245.833 986.165 232 938.5C219.704 884.877 213.871 830.544 214.5 775.5C215.741 765.609 219.241 756.609 225 748.5C240.452 732.343 259.452 725.01 282 726.5C298.231 727.144 314.398 728.478 330.5 730.5C350.173 734.667 369.839 739.334 389.5 744.5C396.608 747.159 403.608 750.326 410.5 754C424.342 763.091 438.675 771.424 453.5 779C468.561 785.009 484.228 787.676 500.5 787C501.305 788.113 501.972 789.279 502.5 790.5C503.568 793.075 505.235 795.242 507.5 797C517.953 800.182 526.453 797.349 533 788.5C548.734 764.9 555.4 738.9 553 710.5C551.403 702.888 547.237 697.555 540.5 694.5Z" fill="#0E100D"/>
<path fill-rule="evenodd" clip-rule="evenodd" d="M445.5 821.5C446.954 822.52 447.287 823.687 446.5 825C449.298 826.134 451.464 827.968 453 830.5C456.078 844.656 459.745 858.656 464 872.5C465.883 874.409 467.383 876.575 468.5 879C467.816 880.827 468.483 882.327 470.5 883.5C471.631 885.074 471.798 886.741 471 888.5C468.903 887.009 466.57 886.009 464 885.5C461.05 880.437 458.217 875.27 455.5 870C450.311 854.224 446.978 838.057 445.5 821.5Z" fill="#191B18"/>
<path fill-rule="evenodd" clip-rule="evenodd" d="M742.5 1038.5C742.666 1031.49 742.5 1024.49 742 1017.5C740.817 1005.45 735.317 996.114 725.5 989.5C727.934 988.015 730.267 986.348 732.5 984.5C736.946 979.395 741.613 979.228 746.5 984C762.139 998.428 763.639 1014.26 751 1031.5C748.412 1034.2 745.579 1036.53 742.5 1038.5Z" fill="#EC9673"/>
<path fill-rule="evenodd" clip-rule="evenodd" d="M775.5 957.5C788.673 960.368 797.173 968.368 801 981.5C801.842 985.869 802.842 990.203 804 994.5C805.218 1025.77 807.718 1056.93 811.5 1088C810.98 1097.25 808.813 1106.08 805 1114.5C794.852 1125.34 782.352 1131.84 767.5 1134C759.869 1135.31 752.203 1135.64 744.5 1135C736.384 1133.13 728.384 1130.96 720.5 1128.5C720.5 1129.83 720.5 1131.17 720.5 1132.5C720.631 1133.24 720.464 1133.91 720 1134.5C719.088 1132.34 718.255 1130.17 717.5 1128C718.167 1127.33 718.833 1126.67 719.5 1126C718.57 1124.6 718.57 1123.1 719.5 1121.5C719.081 1120.33 718.415 1119.33 717.5 1118.5C726.99 1115.19 734.157 1109.19 739 1100.5C739.909 1097.49 740.742 1094.49 741.5 1091.5C743.766 1091.14 745.599 1091.81 747 1093.5C752.135 1092.81 757.302 1092.14 762.5 1091.5C763.812 1092.46 765.146 1092.29 766.5 1091C765.552 1090.52 764.552 1090.35 763.5 1090.5C764.952 1089.7 766.618 1089.2 768.5 1089C767.833 1088.67 767.167 1088.33 766.5 1088C757.84 1087.5 749.173 1087.33 740.5 1087.5C741.279 1085.58 741.613 1083.75 741.5 1082C740.833 1080.67 739.833 1079.67 738.5 1079C739.167 1078.67 739.833 1078.33 740.5 1078C738.264 1077.92 736.93 1077.42 736.5 1076.5C738.176 1075.82 738.843 1074.48 738.5 1072.5C746.84 1072.67 755.173 1072.5 763.5 1072C765.256 1071.8 766.922 1071.3 768.5 1070.5C759.518 1069.33 750.518 1069.17 741.5 1070C740.099 1070.41 738.766 1070.91 737.5 1071.5C735.631 1065.89 733.964 1060.23 732.5 1054.5C734.481 1052.7 736.648 1051.03 739 1049.5C740.106 1045.79 741.273 1042.13 742.5 1038.5C745.579 1036.53 748.412 1034.2 751 1031.5C763.639 1014.26 762.139 998.428 746.5 984C741.613 979.228 736.946 979.395 732.5 984.5C732.681 981.603 732.348 978.77 731.5 976C731.759 974.739 732.426 973.739 733.5 973C742.167 968.333 750.833 963.667 759.5 959C764.736 957.661 770.07 957.161 775.5 957.5Z" fill="#C6201B"/>
<path fill-rule="evenodd" clip-rule="evenodd" d="M749.5 1051.5C754.511 1051.33 759.511 1051.5 764.5 1052C763.377 1053.04 762.044 1053.71 760.5 1054C753.821 1054.77 747.155 1055.6 740.5 1056.5C738.5 1056.17 736.5 1055.83 734.5 1055.5C734.709 1054.91 735.043 1054.41 735.5 1054C740.362 1053.48 745.028 1052.64 749.5 1051.5Z" fill="#7D1011"/>
<path fill-rule="evenodd" clip-rule="evenodd" d="M732.5 1054.5C733.964 1060.23 735.631 1065.89 737.5 1071.5C737.5 1072.17 737.833 1072.5 738.5 1072.5C738.843 1074.48 738.176 1075.82 736.5 1076.5C728.74 1074.23 720.74 1072.56 712.5 1071.5C718.574 1065.09 725.24 1059.42 732.5 1054.5Z" fill="#FAF6F4"/>
<path fill-rule="evenodd" clip-rule="evenodd" d="M624.5 1017.5C624.842 1016.66 625.508 1016.33 626.5 1016.5C627.5 1016.5 628.5 1016.5 629.5 1016.5C628.035 1029.52 626.535 1042.52 625 1055.5C624.397 1061.92 622.564 1067.92 619.5 1073.5C619.942 1082.58 615.776 1088.58 607 1091.5C606.83 1089.15 607.163 1086.82 608 1084.5C609.999 1079.85 611.999 1075.18 614 1070.5C614.28 1066.53 615.114 1062.69 616.5 1059C615.844 1055.25 616.51 1051.58 618.5 1048C617.212 1043.51 618.212 1039.51 621.5 1036C620.666 1033.29 621 1030.62 622.5 1028C619.684 1023.45 620.684 1020.12 625.5 1018C625.272 1017.6 624.938 1017.43 624.5 1017.5Z" fill="#191B18"/>
<path fill-rule="evenodd" clip-rule="evenodd" d="M738.5 1072.5C737.833 1072.5 737.5 1072.17 737.5 1071.5C738.766 1070.91 740.099 1070.41 741.5 1070C750.518 1069.17 759.518 1069.33 768.5 1070.5C766.922 1071.3 765.256 1071.8 763.5 1072C755.173 1072.5 746.84 1072.67 738.5 1072.5Z" fill="#791111"/>
<path fill-rule="evenodd" clip-rule="evenodd" d="M740.5 1087.5C749.173 1087.33 757.84 1087.5 766.5 1088C767.167 1088.33 767.833 1088.67 768.5 1089C766.618 1089.2 764.952 1089.7 763.5 1090.5C756.159 1090.67 748.826 1090.5 741.5 1090C740.748 1089.33 740.414 1088.5 740.5 1087.5Z" fill="#7B1011"/>
<path fill-rule="evenodd" clip-rule="evenodd" d="M329.5 1081.5C329.106 1089.33 329.939 1097 332 1104.5C332.249 1103.38 332.749 1102.38 333.5 1101.5C334.107 1101.62 334.44 1101.96 334.5 1102.5C332.272 1109.45 328.605 1115.61 323.5 1121C315.906 1124.91 308.906 1124.07 302.5 1118.5C299.473 1113.78 296.973 1108.78 295 1103.5C290.179 1097.84 284.012 1095.01 276.5 1095C273.518 1094.5 270.518 1094.34 267.5 1094.5C268.209 1093.6 269.209 1093.26 270.5 1093.5C270.264 1090.39 270.597 1087.39 271.5 1084.5C290.924 1085.03 310.258 1084.03 329.5 1081.5Z" fill="#EB9673"/>
<path fill-rule="evenodd" clip-rule="evenodd" d="M267.5 1094.5C270.518 1094.34 273.518 1094.5 276.5 1095C284.012 1095.01 290.179 1097.84 295 1103.5C296.973 1108.78 299.473 1113.78 302.5 1118.5C308.906 1124.07 315.906 1124.91 323.5 1121C328.605 1115.61 332.272 1109.45 334.5 1102.5C337.258 1103.38 339.924 1104.54 342.5 1106C343.337 1107.01 343.67 1108.18 343.5 1109.5C345.167 1109.5 346.833 1109.5 348.5 1109.5C349.239 1109.37 349.906 1109.54 350.5 1110C348.187 1110.66 345.854 1111.16 343.5 1111.5C343.489 1113.55 343.156 1115.55 342.5 1117.5C342.818 1118.65 343.484 1119.48 344.5 1120C342.872 1127.07 343.705 1133.91 347 1140.5C347.553 1147.62 349.053 1154.46 351.5 1161C350.144 1162.57 349.477 1164.4 349.5 1166.5C347.586 1170.91 344.252 1173.74 339.5 1175C325.416 1179.44 311.082 1182.77 296.5 1185C281.387 1190.72 266.387 1196.72 251.5 1203C231.161 1208.45 211.161 1207.45 191.5 1200C184.408 1196.45 177.408 1192.95 170.5 1189.5C171.239 1189.63 171.906 1189.46 172.5 1189C169.986 1187.55 167.32 1186.38 164.5 1185.5C165.391 1184.41 166.391 1184.41 167.5 1185.5C178.31 1175.67 189.644 1166.67 201.5 1158.5C198.814 1156.22 198.981 1155.55 202 1156.5C203.261 1156.24 204.261 1155.57 205 1154.5C205.333 1155.17 205.667 1155.83 206 1156.5C209.323 1154.18 212.323 1151.51 215 1148.5C215.333 1148.83 215.667 1149.17 216 1149.5C217.302 1148.92 218.469 1148.25 219.5 1147.5C228.304 1149.9 236.304 1153.9 243.5 1159.5C243.833 1159.17 244.167 1158.83 244.5 1158.5C237.973 1151.24 229.973 1146.57 220.5 1144.5C224.449 1144.31 224.449 1143.81 220.5 1143C223.681 1141.22 226.347 1138.88 228.5 1136C226.942 1135.79 225.609 1135.29 224.5 1134.5C228.007 1134.08 231.341 1133.08 234.5 1131.5C239.18 1133.56 243.846 1135.73 248.5 1138C251.851 1141.96 255.851 1144.13 260.5 1144.5C259.5 1143.67 258.5 1142.83 257.5 1142C259.756 1142.61 262.089 1142.95 264.5 1143C255.778 1137.14 246.445 1132.64 236.5 1129.5C238.612 1128.56 240.612 1127.39 242.5 1126C246.702 1121.63 251.036 1117.46 255.5 1113.5C258.587 1110.73 259.254 1107.4 257.5 1103.5C258.926 1098.41 262.259 1095.41 267.5 1094.5Z" fill="#C8201B"/>
<path fill-rule="evenodd" clip-rule="evenodd" d="M255.5 1113.5C263.715 1116.86 271.048 1121.69 277.5 1128C274.328 1127.83 271.328 1126.83 268.5 1125C265.113 1121.95 261.447 1119.28 257.5 1117C256.177 1116.18 255.511 1115.02 255.5 1113.5Z" fill="#831212"/>
<path fill-rule="evenodd" clip-rule="evenodd" d="M821.5 1095.5C820.25 1095.58 819.417 1096.24 819 1097.5C814.524 1124.64 798.691 1140.48 771.5 1145C755.942 1148.17 740.942 1146.51 726.5 1140C723.879 1137.89 721.879 1135.39 720.5 1132.5C720.5 1131.17 720.5 1129.83 720.5 1128.5C728.384 1130.96 736.384 1133.13 744.5 1135C752.203 1135.64 759.869 1135.31 767.5 1134C782.352 1131.84 794.852 1125.34 805 1114.5C808.813 1106.08 810.98 1097.25 811.5 1088C807.718 1056.93 805.218 1025.77 804 994.5C802.842 990.203 801.842 985.869 801 981.5C797.173 968.368 788.673 960.368 775.5 957.5C779.449 957.307 779.449 956.807 775.5 956C779.117 954.981 782.617 954.481 786 954.5C798.946 959.117 807.613 968.117 812 981.5C813.158 985.797 814.158 990.131 815 994.5C815.333 1008.17 815.667 1021.83 816 1035.5C818.486 1055.01 819.319 1074.51 818.5 1094C819.737 1094.23 820.737 1094.73 821.5 1095.5Z" fill="#F1EEEB"/>
<path fill-rule="evenodd" clip-rule="evenodd" d="M236.5 1129.5C246.445 1132.64 255.778 1137.14 264.5 1143C262.089 1142.95 259.756 1142.61 257.5 1142C258.5 1142.83 259.5 1143.67 260.5 1144.5C255.851 1144.13 251.851 1141.96 248.5 1138C243.846 1135.73 239.18 1133.56 234.5 1131.5C234.833 1130.5 235.5 1129.83 236.5 1129.5Z" fill="#851212"/>
<path fill-rule="evenodd" clip-rule="evenodd" d="M712.5 1071.5C720.74 1072.56 728.74 1074.23 736.5 1076.5C736.93 1077.42 738.264 1077.92 740.5 1078C739.833 1078.33 739.167 1078.67 738.5 1079C739.833 1079.67 740.833 1080.67 741.5 1082C741.613 1083.75 741.279 1085.58 740.5 1087.5C740.414 1088.5 740.748 1089.33 741.5 1090C748.826 1090.5 756.159 1090.67 763.5 1090.5C764.552 1090.35 765.552 1090.52 766.5 1091C765.146 1092.29 763.812 1092.46 762.5 1091.5C757.302 1092.14 752.135 1092.81 747 1093.5C745.599 1091.81 743.766 1091.14 741.5 1091.5C740.742 1094.49 739.909 1097.49 739 1100.5C734.157 1109.19 726.99 1115.19 717.5 1118.5C718.415 1119.33 719.081 1120.33 719.5 1121.5C718.57 1123.1 718.57 1124.6 719.5 1126C718.833 1126.67 718.167 1127.33 717.5 1128C718.255 1130.17 719.088 1132.34 720 1134.5C720.464 1133.91 720.631 1133.24 720.5 1132.5C721.879 1135.39 723.879 1137.89 726.5 1140C740.942 1146.51 755.942 1148.17 771.5 1145C798.691 1140.48 814.524 1124.64 819 1097.5C819.417 1096.24 820.25 1095.58 821.5 1095.5C867.109 1105.09 912.776 1114.42 958.5 1123.5C957.245 1125.28 957.245 1127.11 958.5 1129C958.22 1130.4 957.553 1131.56 956.5 1132.5C951.264 1134.41 945.931 1136.25 940.5 1138C742.527 1191.32 544.527 1244.66 346.5 1298C340.431 1298.8 334.431 1298.47 328.5 1297C243.009 1256.42 158.009 1215.09 73.5 1173C69.9708 1170.94 66.6374 1168.77 63.5 1166.5C63.8807 1165.07 64.8807 1164.24 66.5 1164C119.128 1153.84 171.795 1144.01 224.5 1134.5C225.609 1135.29 226.942 1135.79 228.5 1136C226.347 1138.88 223.681 1141.22 220.5 1143C224.449 1143.81 224.449 1144.31 220.5 1144.5C219.5 1144.5 218.5 1144.5 217.5 1144.5C217.285 1146.18 217.952 1147.18 219.5 1147.5C218.469 1148.25 217.302 1148.92 216 1149.5C215.667 1149.17 215.333 1148.83 215 1148.5C212.323 1151.51 209.323 1154.18 206 1156.5C205.667 1155.83 205.333 1155.17 205 1154.5C204.261 1155.57 203.261 1156.24 202 1156.5C198.981 1155.55 198.814 1156.22 201.5 1158.5C189.644 1166.67 178.31 1175.67 167.5 1185.5C166.391 1184.41 165.391 1184.41 164.5 1185.5C167.32 1186.38 169.986 1187.55 172.5 1189C171.906 1189.46 171.239 1189.63 170.5 1189.5C165.674 1187.04 162.507 1188.71 161 1194.5C158.319 1199.76 159.153 1204.26 163.5 1208C174.817 1211.33 186.15 1214.66 197.5 1218C211.816 1219.27 226.149 1219.6 240.5 1219C258.41 1214.11 276.076 1208.44 293.5 1202C309.378 1200.91 325.044 1198.58 340.5 1195C355.568 1189.31 359.568 1179.14 352.5 1164.5C351.482 1165.19 350.482 1165.86 349.5 1166.5C349.477 1164.4 350.144 1162.57 351.5 1161C349.053 1154.46 347.553 1147.62 347 1140.5C343.705 1133.91 342.872 1127.07 344.5 1120C343.484 1119.48 342.818 1118.65 342.5 1117.5C343.156 1115.55 343.489 1113.55 343.5 1111.5C345.854 1111.16 348.187 1110.66 350.5 1110C349.906 1109.54 349.239 1109.37 348.5 1109.5C396.297 1099.42 444.297 1089.75 492.5 1080.5C494.664 1093.1 497.164 1105.77 500 1118.5C505.855 1140.07 518.688 1155.9 538.5 1166C566.619 1175.22 592.952 1171.55 617.5 1155C628.833 1145.67 640.167 1136.33 651.5 1127C671.865 1108.49 692.199 1089.99 712.5 1071.5Z" fill="#CD2520"/>
<path fill-rule="evenodd" clip-rule="evenodd" d="M170.5 1189.5C177.408 1192.95 184.408 1196.45 191.5 1200C211.161 1207.45 231.161 1208.45 251.5 1203C266.387 1196.72 281.387 1190.72 296.5 1185C311.082 1182.77 325.416 1179.44 339.5 1175C344.252 1173.74 347.586 1170.91 349.5 1166.5C350.482 1165.86 351.482 1165.19 352.5 1164.5C359.568 1179.14 355.568 1189.31 340.5 1195C325.044 1198.58 309.378 1200.91 293.5 1202C276.076 1208.44 258.41 1214.11 240.5 1219C226.149 1219.6 211.816 1219.27 197.5 1218C186.15 1214.66 174.817 1211.33 163.5 1208C159.153 1204.26 158.319 1199.76 161 1194.5C162.507 1188.71 165.674 1187.04 170.5 1189.5Z" fill="#EFEBE9"/>
<path fill-rule="evenodd" clip-rule="evenodd" d="M220.5 1144.5C229.973 1146.57 237.973 1151.24 244.5 1158.5C244.167 1158.83 243.833 1159.17 243.5 1159.5C236.304 1153.9 228.304 1149.9 219.5 1147.5C217.952 1147.18 217.285 1146.18 217.5 1144.5C218.5 1144.5 219.5 1144.5 220.5 1144.5Z" fill="#781111"/>
<path fill-rule="evenodd" clip-rule="evenodd" d="M958.5 1243.5C964.115 1245.95 965.615 1249.95 963 1255.5C958.21 1258.43 953.043 1260.6 947.5 1262C747.795 1315.51 548.128 1369.18 348.5 1423C342.903 1424.46 337.237 1424.79 331.5 1424C244.801 1383.15 158.467 1341.48 72.5 1299C67.421 1296.92 64.0877 1293.25 62.5 1288C62.5699 1287.24 62.9033 1286.74 63.5 1286.5C66.6374 1288.77 69.9708 1290.94 73.5 1293C158.009 1335.09 243.009 1376.42 328.5 1417C334.431 1418.47 340.431 1418.8 346.5 1418C544.527 1364.66 742.527 1311.32 940.5 1258C945.931 1256.25 951.264 1254.41 956.5 1252.5C957.553 1251.56 958.22 1250.4 958.5 1249C957.245 1247.11 957.245 1245.28 958.5 1243.5Z" fill="#841312"/>
</svg>
