<svg width="1083" height="1083" viewBox="0 0 1083 1083" fill="none" xmlns="http://www.w3.org/2000/svg">
<path fill-rule="evenodd" clip-rule="evenodd" d="M778.817 115.533C778.431 116.196 777.824 116.656 776.978 116.912C795.957 121.494 810.513 132.068 820.655 148.635C838.329 179.197 844.462 211.992 839.046 247.024C835.717 268.055 827.754 287.058 815.138 304.034C806.348 314.633 795.461 322.141 782.495 326.562C783.681 327.013 784.914 327.166 786.173 327.022C761.126 332.413 740.124 325.363 723.186 305.873C706.991 285.111 697.949 261.51 696.061 235.07C712.913 234.501 729.77 234.195 746.634 234.151C750.864 244.35 758.533 249.101 769.622 248.403C781.125 243.822 786.946 235.239 787.093 222.657C786.468 207.482 778.799 198.44 764.105 195.531C754.524 197.25 748.39 202.768 745.715 212.082C728.86 212.978 711.998 213.897 695.141 214.841C696.153 186.175 705.195 160.428 722.267 137.601C737.126 120.232 755.976 112.876 778.817 115.533Z" fill="#AB1A0E"/>
<path fill-rule="evenodd" clip-rule="evenodd" d="M261.128 234.151C261.128 241.507 261.128 248.863 261.128 256.219C260.574 279.274 255.671 301.343 246.416 322.424C241.756 330.81 236.393 338.778 230.324 346.332C221.712 355.773 211.137 361.75 198.601 364.263C186.656 365.24 174.702 366.007 162.739 366.561C176.754 362.545 188.554 354.883 198.141 343.573C212.963 323.338 221.852 300.658 224.807 275.529C227.855 247.527 224.79 220.247 215.612 193.692C208.351 175.095 197.163 159.311 182.049 146.337C170.535 138.113 157.662 134.589 143.429 135.762C159.798 133.925 176.349 133.159 193.083 133.463C202.152 135.392 210.427 139.07 217.91 144.497C237.106 162.191 249.827 183.8 256.071 209.324C257.957 217.688 259.643 225.963 261.128 234.151Z" fill="#A91A0E"/>
<path fill-rule="evenodd" clip-rule="evenodd" d="M91.9365 269.091C104.019 267.762 116.28 267.148 128.717 267.252C130.076 267.011 131.302 267.318 132.395 268.172C138.43 278.546 146.706 280.845 157.222 275.068C167.356 263.219 169.042 250.193 162.28 235.989C156.667 225.742 148.545 222.83 137.912 227.253C134.166 230.311 131.715 234.141 130.556 238.747C119.529 239.448 108.495 240.06 97.4536 240.586C97.7129 213.267 107.521 190.126 126.878 171.163C136.532 165.033 146.954 163.501 158.142 166.565C172.65 173.717 183.531 184.598 190.785 199.208C208.011 237.072 207.092 274.465 188.026 311.389C180.143 325.595 168.189 333.871 152.165 336.216C136.233 334.383 123.972 326.72 115.384 313.228C106.504 299.745 101.139 285.187 99.2927 269.551C96.8596 269.094 94.4073 268.941 91.9365 269.091Z" fill="#AB1A0E"/>
<path fill-rule="evenodd" clip-rule="evenodd" d="M866.172 204.726C866.889 213.289 867.192 221.872 867.091 230.473C864.553 257.855 855.202 282.682 839.046 304.954C825.179 321.175 807.561 328.531 786.173 327.022C784.914 327.167 783.681 327.013 782.495 326.563C795.46 322.142 806.348 314.633 815.138 304.034C827.754 287.058 835.717 268.056 839.046 247.024C844.462 211.992 838.328 179.197 820.655 148.636C810.513 132.069 795.957 121.494 776.978 116.912C777.824 116.656 778.431 116.197 778.817 115.533C797.143 111.532 813.695 115.363 828.471 127.027C842.457 139.507 852.416 154.679 858.356 172.543C862.006 183.153 864.608 193.88 866.172 204.726Z" fill="#CD2418"/>
<path fill-rule="evenodd" clip-rule="evenodd" d="M143.43 135.763C157.662 134.589 170.535 138.114 182.049 146.337C197.163 159.312 208.351 175.096 215.612 193.692C224.79 220.248 227.855 247.528 224.807 275.53C221.852 300.658 212.964 323.339 198.141 343.574C188.554 354.883 176.754 362.546 162.739 366.562C146.645 367.87 132.546 363.118 120.442 352.31C107.817 340.07 98.3142 325.817 91.9365 309.552C87.132 296.463 84.0672 282.977 82.7413 269.093C85.806 269.093 88.8717 269.093 91.9365 269.093C94.4072 268.942 96.8596 269.096 99.2926 269.553C101.139 285.188 106.503 299.747 115.384 313.23C123.972 326.721 136.232 334.384 152.165 336.218C168.189 333.872 180.143 325.597 188.026 311.391C207.092 274.467 208.011 237.074 190.785 199.21C183.531 184.599 172.65 173.719 158.142 166.567C146.954 163.503 136.532 165.035 126.878 171.164C107.521 190.127 97.7129 213.268 97.4536 240.588C91.9033 240.459 86.3862 240.765 80.9022 241.507C81.0668 209.856 90.4156 181.351 108.948 155.992C118.173 145.328 129.667 138.585 143.43 135.763Z" fill="#CD2418"/>
<path fill-rule="evenodd" clip-rule="evenodd" d="M647.326 203.806C651.616 211.933 652.996 220.516 651.464 229.553C653.978 220.517 652.905 211.936 648.246 203.806C652.19 203.528 655.868 204.141 659.28 205.645C659.933 208.886 660.852 211.951 662.038 214.84C662.379 220.748 661.919 226.571 660.659 232.311C657.34 234.398 653.815 234.706 650.085 233.231C649.129 231.363 647.597 230.137 645.487 229.553C646.517 225.423 646.517 221.133 645.487 216.679C642.925 215.463 640.779 213.624 639.05 211.162C638.971 212.078 639.278 212.844 639.97 213.461C635.372 213.767 630.775 214.074 626.177 214.381C625.666 214.733 625.36 215.192 625.258 215.76C622.805 216.373 621.273 217.905 620.66 220.357C619.911 221.212 619.145 222.131 618.361 223.116C617.444 221.44 616.371 219.907 615.143 218.518C616.912 214.906 618.597 211.228 620.2 207.484C621.619 205.757 623.304 204.378 625.258 203.346C632.616 203.194 639.973 203.346 647.326 203.806Z" fill="#F09368"/>
<path fill-rule="evenodd" clip-rule="evenodd" d="M639.05 211.164C637.51 209.62 636.744 207.781 636.752 205.646C638.281 207.171 639.047 209.01 639.05 211.164Z" fill="#472820"/>
<path fill-rule="evenodd" clip-rule="evenodd" d="M659.28 205.646C659.586 205.646 659.893 205.646 660.199 205.646C661.388 208.57 662.002 211.634 662.038 214.842C660.852 211.953 659.933 208.888 659.28 205.646Z" fill="#231814"/>
<path fill-rule="evenodd" clip-rule="evenodd" d="M746.634 234.151C751.986 233.39 757.503 232.93 763.185 232.772C770.965 227.056 771.571 220.619 765.025 213.462C758.671 212.189 752.234 211.729 745.715 212.083C748.39 202.768 754.524 197.251 764.105 195.531C778.799 198.441 786.468 207.482 787.093 222.657C786.946 235.24 781.125 243.823 769.622 248.404C758.533 249.102 750.864 244.35 746.634 234.151Z" fill="#23211C"/>
<path fill-rule="evenodd" clip-rule="evenodd" d="M639.05 211.162C640.779 213.624 642.925 215.463 645.487 216.679C638.797 214.844 632.054 214.538 625.258 215.76C625.36 215.192 625.666 214.733 626.177 214.38C630.775 214.074 635.372 213.767 639.97 213.461C639.278 212.844 638.971 212.078 639.05 211.162Z" fill="#150D09"/>
<path fill-rule="evenodd" clip-rule="evenodd" d="M647.326 203.807C647.632 203.807 647.939 203.807 648.245 203.807C652.905 211.936 653.978 220.518 651.464 229.553C652.996 220.516 651.616 211.933 647.326 203.807Z" fill="#180F0B"/>
<path fill-rule="evenodd" clip-rule="evenodd" d="M867.091 230.473C867.192 221.872 866.889 213.289 866.172 204.726C878.42 203.858 890.686 203.705 902.952 204.267C910.649 209.601 912.341 216.497 908.01 224.956C906.419 226.902 904.424 228.282 902.033 229.094C890.392 229.743 878.741 230.202 867.091 230.473Z" fill="#636765"/>
<path fill-rule="evenodd" clip-rule="evenodd" d="M660.199 205.645C662.642 205.334 664.788 205.947 666.636 207.484C668.725 210.144 670.564 212.903 672.153 215.76C672.696 220.416 671.777 224.707 669.394 228.633C667.356 229.432 665.211 229.738 662.958 229.552C663.253 224.471 662.947 219.566 662.038 214.84C662.001 211.633 661.388 208.568 660.199 205.645Z" fill="#F19065"/>
<path fill-rule="evenodd" clip-rule="evenodd" d="M645.487 216.68C646.517 221.133 646.517 225.423 645.487 229.553C642.276 228.716 639.517 227.184 637.211 224.955C639.363 225.494 641.356 226.414 643.188 227.714C643.801 227.101 644.414 226.488 645.027 225.875C645.485 222.825 645.639 219.76 645.487 216.68Z" fill="#180D08"/>
<path fill-rule="evenodd" clip-rule="evenodd" d="M625.258 215.76C624.032 217.599 622.499 219.132 620.66 220.357C621.273 217.905 622.805 216.373 625.258 215.76Z" fill="#351C15"/>
<path fill-rule="evenodd" clip-rule="evenodd" d="M745.715 212.082C752.234 211.729 758.671 212.188 765.024 213.461C771.571 220.619 770.965 227.055 763.185 232.771C757.503 232.929 751.986 233.389 746.634 234.15C729.77 234.194 712.913 234.501 696.061 235.07C686.503 235.325 677.002 235.325 667.555 235.07C666.67 235.502 666.67 236.115 667.555 236.909C666.643 237.067 666.031 236.76 665.716 235.989C665.664 234.97 665.358 234.05 664.797 233.231C665.716 233.231 666.636 233.231 667.555 233.231C667.555 232.311 667.555 231.392 667.555 230.472C668.781 230.472 669.394 229.859 669.394 228.633C671.777 224.708 672.696 220.416 672.153 215.76C679.814 215.407 687.476 215.1 695.141 214.84C711.998 213.897 728.86 212.977 745.715 212.082Z" fill="#656A68"/>
<path fill-rule="evenodd" clip-rule="evenodd" d="M330.092 216.68C330.705 216.68 331.318 216.68 331.931 216.68C332.091 218.851 332.397 220.996 332.85 223.116C331.411 221.269 330.492 219.123 330.092 216.68Z" fill="#301F19"/>
<path fill-rule="evenodd" clip-rule="evenodd" d="M615.143 218.52C616.371 219.908 617.444 221.441 618.361 223.117C619.145 222.132 619.911 221.213 620.66 220.359C619.426 226.106 618.66 231.93 618.361 237.829C618.009 238.341 617.549 238.647 616.982 238.749C532.089 242.657 447.186 246.335 362.275 249.783C361.783 243.066 360.864 236.323 359.516 229.554C444.712 225.598 529.921 221.92 615.143 218.52Z" fill="#636765"/>
<path fill-rule="evenodd" clip-rule="evenodd" d="M645.487 229.553C647.597 230.138 649.129 231.363 650.085 233.231C648.012 232.657 646.479 231.431 645.487 229.553Z" fill="#180D0C"/>
<path fill-rule="evenodd" clip-rule="evenodd" d="M667.555 230.473C667.555 231.392 667.555 232.312 667.555 233.231C666.636 233.231 665.716 233.231 664.797 233.231C663.716 233.433 662.797 233.126 662.038 232.312C663.873 231.581 665.712 230.968 667.555 230.473Z" fill="#F7AB77"/>
<path fill-rule="evenodd" clip-rule="evenodd" d="M330.092 216.68C330.492 219.123 331.411 221.269 332.85 223.116C334.719 230.284 335.486 237.64 335.149 245.185C332.386 246.566 329.475 247.485 326.414 247.943C326.583 238.52 324.59 229.631 320.437 221.277C323.224 229.854 324.909 238.743 325.494 247.943C323.932 248.054 322.4 248.361 320.897 248.863C319.491 248.836 318.418 248.223 317.678 247.024C314.781 240.033 312.022 232.983 309.403 225.875C311.262 233.608 313.561 241.27 316.299 248.863C313.476 248.984 310.718 248.678 308.023 247.943C305.124 243.72 302.825 239.122 301.127 234.151C298.528 232.459 295.616 231.846 292.392 232.312C294.209 225.758 298.501 223.152 305.265 224.496C307.595 227.651 308.208 227.498 307.104 224.036C308.937 222.198 311.083 220.818 313.541 219.898C319.092 218.914 324.609 217.841 330.092 216.68Z" fill="#F19268"/>
<path fill-rule="evenodd" clip-rule="evenodd" d="M662.038 214.842C662.947 219.568 663.253 224.473 662.958 229.554C665.211 229.74 667.356 229.434 669.394 228.635C669.394 229.86 668.781 230.474 667.555 230.474C665.712 230.969 663.873 231.582 662.038 232.313C662.797 233.127 663.716 233.434 664.797 233.232C665.358 234.051 665.664 234.971 665.716 235.991C661.988 235.693 658.31 235.999 654.682 236.91C656.027 238.96 656.794 241.106 656.981 243.347C654.664 239.923 652.365 236.551 650.084 233.232C653.815 234.707 657.339 234.4 660.659 232.313C661.919 226.573 662.378 220.75 662.038 214.842Z" fill="#130C09"/>
<path fill-rule="evenodd" clip-rule="evenodd" d="M292.392 232.311C295.616 231.846 298.528 232.458 301.127 234.15C302.825 239.122 305.124 243.719 308.023 247.943C308.023 248.556 308.023 249.168 308.023 249.782C304.897 251.195 301.832 252.88 298.828 254.839C296.704 255.296 294.559 255.449 292.392 255.299C281.961 255.327 271.539 255.633 261.128 256.218C261.128 248.862 261.128 241.506 261.128 234.15C271.534 233.464 281.955 232.851 292.392 232.311Z" fill="#636765"/>
<path fill-rule="evenodd" clip-rule="evenodd" d="M128.717 267.253C133.761 266.493 138.972 266.033 144.349 265.874C149.627 263.304 152.386 259.013 152.625 253.001C152.296 246.504 149.23 241.906 143.43 239.208C139.149 238.749 134.859 238.596 130.556 238.748C131.715 234.142 134.166 230.312 137.912 227.254C148.545 222.831 156.667 225.743 162.28 235.99C169.042 250.194 167.356 263.22 157.222 275.069C146.706 280.846 138.43 278.547 132.395 268.173C131.302 267.319 130.076 267.012 128.717 267.253Z" fill="#23211C"/>
<path fill-rule="evenodd" clip-rule="evenodd" d="M332.85 223.116C333.59 224.669 334.509 226.201 335.609 227.714C337.293 226.4 339.132 225.94 341.126 226.335C337.957 226.973 336.118 228.812 335.609 231.852C335.93 235.011 336.543 238.076 337.448 241.047C344.972 242.269 349.263 239.051 350.321 231.392C350.628 231.698 350.935 232.005 351.241 232.312C350.675 234.646 350.062 236.945 349.402 239.208C341.05 243.151 333.234 247.901 325.954 253.461C325.341 254.993 325.341 256.525 325.954 258.058C327.449 260.41 328.369 262.863 328.713 265.414C327.487 263.575 326.26 261.736 325.035 259.897C324.993 257.291 324.226 254.992 322.736 253.001C318.085 250.765 313.181 249.692 308.023 249.782C308.023 249.169 308.023 248.557 308.023 247.943C310.718 248.678 313.476 248.984 316.299 248.863C313.561 241.27 311.262 233.608 309.403 225.875C312.022 232.983 314.781 240.033 317.678 247.024C318.418 248.223 319.491 248.836 320.897 248.863C322.4 248.361 323.932 248.054 325.494 247.943C324.909 238.743 323.224 229.854 320.437 221.277C324.59 229.631 326.583 238.52 326.414 247.943C329.475 247.485 332.386 246.566 335.149 245.185C335.486 237.64 334.719 230.284 332.85 223.116Z" fill="#1A120D"/>
<path fill-rule="evenodd" clip-rule="evenodd" d="M130.556 238.748C134.859 238.596 139.149 238.749 143.43 239.208C149.23 241.906 152.296 246.504 152.625 253.001C152.386 259.013 149.627 263.304 144.349 265.874C138.972 266.033 133.761 266.493 128.717 267.254C116.28 267.15 104.019 267.763 91.9364 269.093C88.8717 269.093 85.806 269.093 82.7413 269.093C59.1537 270.489 35.5524 271.255 11.9383 271.391C4.0157 266.215 2.0231 259.319 5.9614 250.702C8.04319 248.005 10.6491 246.013 13.7773 244.725C36.1419 243.377 58.5165 242.304 80.9022 241.507C86.3862 240.765 91.9033 240.459 97.4536 240.588C108.495 240.062 119.529 239.449 130.556 238.748Z" fill="#656966"/>
<path fill-rule="evenodd" clip-rule="evenodd" d="M359.516 229.553C360.864 236.323 361.783 243.066 362.275 249.783C362.424 251.647 362.27 253.486 361.815 255.3C357.186 263.139 351.056 269.575 343.425 274.61C341.704 276.392 340.938 278.537 341.126 281.046C344.642 307.686 352.152 333.125 363.654 357.366C369.81 374.593 372.721 392.37 372.39 410.699C373.948 411.318 375.481 411.932 376.987 412.538C390.217 422.239 402.171 433.426 412.849 446.1C415.16 447.251 417.612 447.711 420.205 447.479C418.118 448.694 415.972 449.154 413.768 448.859C414.268 449.518 414.882 449.978 415.607 450.238C417.001 453.027 418.84 455.479 421.124 457.594C421.354 459.593 422.274 461.126 423.883 462.192C427.79 470.319 432.387 477.982 437.676 485.18C435.29 479.951 432.532 474.894 429.4 470.008C429.946 469.581 430.559 469.427 431.239 469.548C431.408 472.006 432.481 472.619 434.457 471.387C435.375 473.91 435.988 476.362 436.296 478.743C437.151 476.864 437.611 475.179 437.676 473.686C439.801 473.828 441.946 473.828 444.112 473.686C441.888 473.419 440.661 472.652 440.434 471.387C460.307 477.627 471.801 491.113 474.916 511.846C477.366 526.558 473.534 539.279 463.422 550.006C460.188 552.145 456.817 553.831 453.307 555.063C429.954 555.261 410.184 546.985 393.998 530.236C391.893 527.404 389.9 524.492 388.022 521.501C371.946 511.094 358.46 498.068 347.563 482.421C341.672 469.713 336.002 456.84 330.552 443.801C325.535 437.55 321.243 430.808 317.678 423.572C313.489 409.168 311.037 394.455 310.322 379.435C308.948 346.891 306.801 314.401 303.886 281.966C303.522 278.73 302.603 275.665 301.127 272.771C296.254 267.928 293.341 262.103 292.392 255.3C294.559 255.45 296.704 255.297 298.828 254.84C301.832 252.882 304.897 251.196 308.023 249.783C313.181 249.693 318.085 250.766 322.736 253.001C324.226 254.993 324.993 257.292 325.035 259.897C326.26 261.736 327.487 263.576 328.713 265.415C328.369 262.863 327.449 260.411 325.954 258.058C325.341 256.526 325.341 254.994 325.954 253.461C333.234 247.901 341.05 243.151 349.402 239.208C350.062 236.945 350.675 234.647 351.241 232.312C350.935 232.006 350.628 231.699 350.321 231.392C349.263 239.051 344.972 242.269 337.448 241.047C336.543 238.076 335.93 235.012 335.609 231.852C336.117 228.812 337.957 226.973 341.126 226.335C339.132 225.941 337.293 226.4 335.609 227.714C334.509 226.202 333.59 224.67 332.85 223.117C332.397 220.996 332.091 218.851 331.931 216.68C336.228 215.285 340.366 215.898 344.344 218.519C345.778 220.098 346.544 221.937 346.643 224.036C348.875 224.057 351.02 224.517 353.08 225.415C355.134 227.025 357.28 228.404 359.516 229.553Z" fill="#F39167"/>
<path fill-rule="evenodd" clip-rule="evenodd" d="M645.487 216.68C645.639 219.76 645.485 222.825 645.027 225.875C644.414 226.488 643.802 227.101 643.188 227.714C641.356 226.414 639.363 225.494 637.211 224.955C639.517 227.184 642.276 228.716 645.487 229.553C646.479 231.432 648.012 232.657 650.085 233.231C652.365 236.55 654.664 239.921 656.981 243.346C656.794 241.105 656.027 238.959 654.682 236.909C658.31 235.998 661.988 235.692 665.716 235.99C666.031 236.76 666.643 237.067 667.555 236.909C675.313 237.046 678.226 241.03 676.291 248.863C674.86 252.594 673.787 256.426 673.073 260.357C682.772 299.788 686.909 339.787 685.486 380.354C684.873 383.419 684.26 386.485 683.647 389.549C675.943 404.685 668.587 420.009 661.579 435.525C658.952 439.569 656.346 443.554 653.763 447.479C642.046 441.622 630.092 436.258 617.901 431.387C608.793 425.143 598.984 420.698 588.477 418.054C589.393 418.133 590.159 417.826 590.776 417.135C602.096 401.524 615.276 387.731 630.315 375.757C630.539 366.532 631.152 357.337 632.154 348.171C636.096 333.015 639.162 317.69 641.349 302.195C641.962 290.547 641.962 278.901 641.349 267.253C641.19 263.374 640.271 259.696 638.591 256.219C633.455 252.654 628.092 249.436 622.499 246.564C619.682 244.535 617.843 241.929 616.982 238.748C617.549 238.646 618.009 238.34 618.361 237.829C618.66 231.929 619.426 226.106 620.66 220.358C622.499 219.132 624.032 217.599 625.258 215.76C632.054 214.538 638.797 214.844 645.487 216.68Z" fill="#F29166"/>
<path fill-rule="evenodd" clip-rule="evenodd" d="M637.211 224.956C636.056 224.992 635.137 224.532 634.453 223.577C635.83 223.039 636.75 223.499 637.211 224.956Z" fill="#48281E"/>
<path fill-rule="evenodd" clip-rule="evenodd" d="M638.131 218.52C639.761 219.268 640.221 220.495 639.51 222.198C638.783 221.053 638.323 219.827 638.131 218.52Z" fill="#402720"/>
<path fill-rule="evenodd" clip-rule="evenodd" d="M649.165 376.675C643.966 376.165 638.756 375.705 633.533 375.296C637.825 374.683 642.115 374.683 646.406 375.296C647.544 375.509 648.463 375.969 649.165 376.675Z" fill="#1F120E"/>
<path fill-rule="evenodd" clip-rule="evenodd" d="M649.165 376.675C650.828 376.667 652.36 377.126 653.763 378.054C651.891 378.605 650.359 378.145 649.165 376.675Z" fill="#38261E"/>
<path fill-rule="evenodd" clip-rule="evenodd" d="M446.871 384.951C451.676 383.999 455.354 385.532 457.905 389.549C452.534 391.892 448.856 390.359 446.871 384.951Z" fill="#110C0A"/>
<path fill-rule="evenodd" clip-rule="evenodd" d="M423.883 381.272C408.186 387.496 399.298 399.143 397.217 416.214C400.812 415.996 404.184 416.762 407.331 418.513C413.445 424.317 418.503 430.907 422.504 438.282C423.551 441.888 422.784 444.953 420.205 447.478C417.612 447.709 415.16 447.25 412.849 446.098C402.171 433.425 390.217 422.238 376.987 412.536C381.026 394.494 389.915 379.322 403.653 367.02C417.298 361.802 424.041 366.554 423.883 381.272Z" fill="#12120D"/>
<path fill-rule="evenodd" clip-rule="evenodd" d="M423.883 381.273C431.901 380.636 439.564 381.861 446.871 384.951C448.856 390.359 452.534 391.891 457.905 389.549C461.133 389.394 464.351 389.088 467.56 388.629C470.724 388.457 473.483 389.377 475.836 391.388C476.031 393.992 476.184 396.443 476.295 398.744C485.734 403.082 494.163 408.905 501.582 416.215C507.611 424.373 506.845 431.73 499.283 438.283C477.878 446.523 458.262 457.557 440.434 471.386C440.661 472.651 441.888 473.418 444.112 473.685C441.946 473.827 439.801 473.827 437.676 473.685C437.611 475.178 437.152 476.863 436.296 478.742C435.988 476.361 435.375 473.909 434.457 471.386C432.481 472.618 431.408 472.005 431.239 469.547C431.545 468.933 431.852 468.321 432.159 467.708C430.92 468.193 429.693 468.347 428.48 468.167C427.074 466.005 425.541 464.012 423.883 462.191C423.653 460.191 422.733 458.659 421.124 457.593C420.178 454.475 418.339 452.023 415.607 450.237C414.882 449.977 414.268 449.517 413.768 448.858C415.972 449.153 418.118 448.693 420.205 447.478C422.784 444.953 423.551 441.888 422.504 438.283C418.503 430.908 413.445 424.317 407.332 418.513C404.184 416.763 400.812 415.997 397.217 416.215C399.298 399.144 408.186 387.496 423.883 381.273Z" fill="#EE8459"/>
<path fill-rule="evenodd" clip-rule="evenodd" d="M479.054 413.456C477.936 415.25 476.404 416.629 474.456 417.594C473.299 418.497 472.073 418.803 470.778 418.513C473.281 416.345 476.04 414.66 479.054 413.456Z" fill="#271711"/>
<path fill-rule="evenodd" clip-rule="evenodd" d="M479.054 413.456C480.03 411.38 481.562 410.308 483.652 410.237C482.466 411.894 480.933 412.967 479.054 413.456Z" fill="#140F08"/>
<path fill-rule="evenodd" clip-rule="evenodd" d="M435.837 400.582C440.668 400.466 441.894 402.305 439.515 406.099C433.838 407.509 432.612 405.67 435.837 400.582Z" fill="#100D09"/>
<path fill-rule="evenodd" clip-rule="evenodd" d="M470.778 404.261C470.814 405.416 470.354 406.335 469.399 407.019C468.861 405.642 469.321 404.722 470.778 404.261Z" fill="#190F09"/>
<path fill-rule="evenodd" clip-rule="evenodd" d="M433.078 391.387C436.409 390.858 439.167 391.777 441.354 394.146C432.996 396.627 426.56 401.532 422.044 408.858C420.98 405.839 420.826 402.773 421.584 399.663C425.234 396.547 429.065 393.788 433.078 391.387Z" fill="#100E0B"/>
<path fill-rule="evenodd" clip-rule="evenodd" d="M472.617 401.502C472.685 402.906 472.071 403.826 470.778 404.261C470.711 402.856 471.325 401.937 472.617 401.502Z" fill="#100B09"/>
<path fill-rule="evenodd" clip-rule="evenodd" d="M472.617 401.503C472.582 400.348 473.041 399.428 473.997 398.744C474.535 400.122 474.075 401.041 472.617 401.503Z" fill="#190F0E"/>
<path fill-rule="evenodd" clip-rule="evenodd" d="M588.477 418.054C598.984 420.698 608.793 425.143 617.901 431.387C630.092 436.258 642.046 441.621 653.763 447.479C673.566 460.903 695.021 471.171 718.129 478.283C719.288 478.666 719.894 479.432 719.968 480.581C687.916 482.834 659.411 494.022 634.453 514.144C621.655 525.79 613.227 540.042 609.166 556.901C608.052 566.817 610.045 576.012 615.143 584.487C616.041 587.695 617.88 590.301 620.66 592.303C618.435 592.935 616.442 592.475 614.683 590.924C613.407 591.893 612.028 592.045 610.545 591.383C610.459 590.076 610.152 588.697 609.626 587.246C608.775 588.295 608.008 588.295 607.327 587.246C607.044 587.989 606.584 588.602 605.948 589.085C604.706 587.751 603.174 587.138 601.35 587.246C601.506 586.03 601.2 584.957 600.431 584.027C596.989 582.983 593.617 581.756 590.316 580.349C589.74 579.66 589.28 578.893 588.937 578.05C587.651 578.557 586.424 578.863 585.258 578.97C582.259 577.878 579.5 576.346 576.983 574.372C576.142 575.433 575.376 575.28 574.684 573.913C567.96 573.525 561.676 571.839 555.834 568.855C546.457 569.14 537.108 569.446 527.789 569.775C523.52 569.79 519.382 569.177 515.375 567.936C513.536 568.549 511.697 569.161 509.858 569.775C508.766 567.128 506.775 566.515 503.881 567.936C486.495 565.504 469.636 561.214 453.307 555.062C456.817 553.83 460.188 552.144 463.422 550.005C473.534 539.278 477.366 526.557 474.916 511.845C471.801 491.113 460.307 477.626 440.434 471.386C458.262 457.558 477.878 446.523 499.283 438.283C514.094 435.645 528.193 430.894 541.581 424.031C556.773 418.405 572.405 416.413 588.477 418.054Z" fill="#C51F13"/>
<path fill-rule="evenodd" clip-rule="evenodd" d="M415.607 450.236C418.339 452.023 420.178 454.474 421.124 457.592C418.84 455.478 417.001 453.025 415.607 450.236Z" fill="#382019"/>
<path fill-rule="evenodd" clip-rule="evenodd" d="M421.124 457.593C422.733 458.658 423.653 460.191 423.883 462.19C422.274 461.125 421.354 459.592 421.124 457.593Z" fill="#1E120F"/>
<path fill-rule="evenodd" clip-rule="evenodd" d="M432.158 467.708C434.626 465.528 435.853 462.769 435.837 459.432C440.782 459.376 445.686 459.223 450.549 458.973C446.069 460.249 441.471 460.709 436.756 460.352C437.054 464.064 435.522 466.515 432.158 467.708Z" fill="#291A15"/>
<path fill-rule="evenodd" clip-rule="evenodd" d="M423.883 462.19C425.541 464.012 427.074 466.005 428.48 468.167C429.693 468.347 430.92 468.193 432.158 467.708C431.852 468.321 431.545 468.933 431.239 469.547C430.559 469.426 429.946 469.58 429.4 470.006C432.532 474.893 435.29 479.95 437.676 485.178C432.387 477.98 427.79 470.318 423.883 462.19Z" fill="#1D120E"/>
<path fill-rule="evenodd" clip-rule="evenodd" d="M437.676 485.179C439.437 486.25 440.203 487.783 439.974 489.776C438.713 488.48 437.947 486.947 437.676 485.179Z" fill="#20120D"/>
<path fill-rule="evenodd" clip-rule="evenodd" d="M634.453 492.535C640.837 487.809 647.887 484.591 655.602 482.88C648.532 486.109 641.482 489.328 634.453 492.535Z" fill="#1F120A"/>
<path fill-rule="evenodd" clip-rule="evenodd" d="M634.453 492.535C632.177 495.056 629.418 496.895 626.177 498.052C628.431 495.499 631.189 493.66 634.453 492.535Z" fill="#180D06"/>
<path fill-rule="evenodd" clip-rule="evenodd" d="M420.205 496.213C427.967 500.107 436.243 502.1 445.032 502.19C436.643 503.24 428.673 501.861 421.124 498.052C420.39 497.632 420.084 497.018 420.205 496.213Z" fill="#291914"/>
<path fill-rule="evenodd" clip-rule="evenodd" d="M626.177 498.052C625.179 499.971 623.647 501.197 621.579 501.73C622.577 499.811 624.109 498.585 626.177 498.052Z" fill="#1D0E06"/>
<path fill-rule="evenodd" clip-rule="evenodd" d="M621.579 501.729C617.935 505.834 614.104 509.819 610.085 513.683C609.472 513.07 609.472 512.458 610.085 511.844C613.544 507.918 617.375 504.546 621.579 501.729Z" fill="#150D09"/>
<path fill-rule="evenodd" clip-rule="evenodd" d="M303.426 556.901C303.871 560.179 304.178 563.549 304.345 567.016C303.006 568.469 302.086 570.768 301.587 573.912C302.896 577.354 302.436 580.573 300.208 583.567C299.007 591.873 297.627 600.148 296.07 608.394C296.278 609.948 296.584 611.479 296.989 612.992C295.834 613.451 295.067 614.677 294.69 616.67C293.309 626.271 291.624 635.16 289.633 643.336C293.633 614.432 298.231 585.621 303.426 556.901Z" fill="#651A16"/>
<path fill-rule="evenodd" clip-rule="evenodd" d="M347.563 482.42C358.46 498.066 371.946 511.093 388.022 521.499C389.9 524.491 391.893 527.403 393.999 530.235C410.184 546.984 429.954 555.26 453.308 555.062C469.636 561.214 486.495 565.504 503.881 567.935C506.775 566.515 508.766 567.128 509.858 569.774C511.697 569.161 513.536 568.549 515.375 567.935C519.382 569.177 523.52 569.79 527.789 569.774C537.108 569.446 546.457 569.14 555.834 568.855C561.677 571.839 567.961 573.524 574.684 573.912C575.376 575.279 576.142 575.433 576.983 574.372C579.5 576.345 582.259 577.878 585.259 578.969C586.424 578.863 587.651 578.557 588.937 578.05C589.28 578.892 589.74 579.659 590.316 580.349C593.617 581.756 596.989 582.982 600.431 584.027C601.2 584.956 601.506 586.029 601.35 587.245C603.174 587.138 604.706 587.751 605.948 589.084C606.584 588.601 607.044 587.988 607.327 587.245C608.008 588.294 608.775 588.294 609.626 587.245C610.152 588.696 610.459 590.075 610.545 591.383C612.028 592.045 613.407 591.892 614.683 590.923C616.442 592.474 618.435 592.934 620.66 592.302C617.88 590.301 616.041 587.695 615.143 584.487C623.251 594.573 633.366 602.082 645.487 607.015C658.012 610.835 670.579 614.513 683.187 618.049C689.219 619.537 694.736 621.988 699.739 625.405C696.523 635.813 694.072 646.388 692.383 657.129C692.139 653.875 691.833 650.503 691.463 647.014C692.008 645.283 692.622 643.598 693.302 641.956C550.781 595.675 408.256 549.393 265.726 503.109C264.741 502.326 263.821 501.56 262.967 500.81C264.046 498.968 265.578 497.588 267.565 496.672C277.142 494.468 286.644 492.476 296.07 490.696C313.233 487.937 330.397 485.178 347.563 482.42Z" fill="#CD2317"/>
<path fill-rule="evenodd" clip-rule="evenodd" d="M306.184 540.35C311.838 542.03 317.355 543.869 322.736 545.867C321.073 551.82 319.694 557.949 318.598 564.257C312.991 599.652 307.32 634.9 301.587 670.002C297.274 668.07 292.677 666.077 287.794 664.025C284.568 664.246 281.504 664.092 278.599 663.565C280.986 662.862 283.438 662.555 285.955 662.646C286.51 655.965 287.736 649.529 289.633 643.336C291.624 635.159 293.309 626.27 294.69 616.67C295.067 614.676 295.834 613.45 296.989 612.992C296.584 611.479 296.278 609.947 296.07 608.394C297.627 600.148 299.007 591.872 300.208 583.567C302.436 580.572 302.896 577.354 301.587 573.912C302.086 570.767 303.006 568.469 304.345 567.016C304.178 563.549 303.871 560.178 303.426 556.901C304.346 551.376 305.266 545.858 306.184 540.35Z" fill="#7E1910"/>
<path fill-rule="evenodd" clip-rule="evenodd" d="M262.967 500.811C263.821 501.56 264.741 502.326 265.726 503.109C408.256 549.393 550.781 595.676 693.302 641.957C692.622 643.598 692.008 645.284 691.463 647.014C691.833 650.504 692.139 653.876 692.382 657.129C691.634 661.376 691.328 665.667 691.463 670.002C575.613 631.079 459.753 592.153 343.885 553.223C336.958 550.642 329.908 548.19 322.736 545.867C317.355 543.869 311.838 542.03 306.184 540.35C294.048 535.998 281.788 532.014 269.404 528.396C267.079 527.469 265.087 525.937 263.427 523.799C261.201 516.926 260.587 509.877 261.588 502.65C261.843 501.807 262.303 501.195 262.967 500.811Z" fill="#AB1A0F"/>
<path fill-rule="evenodd" clip-rule="evenodd" d="M814.678 648.853C822.651 693.607 830.614 738.358 838.586 783.102C839.138 790.887 840.361 798.549 842.264 806.09C843.073 810.967 843.689 815.871 844.103 820.803C859.376 816.324 874.705 812.032 890.079 807.929C893.969 814.56 896.424 821.456 897.435 828.619C859.321 841.068 821.005 852.869 782.495 864.02C775.02 859.81 771.038 853.374 770.542 844.71C770.514 843.793 770.974 843.18 771.921 842.871C788.206 837.46 804.601 832.402 821.115 827.699C822.127 826.991 822.127 826.225 821.115 825.4C811.423 768.371 801.621 711.361 791.691 654.37C799.323 652.385 806.982 650.546 814.678 648.853Z" fill="#57160F"/>
<path fill-rule="evenodd" clip-rule="evenodd" d="M398.136 647.014C397.734 646.954 397.426 647.107 397.217 647.474C397.83 647.78 398.442 648.087 399.056 648.393C374.854 653.6 350.793 659.271 326.874 665.404C326.446 660.912 326.906 656.621 328.253 652.531C345.541 648.478 362.859 644.492 380.206 640.577C386.4 642.384 392.377 644.529 398.136 647.014Z" fill="#901C11"/>
<path fill-rule="evenodd" clip-rule="evenodd" d="M322.736 545.867C329.908 548.19 336.958 550.642 343.885 553.223C338.332 586.272 333.121 619.374 328.253 652.531C326.906 656.621 326.446 660.913 326.874 665.405C350.793 659.271 374.854 653.601 399.056 648.394C398.442 648.087 397.83 647.78 397.217 647.474C397.426 647.107 397.734 646.955 398.136 647.014C401.699 647.336 403.846 649.175 404.573 652.531C405.7 656.375 406.927 660.206 408.251 664.025C407.879 664.894 407.265 665.508 406.412 665.864C344.626 681.311 282.711 696.176 220.669 710.461C223.191 702.354 227.177 694.998 232.623 688.393C237.767 685.567 243.284 683.574 249.174 682.416C266.688 678.42 284.159 674.283 301.587 670.002C307.32 634.901 312.991 599.653 318.598 564.258C319.694 557.95 321.073 551.82 322.736 545.867Z" fill="#56160F"/>
<path fill-rule="evenodd" clip-rule="evenodd" d="M770.541 658.968C770.845 658.968 771.158 658.968 771.461 658.968C777.309 694.607 783.442 730.162 789.851 765.632C779.792 762.075 769.677 758.703 759.507 755.517C759.351 752.132 759.507 748.761 759.967 745.403C762.965 727.968 765.723 710.498 768.243 692.99C769.116 681.514 769.889 670.174 770.541 658.968Z" fill="#FBF9F9"/>
<path fill-rule="evenodd" clip-rule="evenodd" d="M719.968 480.581C728.538 482.571 737.126 484.563 745.714 486.558C776.656 485.38 807.607 485.074 838.586 485.638C879.284 489.181 919.439 495.924 959.043 505.868C987.888 512.35 1001.68 530.435 1000.42 560.119C997.139 604.658 991.778 648.949 984.33 692.99C982.288 709.861 980.596 726.719 979.272 743.564C970.316 748.395 960.661 750.846 950.307 750.92C943.365 751.1 937.085 749.261 931.457 745.403C930.299 717.925 927.08 690.647 921.802 663.565C919.265 647.664 918.961 631.726 920.883 615.75C923.062 604.263 925.674 592.921 928.699 581.728C892.884 589.077 856.719 593.675 820.196 595.521C805.814 596.383 791.415 596.69 776.978 596.44C774.771 608.307 773.236 620.261 772.381 632.302C771.277 641.018 770.67 649.907 770.541 658.968C769.889 670.174 769.116 681.514 768.243 692.99C765.723 710.498 762.965 727.968 759.967 745.403C759.507 748.761 759.351 752.132 759.507 755.517C757.199 772.773 756.28 790.244 756.749 807.93C756.133 807.93 755.829 808.236 755.829 808.849C740.593 815.643 725.264 815.95 709.853 809.769C707.827 783.756 703.842 758.009 697.899 732.529C692.928 711.993 690.781 691.15 691.463 670.002C691.328 665.667 691.634 661.376 692.382 657.129C694.072 646.388 696.523 635.813 699.738 625.405C694.736 621.988 689.219 619.537 683.187 618.049C670.579 614.514 658.012 610.836 645.487 607.015C633.366 602.083 623.251 594.573 615.143 584.487C610.045 576.012 608.052 566.816 609.166 556.901C613.226 540.042 621.655 525.789 634.453 514.144C659.411 494.022 687.916 482.834 719.968 480.581Z" fill="#10120D"/>
<path fill-rule="evenodd" clip-rule="evenodd" d="M855.137 610.233C856.489 611.012 857.252 612.238 857.436 613.911C858.052 619.429 858.052 624.946 857.436 630.463C856.921 633.798 855.542 636.709 853.298 639.198C840.646 643.282 827.772 646.5 814.678 648.853C806.982 650.547 799.322 652.386 791.69 654.37C784.822 655.438 778.072 656.971 771.461 658.968C771.158 658.968 770.845 658.968 770.542 658.968C770.67 649.907 771.277 641.018 772.381 632.302C772.233 634.166 772.381 636.005 772.84 637.819C773.3 635.077 773.447 632.318 773.3 629.543C800.628 624.261 827.91 618.744 855.137 612.992C855.137 612.072 855.137 611.153 855.137 610.233Z" fill="#AA1A0E"/>
<path fill-rule="evenodd" clip-rule="evenodd" d="M820.196 595.521C829.86 599.102 839.662 602.627 849.62 606.095C851.606 607.32 853.445 608.699 855.137 610.233C855.137 611.152 855.137 612.072 855.137 612.991C827.91 618.743 800.628 624.26 773.3 629.543C773.447 632.318 773.3 635.076 772.84 637.818C772.381 636.004 772.233 634.165 772.381 632.301C773.236 620.26 774.771 608.306 776.978 596.44C791.415 596.689 805.814 596.382 820.196 595.521Z" fill="#CE2418"/>
<path fill-rule="evenodd" clip-rule="evenodd" d="M705.256 514.603C705.472 514.054 705.932 513.748 706.635 513.684C714.028 514.513 720.924 516.812 727.324 520.58C740.069 527.959 751.563 537.001 761.806 547.706C770.937 558.841 776.298 571.561 777.898 585.866C777.879 588.703 777.567 591.462 776.978 594.142C775.433 577.959 769.153 563.4 758.128 550.464C742.57 535.35 724.943 523.396 705.256 514.603Z" fill="#1F201A"/>
<path fill-rule="evenodd" clip-rule="evenodd" d="M278.599 663.565C281.504 664.092 284.568 664.246 287.794 664.025C292.677 666.078 297.274 668.07 301.587 670.002C284.159 674.282 266.688 678.42 249.174 682.416C243.284 683.574 237.767 685.567 232.623 688.392C232.659 686.851 231.739 685.472 229.864 684.255C224.828 682.966 219.923 681.587 215.152 680.117C216.3 678.612 217.833 677.539 219.75 676.898C239.344 672.275 258.96 667.831 278.599 663.565Z" fill="#901C11"/>
<path fill-rule="evenodd" clip-rule="evenodd" d="M215.152 680.116C219.923 681.587 224.828 682.966 229.864 684.254C231.739 685.471 232.659 686.851 232.623 688.392C227.176 694.997 223.191 702.353 220.669 710.46C213.912 707.853 207.476 704.634 201.359 700.805C203.544 693.981 206.916 687.85 211.474 682.415C210.928 681.988 210.314 681.835 209.635 681.955C211.292 681.074 213.131 680.461 215.152 680.116Z" fill="#80190F"/>
<path fill-rule="evenodd" clip-rule="evenodd" d="M697.9 732.529C703.842 758.008 707.827 783.755 709.853 809.768C709.853 813.752 709.853 817.738 709.853 821.722C708.918 827.607 709.685 833.43 712.152 839.193C712.769 839.884 713.535 840.191 714.451 840.112C714.837 840.776 715.444 841.236 716.29 841.492C720.897 841.952 725.494 842.412 730.083 842.871C724.262 844.113 718.432 843.653 712.612 841.492C711.428 840.195 710.355 838.816 709.394 837.354C708.772 832.365 707.852 827.461 706.635 822.641C700.085 835.124 695.641 848.304 693.302 862.181C690.086 870.61 690.853 878.579 695.601 886.088C701.424 890.992 707.248 895.897 713.072 900.801C721.871 918.469 736.124 928.584 755.829 931.145C732.106 939.513 708.196 947.636 684.107 955.512C675.818 957.322 667.543 957.322 659.28 955.512C477.914 872.031 296.462 788.814 114.924 705.863C117.868 702.702 121.546 700.71 125.959 699.886C153.729 693.259 181.622 687.282 209.635 681.955C210.314 681.835 210.928 681.988 211.474 682.415C206.916 687.85 203.544 693.981 201.359 700.805C207.476 704.634 213.913 707.852 220.669 710.46C282.711 696.175 344.626 681.31 406.412 665.863C407.265 665.507 407.879 664.893 408.251 664.024C406.927 660.205 405.7 656.374 404.573 652.53C413.663 649.951 422.859 647.652 432.159 645.634C439.321 644.888 446.371 645.502 453.307 647.473C534.964 675.56 616.494 703.911 697.9 732.529Z" fill="#CF2418"/>
<path fill-rule="evenodd" clip-rule="evenodd" d="M791.69 654.37C801.621 711.361 811.423 768.371 821.115 825.401C818.393 827.874 815.938 827.568 813.759 824.481C808.692 822.281 803.479 820.442 798.127 818.964C795.129 801.219 792.371 783.442 789.851 765.632C783.442 730.161 777.309 694.607 771.461 658.968C778.072 656.971 784.822 655.438 791.69 654.37Z" fill="#7A180F"/>
<path fill-rule="evenodd" clip-rule="evenodd" d="M979.272 743.563C979.272 749.387 979.272 755.211 979.272 761.034C981.332 760.763 983.171 761.07 984.789 761.954C971.824 761.233 965.388 767.362 965.48 780.344C964.293 780.126 963.374 780.433 962.721 781.264C958.077 782.255 953.48 783.482 948.928 784.942C947.503 784.932 946.28 784.626 945.25 784.022C944.321 782.943 943.089 782.33 941.572 782.183C938.023 776.898 935.42 771.075 933.756 764.712C932.735 763.972 931.66 763.359 930.538 762.873C930.538 762.567 930.538 762.26 930.538 761.954C931.448 756.611 931.752 751.094 931.457 745.403C937.085 749.261 943.365 751.1 950.308 750.92C960.661 750.846 970.316 748.395 979.272 743.563Z" fill="#EB8962"/>
<path fill-rule="evenodd" clip-rule="evenodd" d="M759.507 755.518C769.677 758.704 779.792 762.076 789.851 765.632C792.371 783.442 795.13 801.22 798.127 818.964C787.617 822.98 776.886 826.658 765.944 829.999C764.077 825.968 761.162 822.904 757.209 820.803C756.749 816.523 756.592 812.233 756.749 807.93C756.28 790.244 757.199 772.773 759.507 755.518Z" fill="#CF2518"/>
<path fill-rule="evenodd" clip-rule="evenodd" d="M1005.02 783.102C1005.94 783.409 1006.55 784.022 1006.86 784.942C998.959 784.523 992.366 787.282 987.088 793.217C987.962 790.182 989.948 787.883 993.065 786.321C996.725 784.027 1000.72 782.954 1005.02 783.102Z" fill="#21120B"/>
<path fill-rule="evenodd" clip-rule="evenodd" d="M1011.46 788.62C1013.18 788.371 1014.41 788.985 1015.13 790.459C1008.6 791.821 1003.23 795.193 999.042 800.574C999.63 797.442 1001.31 794.836 1004.1 792.758C1006.57 791.282 1009.03 789.903 1011.46 788.62Z" fill="#18130F"/>
<path fill-rule="evenodd" clip-rule="evenodd" d="M890.079 807.93C874.705 812.033 859.376 816.324 844.103 820.803C843.689 815.872 843.073 810.968 842.264 806.091C850.007 803.733 857.822 801.588 865.712 799.654C874.07 802.078 882.19 804.837 890.079 807.93Z" fill="#8D1B10"/>
<path fill-rule="evenodd" clip-rule="evenodd" d="M1022.49 796.896C1023.11 796.896 1023.41 797.202 1023.41 797.815C1018.43 800.789 1013.84 804.314 1009.62 808.389C1009 809.003 1008.39 809.003 1007.78 808.389C1011.5 803.007 1016.41 799.176 1022.49 796.896Z" fill="#19130D"/>
<path fill-rule="evenodd" clip-rule="evenodd" d="M923.182 813.447C928.313 816.777 933.83 819.383 939.733 821.262C960.165 823.375 979.475 829.198 997.663 838.733C1016.3 846.51 1035.61 849.268 1055.59 847.009C1059.17 846.329 1062.53 845.103 1065.71 843.331C1068.66 838.948 1072.64 836.802 1077.66 836.894C1078.16 837.554 1078.77 838.013 1079.5 838.274C1079.24 842.622 1077.4 846.147 1073.98 848.848C1052.09 858.885 1029.4 861.03 1005.94 855.285C1002.84 854.695 1000.24 853.316 998.123 851.147C997.424 851.211 996.964 851.517 996.743 852.066C996.127 852.066 995.52 852.066 994.904 852.066C986.684 847.956 978.408 843.818 970.077 839.653C961.002 837.735 951.806 836.815 942.492 836.894C930.446 835.849 920.175 831.098 911.688 822.642C911.366 821.035 910.906 819.503 910.309 818.044C911.035 814.18 911.807 810.196 912.607 806.09C913.545 807.133 914.152 806.827 914.446 805.171C916.046 808.611 918.345 811.523 921.343 813.906C922.207 814.543 922.814 814.389 923.182 813.447Z" fill="#F3F1F1"/>
<path fill-rule="evenodd" clip-rule="evenodd" d="M1032.6 805.171C1033.22 805.171 1033.52 805.477 1033.52 806.09C1027.65 808.113 1022.59 811.485 1018.35 816.205C1021.12 810.263 1025.87 806.585 1032.6 805.171Z" fill="#1C130C"/>
<path fill-rule="evenodd" clip-rule="evenodd" d="M755.829 808.85C755.829 812.528 755.829 816.206 755.829 819.884C743.443 817.879 733.485 821.864 725.945 831.838C724.989 834.832 724.529 837.897 724.566 841.033C721.154 841.104 717.78 840.797 714.451 840.113C713.528 839.025 712.761 837.8 712.152 836.435C711.151 831.56 710.385 826.656 709.853 821.723C709.853 817.739 709.853 813.753 709.853 809.769C725.264 815.95 740.593 815.643 755.829 808.85Z" fill="#ED8C65"/>
<path fill-rule="evenodd" clip-rule="evenodd" d="M798.127 818.964C803.479 820.442 808.692 822.281 813.759 824.481C815.938 827.568 818.393 827.874 821.115 825.401C822.127 826.225 822.127 826.991 821.115 827.699C804.601 832.403 788.206 837.46 771.921 842.871C770.974 843.18 770.514 843.794 770.542 844.71C769.411 839.779 767.875 834.874 765.944 829.998C776.886 826.657 787.617 822.979 798.127 818.964Z" fill="#8D1A10"/>
<path fill-rule="evenodd" clip-rule="evenodd" d="M930.538 761.954C930.538 762.261 930.538 762.568 930.538 762.874C933.526 768.91 936.441 775.04 939.273 781.264C939.889 781.956 940.653 782.263 941.572 782.184C942.299 783.659 943.521 784.272 945.25 784.023C946.28 784.626 947.503 784.932 948.928 784.942C953.48 783.482 958.077 782.256 962.721 781.264C968.873 782.451 974.997 783.524 981.111 784.483C976.054 782.681 970.84 781.302 965.48 780.345C965.388 767.363 971.824 761.233 984.79 761.954C987.272 762.353 989.258 763.578 990.766 765.632C992.449 769.004 994.141 772.375 995.824 775.747C999.29 777.776 1002.35 780.227 1005.02 783.103C1000.72 782.954 996.725 784.027 993.065 786.322C989.948 787.884 987.962 790.183 987.088 793.218C992.366 787.283 998.959 784.524 1006.86 784.942C1008.93 785.476 1010.46 786.701 1011.46 788.62C1009.03 789.903 1006.57 791.282 1004.1 792.758C1001.31 794.836 999.631 797.442 999.042 800.574C1003.23 795.193 1008.6 791.821 1015.13 790.459C1018.13 791.925 1020.59 794.07 1022.49 796.896C1016.41 799.176 1011.5 803.007 1007.78 808.39C1008.39 809.003 1009 809.003 1009.62 808.39C1013.84 804.315 1018.43 800.789 1023.41 797.816C1025.51 798.864 1027.65 799.937 1029.85 801.034C1031.35 802.072 1032.27 803.451 1032.6 805.172C1025.87 806.586 1021.12 810.264 1018.35 816.206C1022.59 811.486 1027.65 808.114 1033.52 806.091C1046.26 812.613 1059.13 818.896 1072.14 824.941C1076.87 828.112 1079.33 832.556 1079.5 838.274C1078.77 838.014 1078.16 837.554 1077.66 836.895C1072.64 836.803 1068.66 838.948 1065.71 843.332C1062.53 845.104 1059.17 846.33 1055.59 847.01C1035.61 849.269 1016.3 846.511 997.663 838.734C979.475 829.199 960.165 823.375 939.733 821.263C933.83 819.384 928.313 816.778 923.182 813.447C916.203 808.444 913.904 801.701 916.285 793.218C918.676 784.816 921.435 776.541 924.561 768.391C925.49 765.165 927.485 763.019 930.538 761.954Z" fill="#BF1E12"/>
<path fill-rule="evenodd" clip-rule="evenodd" d="M941.572 782.184C943.089 782.331 944.322 782.943 945.25 784.023C943.522 784.272 942.299 783.659 941.572 782.184Z" fill="#191814"/>
<path fill-rule="evenodd" clip-rule="evenodd" d="M962.721 781.264C963.374 780.433 964.294 780.126 965.48 780.344C970.841 781.302 976.054 782.681 981.112 784.482C974.997 783.524 968.873 782.451 962.721 781.264Z" fill="#1E150F"/>
<path fill-rule="evenodd" clip-rule="evenodd" d="M930.538 762.873C931.66 763.359 932.735 763.972 933.756 764.712C935.42 771.074 938.023 776.898 941.572 782.183C940.653 782.262 939.889 781.955 939.273 781.263C936.441 775.039 933.526 768.909 930.538 762.873Z" fill="#83533B"/>
<path fill-rule="evenodd" clip-rule="evenodd" d="M709.853 821.723C710.385 826.656 711.151 831.56 712.152 836.435C712.761 837.8 713.528 839.025 714.451 840.113C713.535 840.192 712.769 839.885 712.152 839.194C709.685 833.431 708.918 827.608 709.853 821.723Z" fill="#161511"/>
<path fill-rule="evenodd" clip-rule="evenodd" d="M114.924 705.863C296.462 788.815 477.914 872.031 659.28 955.513C667.543 957.322 675.818 957.322 684.107 955.513C708.196 947.637 732.106 939.514 755.829 931.145C758.496 932.137 761.254 932.749 764.105 932.985C766.955 932.905 767.259 933.364 765.024 934.364C737.439 943.559 709.853 952.754 682.268 961.949C673.207 964.027 664.318 963.421 655.602 960.11C475.514 877.036 295.442 794.126 115.384 711.38C114.929 709.566 114.775 707.727 114.924 705.863Z" fill="#741C17"/>
<path fill-rule="evenodd" clip-rule="evenodd" d="M756.749 807.93C756.593 812.232 756.749 816.523 757.209 820.803C761.163 822.903 764.077 825.968 765.944 829.998C767.875 834.874 769.411 839.779 770.542 844.71C771.038 853.374 775.02 859.811 782.495 864.02C782.109 864.684 781.502 865.144 780.656 865.4C784.059 868.191 786.817 871.563 788.932 875.514C788.353 876.204 787.893 876.971 787.553 877.813C787.167 876.474 786.394 876.015 785.254 876.434C786.385 877.522 786.385 878.594 785.254 879.652C783.884 878.544 782.652 878.544 781.576 879.652C770.312 876.921 760.197 879.22 751.232 886.549C756.51 884.38 762.027 882.541 767.783 881.031C773.797 880.765 779.617 880.612 785.254 880.572C787.286 880.938 789.429 881.09 791.691 881.031C795.838 885.944 800.132 890.694 804.564 895.284C807.929 901.381 810.688 907.512 812.839 913.674C813.06 914.861 812.748 915.781 811.92 916.433C806.43 915.37 801.07 913.837 795.828 911.835C790.054 914.798 784.077 917.403 777.898 919.651C757.788 921.736 740.17 916.065 725.025 902.64C721.044 896.51 717.053 890.38 713.072 884.25C707.832 878.703 702.315 873.492 696.52 868.618C695.034 866.583 693.961 864.437 693.302 862.181C695.641 848.305 700.085 835.124 706.635 822.642C707.852 827.461 708.772 832.366 709.394 837.354C710.355 838.816 711.428 840.196 712.612 841.492C718.432 843.654 724.262 844.114 730.083 842.871C731.876 843.628 733.715 843.782 735.6 843.331C732.152 841.502 728.474 840.736 724.566 841.032C724.529 837.897 724.989 834.832 725.945 831.837C733.485 821.864 743.443 817.879 755.829 819.883C755.829 816.205 755.829 812.527 755.829 808.849C755.829 808.236 756.133 807.93 756.749 807.93Z" fill="#C01F12"/>
<path fill-rule="evenodd" clip-rule="evenodd" d="M755.829 855.744C761.512 855.383 767.029 856.149 772.381 858.043C767.194 857.69 761.981 857.69 756.749 858.043C732.621 867.303 732.317 866.537 755.829 855.744Z" fill="#14110D"/>
<path fill-rule="evenodd" clip-rule="evenodd" d="M750.312 846.549C755.406 846.17 760.307 846.936 765.024 848.848C766.128 849.45 766.128 849.909 765.024 850.228C760.243 848.526 755.342 848.066 750.312 848.848C745.135 849.923 740.234 851.456 735.6 853.446C740.014 849.855 744.924 847.556 750.312 846.549Z" fill="#17110D"/>
<path fill-rule="evenodd" clip-rule="evenodd" d="M714.451 840.113C717.78 840.797 721.154 841.104 724.566 841.033C728.474 840.737 732.152 841.503 735.6 843.332C733.715 843.782 731.876 843.629 730.083 842.872C725.494 842.413 720.897 841.953 716.29 841.493C715.444 841.237 714.837 840.777 714.451 840.113Z" fill="#19110A"/>
<path fill-rule="evenodd" clip-rule="evenodd" d="M759.507 867.699C766.128 867.189 772.565 867.955 778.817 869.998C767.553 868.165 756.822 869.851 746.634 875.055C746.331 874.902 746.018 874.749 745.715 874.595C749.898 871.28 754.496 868.981 759.507 867.699Z" fill="#0F110C"/>
<path fill-rule="evenodd" clip-rule="evenodd" d="M838.586 783.103C862.19 791.072 885.785 799.041 909.389 807.01C909.867 810.671 910.171 814.349 910.308 818.044C910.906 819.503 911.366 821.035 911.688 822.642C920.175 831.098 930.446 835.849 942.492 836.894C951.806 836.815 961.002 837.735 970.077 839.653C978.408 843.818 986.684 847.956 994.904 852.066C934.041 872.076 873.353 892.613 812.839 913.674C810.688 907.512 807.929 901.381 804.564 895.284C800.132 890.694 795.838 885.943 791.69 881.031C789.428 881.09 787.286 880.938 785.254 880.572C784.031 880.265 782.799 879.958 781.576 879.652C782.652 878.544 783.884 878.544 785.254 879.652C786.385 878.594 786.385 877.522 785.254 876.434C786.394 876.014 787.166 876.474 787.553 877.813C787.893 876.971 788.353 876.204 788.932 875.514C786.817 871.563 784.058 868.191 780.656 865.4C781.502 865.144 782.109 864.684 782.495 864.02C821.005 852.869 859.321 841.068 897.435 828.619C896.424 821.457 893.969 814.56 890.079 807.93C882.19 804.836 874.07 802.078 865.712 799.654C857.822 801.588 850.006 803.733 842.264 806.091C840.361 798.55 839.138 790.887 838.586 783.103Z" fill="#CF2518"/>
<path fill-rule="evenodd" clip-rule="evenodd" d="M987.5 879.506C988.17 879.506 988.83 879.506 989.5 879.506C991.05 883.24 989.71 885.74 985.5 887.006C920.02 908.221 854.69 929.721 789.5 951.506C789.17 950.839 788.83 950.173 788.5 949.506C789.4 948.797 789.74 947.797 789.5 946.506C855.31 923.601 921.31 901.267 987.5 879.506Z" fill="#7B1F19"/>
</svg>
