<svg width="1024" height="1536" viewBox="0 0 1024 1536" fill="none" xmlns="http://www.w3.org/2000/svg">
<path fill-rule="evenodd" clip-rule="evenodd" d="M962.5 96.5C962.44 97.0431 962.107 97.3764 961.5 97.5C959.205 96.5682 956.871 95.7348 954.5 95C790.167 94.3333 625.833 94.3333 461.5 95C456.891 96.1239 452.891 98.2906 449.5 101.5C450.111 99.2254 451.445 97.5588 453.5 96.5C456.353 95.0472 459.353 93.8806 462.5 93C625.5 92.3333 788.5 92.3333 951.5 93C955.422 93.4744 959.088 94.641 962.5 96.5Z" fill="#1E1E1D"/>
<path fill-rule="evenodd" clip-rule="evenodd" d="M370.5 222.5C368.63 213.693 366.13 205.026 363 196.5C359.769 190.601 355.769 185.268 351 180.5C345.096 185.471 338.263 188.304 330.5 189C315.323 188.708 300.156 187.875 285 186.5C274.969 186.589 265.136 187.923 255.5 190.5C264.5 207.658 263.334 223.991 252 239.5C251.03 250.164 250.196 260.831 249.5 271.5C247.076 271.808 244.743 271.474 242.5 270.5C239.87 263.396 235.87 257.229 230.5 252C224.975 248.53 219.642 248.696 214.5 252.5C207.242 234.532 204.409 215.865 206 196.5C207.145 186.853 212.145 180.186 221 176.5C222.894 166.884 227.727 159.051 235.5 153C254.352 139.271 275.519 132.104 299 131.5C314.651 132.581 330.151 134.414 345.5 137C344.87 135.108 343.87 133.441 342.5 132C348.889 133.522 354.889 136.189 360.5 140C363.491 142.99 365.657 146.49 367 150.5C368.44 157.701 367.274 164.368 363.5 170.5C364 171.5 364.5 172.5 365 173.5C367.401 172.398 369.901 172.231 372.5 173C374.255 175.93 375.422 179.097 376 182.5C377.038 196.354 375.205 209.687 370.5 222.5Z" fill="#141611"/>
<path fill-rule="evenodd" clip-rule="evenodd" d="M450.5 110.5C450.5 131.833 450.5 153.167 450.5 174.5C450.5 263.5 450.5 352.5 450.5 441.5C449.833 441.5 449.5 441.167 449.5 440.5C449.667 420.497 449.5 400.497 449 380.5C448.346 381.696 447.846 381.696 447.5 380.5C448.827 345.811 449.493 310.978 449.5 276C449.136 238.348 449.136 201.015 449.5 164C448.833 163.667 448.167 163.333 447.5 163C449.112 144.353 450.112 126.853 450.5 110.5Z" fill="#010402"/>
<path fill-rule="evenodd" clip-rule="evenodd" d="M450.5 174.5C620.5 174.5 790.5 174.5 960.5 174.5C960.5 479.5 960.5 784.5 960.5 1089.5C960.5 1090.5 960.5 1091.5 960.5 1092.5C957.833 1098.5 953.5 1102.83 947.5 1105.5C786.861 1106.5 626.195 1106.83 465.5 1106.5C466.225 1068.77 465.058 1031.1 462 993.5C458.161 956.786 453.995 920.12 449.5 883.5C450.527 877.66 450.527 871.66 449.5 865.5C449.832 799.998 449.499 734.665 448.5 669.5C448.454 662.809 448.788 656.143 449.5 649.5C461.43 663.27 473.597 676.937 486 690.5C495.868 700.037 506.035 709.203 516.5 718C520.444 719.982 524.611 721.148 529 721.5C570.582 709.295 607.749 689.129 640.5 661C665.935 635.893 692.268 611.893 719.5 589C755.661 580.75 788.661 565.75 818.5 544C826.04 538.127 832.54 531.294 838 523.5C838.333 520.833 838.667 518.167 839 515.5C842.37 512.465 845.37 509.132 848 505.5C848.752 502.106 848.585 498.773 847.5 495.5C854.34 489.217 854.007 483.383 846.5 478C843.314 477.404 840.314 477.904 837.5 479.5C837.672 478.508 837.338 477.842 836.5 477.5C836.67 476.178 836.337 475.011 835.5 474C832.97 472.578 830.303 472.245 827.5 473C807.833 481.333 788.167 489.667 768.5 498C758.085 501.771 747.418 504.271 736.5 505.5C736.167 504.833 735.833 504.167 735.5 503.5C742.981 494.552 749.481 484.886 755 474.5C757.487 469.26 756.987 464.427 753.5 460C751.5 459.333 749.5 459.333 747.5 460C743.211 465.958 738.544 471.624 733.5 477C722.074 485.755 711.241 495.255 701 505.5C694.302 516.592 690.636 528.592 690 541.5C651.923 570.792 609.756 592.625 563.5 607C556.152 610.338 549.152 614.171 542.5 618.5C542.167 617.167 541.833 615.833 541.5 614.5C534.773 601.38 527.773 588.38 520.5 575.5C521.815 574.524 523.148 573.524 524.5 572.5C515.414 557.33 506.581 541.997 498 526.5C490.434 506.034 481.767 486.034 472 466.5C466.436 456.77 459.269 448.437 450.5 441.5C450.5 352.5 450.5 263.5 450.5 174.5Z" fill="#FCFBF7"/>
<path fill-rule="evenodd" clip-rule="evenodd" d="M372.5 231.5C372.81 234.713 372.477 237.713 371.5 240.5C371.167 240.5 370.833 240.5 370.5 240.5C369.054 239.06 367.221 238.393 365 238.5C357.093 238.692 349.593 240.525 342.5 244C341.874 244.75 341.374 245.584 341 246.5C340.333 251.167 340.333 255.833 341 260.5C344.551 272.318 348.384 283.984 352.5 295.5C345.068 303.401 336.068 305.734 325.5 302.5C325.5 301.5 325.5 300.5 325.5 299.5C331.176 299.666 336.843 299.499 342.5 299C345.215 298.122 347.549 296.622 349.5 294.5C344.641 283.425 340.475 272.091 337 260.5C335.456 234.671 347.29 225.005 372.5 231.5Z" fill="#14120E"/>
<path fill-rule="evenodd" clip-rule="evenodd" d="M370.5 240.5C361.432 239.913 352.766 241.413 344.5 245C345.833 245.333 347.167 245.667 348.5 246C347.552 246.483 346.552 246.649 345.5 246.5C345.67 247.822 345.337 248.989 344.5 250C345.333 250.167 346.167 250.333 347 250.5C350.989 248.782 355.156 247.782 359.5 247.5C362.253 247.353 364.753 248.02 367 249.5C367.471 247.754 368.138 246.087 369 244.5C370.464 249.701 368.797 253.367 364 255.5C363.626 257.491 362.793 259.158 361.5 260.5C360.824 263.339 358.991 265.005 356 265.5C351.615 263.948 348.781 260.948 347.5 256.5C345.506 258.917 343.673 258.917 342 256.5C342.194 260.947 343.194 265.28 345 269.5C346.204 268.529 346.704 267.529 346.5 266.5C347.478 266.977 348.311 267.643 349 268.5C352.028 268.948 354.862 268.448 357.5 267C356.406 268.78 355.406 270.614 354.5 272.5C353.604 271.494 352.938 271.494 352.5 272.5C353 273.5 353.5 274.5 354 275.5C356.157 272.922 357.323 272.922 357.5 275.5C358.883 272.924 359.717 273.258 360 276.5C360.92 274.368 362.087 272.368 363.5 270.5C363.911 271.262 364.077 272.262 364 273.5C364.667 272.833 365.333 272.167 366 271.5C367.675 273.591 368.175 275.758 367.5 278C368.744 278.456 369.577 277.956 370 276.5C372.247 279.492 372.913 282.825 372 286.5C370.667 285.167 369.333 283.833 368 282.5C367.667 283.5 367.333 284.5 367 285.5C366.667 285.167 366.333 284.833 366 284.5C365.044 285.579 364.211 286.745 363.5 288C364.744 288.456 365.577 287.956 366 286.5C366.667 288.5 368 289.833 370 290.5C370.333 289.833 370.667 289.167 371 288.5C371.191 290.708 371.691 292.708 372.5 294.5C372.167 295.167 371.833 295.833 371.5 296.5C369.982 299.534 369.149 302.867 369 306.5C369.16 303.491 367.993 301.325 365.5 300C365.833 299.667 366.167 299.333 366.5 299C363.635 296.597 363.801 295.764 367 296.5C368.802 293.43 367.802 291.43 364 290.5C363.552 292.409 364.385 293.576 366.5 294C362.816 296.488 358.816 296.821 354.5 295C355.509 292.828 357.176 291.662 359.5 291.5C359.202 294.336 359.869 294.836 361.5 293C360.495 291.493 359.162 290.327 357.5 289.5C358.641 288.575 358.641 287.741 357.5 287C358.308 286.692 358.975 286.192 359.5 285.5C358.609 284.41 357.609 284.41 356.5 285.5C355.386 284.277 355.219 282.944 356 281.5C356.333 282.167 356.667 282.833 357 283.5C358.827 281.876 360.66 280.876 362.5 280.5C361.5 279.5 360.5 278.5 359.5 277.5C358.158 278.902 357.324 278.569 357 276.5C355.902 277.967 354.402 278.801 352.5 279C351.643 279.689 350.977 280.522 350.5 281.5C352.5 284.167 354.5 286.833 356.5 289.5C355.494 293.481 354.494 293.481 353.5 289.5C353.167 289.667 352.833 289.833 352.5 290C353.807 291.943 353.807 293.777 352.5 295.5C348.384 283.984 344.551 272.318 341 260.5C340.333 255.833 340.333 251.167 341 246.5C341.374 245.584 341.874 244.75 342.5 244C349.593 240.525 357.093 238.692 365 238.5C367.221 238.393 369.054 239.06 370.5 240.5Z" fill="#EA9F73"/>
<path fill-rule="evenodd" clip-rule="evenodd" d="M361.5 260.5C354.479 265.4 350.312 263.4 349 254.5C343.689 257.622 342.856 257.122 346.5 253C351.662 249.388 357.329 248.054 363.5 249C367.723 251.244 367.389 252.41 362.5 252.5C362.425 255.206 362.092 257.873 361.5 260.5Z" fill="#14140F"/>
<path fill-rule="evenodd" clip-rule="evenodd" d="M370.5 240.5C370.833 240.5 371.167 240.5 371.5 240.5C371.102 243.483 370.768 246.483 370.5 249.5C372.479 258.061 373.812 266.728 374.5 275.5C374.207 281.882 373.54 288.215 372.5 294.5C371.691 292.708 371.191 290.708 371 288.5C370.667 289.167 370.333 289.833 370 290.5C368 289.833 366.667 288.5 366 286.5C365.577 287.956 364.744 288.456 363.5 288C364.211 286.745 365.044 285.579 366 284.5C366.333 284.833 366.667 285.167 367 285.5C367.333 284.5 367.667 283.5 368 282.5C369.333 283.833 370.667 285.167 372 286.5C372.913 282.825 372.247 279.492 370 276.5C369.577 277.956 368.744 278.456 367.5 278C368.175 275.758 367.675 273.591 366 271.5C365.333 272.167 364.667 272.833 364 273.5C364.077 272.262 363.911 271.262 363.5 270.5C362.087 272.368 360.92 274.368 360 276.5C359.717 273.258 358.883 272.924 357.5 275.5C357.323 272.922 356.157 272.922 354 275.5C353.5 274.5 353 273.5 352.5 272.5C352.938 271.494 353.604 271.494 354.5 272.5C355.406 270.614 356.406 268.78 357.5 267C354.862 268.448 352.028 268.948 349 268.5C348.311 267.643 347.478 266.977 346.5 266.5C346.704 267.529 346.204 268.529 345 269.5C343.194 265.28 342.194 260.947 342 256.5C343.673 258.917 345.506 258.917 347.5 256.5C348.781 260.948 351.615 263.948 356 265.5C358.991 265.005 360.824 263.339 361.5 260.5C362.793 259.158 363.626 257.491 364 255.5C368.797 253.367 370.464 249.701 369 244.5C368.138 246.087 367.471 247.754 367 249.5C364.753 248.02 362.253 247.353 359.5 247.5C355.156 247.782 350.989 248.782 347 250.5C346.167 250.333 345.333 250.167 344.5 250C345.337 248.989 345.67 247.822 345.5 246.5C346.552 246.649 347.552 246.483 348.5 246C347.167 245.667 345.833 245.333 344.5 245C352.766 241.413 361.432 239.913 370.5 240.5Z" fill="#EA966A"/>
<path fill-rule="evenodd" clip-rule="evenodd" d="M370.5 222.5C371.417 225.417 372.084 228.417 372.5 231.5C347.29 225.005 335.456 234.671 337 260.5C340.475 272.091 344.641 283.425 349.5 294.5C347.549 296.622 345.215 298.122 342.5 299C336.843 299.499 331.176 299.666 325.5 299.5C325.5 300.5 325.5 301.5 325.5 302.5C336.068 305.734 345.068 303.401 352.5 295.5C353.807 293.777 353.807 291.943 352.5 290C352.833 289.833 353.167 289.667 353.5 289.5C354.494 293.481 355.494 293.481 356.5 289.5C354.5 286.833 352.5 284.167 350.5 281.5C350.977 280.522 351.643 279.689 352.5 279C354.402 278.801 355.902 277.967 357 276.5C357.324 278.569 358.158 278.902 359.5 277.5C360.5 278.5 361.5 279.5 362.5 280.5C360.66 280.876 358.827 281.876 357 283.5C356.667 282.833 356.333 282.167 356 281.5C355.219 282.944 355.386 284.277 356.5 285.5C357.609 284.41 358.609 284.41 359.5 285.5C358.975 286.192 358.308 286.692 357.5 287C358.641 287.741 358.641 288.575 357.5 289.5C359.162 290.327 360.495 291.493 361.5 293C359.869 294.836 359.202 294.336 359.5 291.5C357.176 291.662 355.509 292.828 354.5 295C358.816 296.821 362.816 296.488 366.5 294C364.385 293.576 363.552 292.409 364 290.5C367.802 291.43 368.802 293.43 367 296.5C363.801 295.764 363.635 296.597 366.5 299C366.167 299.333 365.833 299.667 365.5 300C367.993 301.325 369.16 303.491 369 306.5C369.149 302.867 369.982 299.534 371.5 296.5C369.881 314.975 366.048 332.975 360 350.5C356.894 360.441 350.394 366.774 340.5 369.5C332.258 371.944 323.925 372.11 315.5 370C292.276 364.143 272.11 352.976 255 336.5C250.431 327.225 246.931 317.558 244.5 307.5C239.855 307.884 235.188 307.218 230.5 305.5C228.388 304.56 226.388 303.394 224.5 302C209.008 287.877 205.675 271.377 214.5 252.5C219.642 248.696 224.975 248.53 230.5 252C235.87 257.229 239.87 263.396 242.5 270.5C244.743 271.474 247.076 271.808 249.5 271.5C250.196 260.831 251.03 250.164 252 239.5C263.334 223.991 264.5 207.658 255.5 190.5C265.136 187.923 274.969 186.589 285 186.5C300.156 187.875 315.323 188.708 330.5 189C338.263 188.304 345.096 185.471 351 180.5C355.769 185.268 359.769 190.601 363 196.5C366.13 205.026 368.63 213.693 370.5 222.5Z" fill="#EA9A6E"/>
<path fill-rule="evenodd" clip-rule="evenodd" d="M219.5 264.5C224.543 262.505 228.71 263.838 232 268.5C232.401 272.744 231.901 276.911 230.5 281C231.727 284.481 233.227 287.648 235 290.5C232 288.833 229.667 286.5 228 283.5C227.672 278.475 227.672 273.475 228 268.5C225.544 266.346 222.711 265.013 219.5 264.5Z" fill="#0F0C08"/>
<path fill-rule="evenodd" clip-rule="evenodd" d="M293.5 249.5C298.267 249.191 302.934 249.691 307.5 251C309.555 251.687 311.221 252.854 312.5 254.5C309.911 255.205 307.244 255.205 304.5 254.5C304.575 260.94 301.575 264.44 295.5 265C292.109 262.394 290.109 258.894 289.5 254.5C286.569 255.273 283.736 256.273 281 257.5C280.833 257.167 280.667 256.833 280.5 256.5C284.457 253.357 288.79 251.023 293.5 249.5Z" fill="#171611"/>
<path fill-rule="evenodd" clip-rule="evenodd" d="M288.5 228.5C299.454 227.791 309.787 229.957 319.5 235C319.957 235.414 320.291 235.914 320.5 236.5C319.164 239.51 317.831 242.51 316.5 245.5C300.103 238.267 283.437 237.6 266.5 243.5C267.091 240.386 268.758 237.886 271.5 236C276.872 232.607 282.538 230.107 288.5 228.5Z" fill="#161511"/>
<path fill-rule="evenodd" clip-rule="evenodd" d="M299.5 317.5C316.349 320.63 333.349 321.297 350.5 319.5C350.5 320.833 350.5 322.167 350.5 323.5C333.635 326.654 316.968 325.821 300.5 321C299.663 319.989 299.33 318.822 299.5 317.5Z" fill="#1A1511"/>
<path fill-rule="evenodd" clip-rule="evenodd" d="M331.5 334.5C344.033 334.533 344.366 335.699 332.5 338C327.743 338.81 323.076 338.476 318.5 337C322.988 336.24 327.322 335.406 331.5 334.5Z" fill="#17100C"/>
<path fill-rule="evenodd" clip-rule="evenodd" d="M449.5 101.5C448.465 103.205 448.465 104.872 449.5 106.5C448.282 106.109 447.448 106.776 447 108.5C446.833 119.667 446.667 130.833 446.5 142C446.511 153.559 447.178 164.892 448.5 176C447.177 188.276 446.51 200.776 446.5 213.5C446.667 225.833 446.833 238.167 447 250.5C447.654 249.304 448.154 249.304 448.5 250.5C447.177 272.685 446.51 295.019 446.5 317.5C446.521 340.255 447.187 362.921 448.5 385.5C448.333 386.167 448.167 386.833 448 387.5C447.667 386.5 447.333 385.5 447 384.5C446.181 402.574 446.348 420.574 447.5 438.5C446.391 438.443 445.391 438.11 444.5 437.5C444.333 328.166 444.5 218.833 445 109.5C445.754 106.316 447.254 103.649 449.5 101.5Z" fill="#1D1D1C"/>
<path fill-rule="evenodd" clip-rule="evenodd" d="M230.5 305.5C235.188 307.218 239.855 307.884 244.5 307.5C246.931 317.558 250.431 327.225 255 336.5C272.11 352.976 292.276 364.143 315.5 370C323.925 372.11 332.258 371.944 340.5 369.5C340.5 373.167 340.5 376.833 340.5 380.5C332.741 384.905 324.408 386.738 315.5 386C300.366 381.77 287.033 374.437 275.5 364C264.883 354.889 256.05 344.389 249 332.5C246.533 325.63 244.533 318.63 243 311.5C242.29 310.027 241.124 309.36 239.5 309.5C239.5 315.833 239.5 322.167 239.5 328.5C236.264 321.012 233.264 313.346 230.5 305.5Z" fill="#151510"/>
<path fill-rule="evenodd" clip-rule="evenodd" d="M340.5 380.5C339.974 385.807 340.64 390.807 342.5 395.5C341.761 395.369 341.094 395.536 340.5 396C348.868 400.398 352.535 407.398 351.5 417C349.786 432.71 340.952 440.877 325 441.5C283.982 438.745 250.816 421.412 225.5 389.5C231.072 385.08 234.906 379.413 237 372.5C238.517 357.872 239.351 343.205 239.5 328.5C239.5 322.167 239.5 315.833 239.5 309.5C241.124 309.36 242.29 310.027 243 311.5C244.533 318.63 246.533 325.63 249 332.5C256.05 344.389 264.883 354.889 275.5 364C287.033 374.437 300.366 381.77 315.5 386C324.408 386.738 332.741 384.905 340.5 380.5Z" fill="#EA996D"/>
<path fill-rule="evenodd" clip-rule="evenodd" d="M962.5 96.5C970.399 101.619 974.733 108.953 975.5 118.5C974.83 155.902 974.164 193.402 973.5 231C974.068 404.875 974.401 578.542 974.5 752C974.333 768.833 974.167 785.667 974 802.5C973.577 801.044 972.744 800.544 971.5 801C971.355 802.916 971.855 804.749 973 806.5C973.333 805.5 973.667 804.5 974 803.5C973.832 900.196 974.332 996.862 975.5 1093.5C972.949 1107.05 964.949 1115.38 951.5 1118.5C792.72 1117.02 634.053 1116.68 475.5 1117.5C477.518 1116.95 479.351 1115.95 481 1114.5C483 1117.17 485 1117.17 487 1114.5C487.333 1115.17 487.667 1115.83 488 1116.5C490.127 1116.04 492.46 1116.04 495 1116.5C497.379 1116.35 499.546 1115.68 501.5 1114.5C502.086 1114.71 502.586 1115.04 503 1115.5C503.456 1114.26 502.956 1113.42 501.5 1113C503.333 1112.5 504.5 1111.33 505 1109.5C505.149 1112.28 505.983 1112.78 507.5 1111C507.043 1110.59 506.709 1110.09 506.5 1109.5C492.882 1108.95 479.215 1108.28 465.5 1107.5C625.5 1107.67 785.5 1107.5 945.5 1107C946.833 1106.67 948.167 1106.33 949.5 1106C948.906 1105.54 948.239 1105.37 947.5 1105.5C953.5 1102.83 957.833 1098.5 960.5 1092.5C960.369 1093.24 960.536 1093.91 961 1094.5C961.333 1093.17 961.667 1091.83 962 1090.5C962.667 784.5 962.667 478.5 962 172.5C961.833 478.334 961.333 784 960.5 1089.5C960.5 784.5 960.5 479.5 960.5 174.5C960.667 152.497 960.5 130.497 960 108.5C958.073 103.572 954.573 100.406 949.5 99C786.833 98.3333 624.167 98.3333 461.5 99C455.577 100.754 451.911 104.588 450.5 110.5C450.112 126.853 449.112 144.353 447.5 163C448.167 163.333 448.833 163.667 449.5 164C449.136 201.015 449.136 238.348 449.5 276C449.493 310.978 448.827 345.811 447.5 380.5C447.846 381.696 448.346 381.696 449 380.5C449.5 400.497 449.667 420.497 449.5 440.5C448.5 440.167 447.833 439.5 447.5 438.5C446.348 420.574 446.181 402.574 447 384.5C447.333 385.5 447.667 386.5 448 387.5C448.167 386.833 448.333 386.167 448.5 385.5C447.187 362.921 446.521 340.255 446.5 317.5C446.51 295.019 447.177 272.685 448.5 250.5C448.154 249.304 447.654 249.304 447 250.5C446.833 238.167 446.667 225.833 446.5 213.5C446.51 200.776 447.177 188.276 448.5 176C447.178 164.892 446.511 153.559 446.5 142C446.667 130.833 446.833 119.667 447 108.5C447.448 106.776 448.282 106.109 449.5 106.5C448.465 104.872 448.465 103.205 449.5 101.5C452.891 98.2906 456.891 96.1239 461.5 95C625.833 94.3333 790.167 94.3333 954.5 95C956.871 95.7348 959.205 96.5682 961.5 97.5C962.107 97.3764 962.44 97.0431 962.5 96.5Z" fill="#1A1B16"/>
<path fill-rule="evenodd" clip-rule="evenodd" d="M908.5 437.5C778.668 438.5 648.668 438.833 518.5 438.5C526.902 437.82 535.402 437.154 544 436.5C665.29 437.316 786.79 437.649 908.5 437.5Z" fill="#000100"/>
<path fill-rule="evenodd" clip-rule="evenodd" d="M516.5 429.5C646.862 429.337 777.529 429.504 908.5 430C909.474 432.665 910.141 432.831 910.5 430.5C911.613 431.946 911.78 433.613 911 435.5C910.583 436.756 909.75 437.423 908.5 437.5C786.79 437.649 665.29 437.316 544 436.5C535.402 437.154 526.902 437.82 518.5 438.5C514.172 436.196 513.505 433.196 516.5 429.5Z" fill="#181A15"/>
<path fill-rule="evenodd" clip-rule="evenodd" d="M910.5 430.5C910.141 432.831 909.474 432.665 908.5 430C777.529 429.504 646.862 429.337 516.5 429.5C647.333 428.334 778.333 428.167 909.5 429C910.056 429.383 910.389 429.883 910.5 430.5Z" fill="black"/>
<path fill-rule="evenodd" clip-rule="evenodd" d="M889.5 212.5C904.273 211.946 912.607 218.946 914.5 233.5C913.911 243.934 908.577 250.767 898.5 254C893.375 254.539 888.375 254.205 883.5 253C856.167 279.667 828.833 306.333 801.5 333C804.062 344.875 799.729 353.208 788.5 358C779.645 360.255 772.145 358.088 766 351.5C763.965 348.439 762.799 345.105 762.5 341.5C739.127 333.709 715.794 325.709 692.5 317.5C681.5 328.167 670.5 328.167 659.5 317.5C629.62 332.69 599.786 348.024 570 363.5C569.094 383.085 559.261 390.251 540.5 385C532.068 379.385 528.902 371.552 531 361.5C537.819 346.782 548.319 343.282 562.5 351C563.833 351.667 565.167 351.667 566.5 351C596.167 335.833 625.833 320.667 655.5 305.5C660.386 288.223 671.053 283.056 687.5 290C692.717 294.266 695.383 299.766 695.5 306.5C718.33 313.576 740.997 321.243 763.5 329.5C771.613 317.958 781.78 315.625 794 322.5C821.304 296.864 848.304 270.864 875 244.5C870.312 229.365 875.145 218.699 889.5 212.5Z" fill="#C42618"/>
<path fill-rule="evenodd" clip-rule="evenodd" d="M960.5 174.5C790.5 174.5 620.5 174.5 450.5 174.5C450.5 153.167 450.5 131.833 450.5 110.5C451.911 104.588 455.577 100.754 461.5 99C624.167 98.3333 786.833 98.3333 949.5 99C954.573 100.406 958.073 103.572 960 108.5C960.5 130.497 960.667 152.497 960.5 174.5Z" fill="#C62618"/>
<path fill-rule="evenodd" clip-rule="evenodd" d="M975.5 118.5C975.5 443.5 975.5 768.5 975.5 1093.5C974.332 996.862 973.832 900.196 974 803.5C973.667 804.5 973.333 805.5 973 806.5C971.855 804.749 971.355 802.916 971.5 801C972.744 800.544 973.577 801.044 974 802.5C974.167 785.667 974.333 768.833 974.5 752C974.401 578.542 974.068 404.875 973.5 231C974.164 193.402 974.83 155.902 975.5 118.5Z" fill="#000100"/>
<path fill-rule="evenodd" clip-rule="evenodd" d="M225.5 389.5C250.816 421.412 283.982 438.745 325 441.5C340.952 440.877 349.786 432.71 351.5 417C352.535 407.398 348.868 400.398 340.5 396C341.094 395.536 341.761 395.369 342.5 395.5C349.514 397.894 356.514 400.394 363.5 403C372.544 407.906 381.877 412.239 391.5 416C409.831 421.717 427.497 428.883 444.5 437.5C445.391 438.11 446.391 438.443 447.5 438.5C447.833 439.5 448.5 440.167 449.5 440.5C449.5 441.167 449.833 441.5 450.5 441.5C459.269 448.437 466.436 456.77 472 466.5C481.767 486.034 490.434 506.034 498 526.5C506.581 541.997 515.414 557.33 524.5 572.5C523.148 573.524 521.815 574.524 520.5 575.5C505.022 585.743 489.689 596.243 474.5 607C469.102 610.698 463.435 613.864 457.5 616.5C460.261 582.811 460.095 549.144 457 515.5C455.574 505.528 453.074 495.861 449.5 486.5C449.167 487.167 448.833 487.833 448.5 488.5C452.843 507.079 455.176 525.912 455.5 545C454.357 569.543 452.691 594.043 450.5 618.5C450.049 628.829 449.716 639.162 449.5 649.5C448.788 656.143 448.454 662.809 448.5 669.5C448.033 679.664 447.366 689.664 446.5 699.5C445.45 700.692 444.95 704.025 445 709.5C444.645 729.171 444.145 748.837 443.5 768.5C444.149 788.496 444.649 808.496 445 828.5C445.043 832.95 445.543 835.95 446.5 837.5C447.266 846.855 448.266 856.188 449.5 865.5C450.527 871.66 450.527 877.66 449.5 883.5C421.498 889.686 393.165 893.686 364.5 895.5C335.665 895.766 306.665 895.266 277.5 894C261.289 893.425 245.122 892.259 229 890.5C227.615 890.514 226.449 890.848 225.5 891.5C208.027 888.465 190.694 884.798 173.5 880.5C172.071 879.766 171.071 878.599 170.5 877C171.406 874.209 172.073 871.376 172.5 868.5C182.406 866.046 192.406 865.88 202.5 868C212.49 870.659 222.49 873.326 232.5 876C237.167 876.667 241.833 876.667 246.5 876C248.444 873.847 248.944 871.347 248 868.5C246.167 866.667 244.333 864.833 242.5 863C232.347 857.588 222.014 852.755 211.5 848.5C211.5 848.167 211.5 847.833 211.5 847.5C215.693 847.953 219.693 849.119 223.5 851C231.221 855.527 239.221 859.527 247.5 863C253.119 864.299 258.786 864.632 264.5 864C265.381 863.292 266.047 862.458 266.5 861.5C270.068 857.665 270.402 853.499 267.5 849C263.931 847.058 260.598 844.892 257.5 842.5C261.24 843.719 264.907 845.219 268.5 847C270.833 847.667 273.167 847.667 275.5 847C276.056 846.617 276.389 846.117 276.5 845.5C282.712 841.157 283.046 836.324 277.5 831C264.093 822.601 250.426 814.601 236.5 807C228.447 804.817 220.447 802.984 212.5 801.5C214.5 801.5 216.5 801.5 218.5 801.5C224.493 800.835 230.493 800.168 236.5 799.5C243.403 800.992 250.403 801.659 257.5 801.5C263.245 801.946 268.579 800.946 273.5 798.5C275.89 798.315 276.89 796.982 276.5 794.5C276.594 792.088 275.594 790.255 273.5 789C260.596 784.588 247.929 779.588 235.5 774C232.833 773.333 230.167 773.333 227.5 774C213.262 777.976 198.928 781.476 184.5 784.5C182.068 757.377 178.568 730.377 174 703.5C167.773 671.928 160.607 640.595 152.5 609.5C156.911 605.592 161.245 601.425 165.5 597C172.833 594 180.167 591 187.5 588C180.5 589 173.5 590 166.5 591C174.327 580.517 179.827 569.017 183 556.5C170.705 572.757 160.205 590.091 151.5 608.5C147.526 615.103 143.526 621.77 139.5 628.5C137.604 629.466 135.604 629.799 133.5 629.5C95.9121 623.708 63.9121 607.374 37.5 580.5C35.5159 578.54 34.6826 576.207 35 573.5C44 555.833 53 538.167 62 520.5C68.556 503.501 75.8893 486.835 84 470.5C94.3251 452.508 108.825 439.008 127.5 430C155.964 419.102 183.964 407.102 211.5 394C215.239 389.283 219.906 387.783 225.5 389.5Z" fill="#C62719"/>
<path fill-rule="evenodd" clip-rule="evenodd" d="M150.5 451.5C161.191 460.859 168.357 472.525 172 486.5C176.808 501.49 178.808 516.823 178 532.5C176.33 502.758 167.163 475.758 150.5 451.5Z" fill="#14120C"/>
<path fill-rule="evenodd" clip-rule="evenodd" d="M339.5 407.5C340.833 412.196 340.333 416.863 338 421.5C338.549 416.895 339.049 412.229 339.5 407.5Z" fill="#0D0907"/>
<path fill-rule="evenodd" clip-rule="evenodd" d="M457.5 616.5C455.299 617.566 452.965 618.233 450.5 618.5C452.691 594.043 454.357 569.543 455.5 545C455.176 525.912 452.843 507.079 448.5 488.5C448.833 487.833 449.167 487.167 449.5 486.5C453.074 495.861 455.574 505.528 457 515.5C460.095 549.144 460.261 582.811 457.5 616.5Z" fill="#15140F"/>
<path fill-rule="evenodd" clip-rule="evenodd" d="M152.5 609.5C152.5 608.833 152.167 608.5 151.5 608.5C160.205 590.091 170.705 572.757 183 556.5C179.827 569.017 174.327 580.517 166.5 591C173.5 590 180.5 589 187.5 588C180.167 591 172.833 594 165.5 597C161.245 601.425 156.911 605.592 152.5 609.5Z" fill="#151410"/>
<path fill-rule="evenodd" clip-rule="evenodd" d="M826.5 604.5C824.025 604.747 824.025 605.413 826.5 606.5C843.03 605.172 859.53 605.172 876 606.5C879.045 606.208 881.212 604.708 882.5 602C881.426 601.261 880.759 600.261 880.5 599C881.161 596.536 881.661 594.036 882 591.5C882.626 593.991 883.459 593.991 884.5 591.5C885.086 591.709 885.586 592.043 886 592.5C886.499 596.821 886.666 601.154 886.5 605.5C890.62 605.749 894.62 605.749 898.5 605.5C899.671 607.169 901.004 608.669 902.5 610C901.266 612.338 901.932 614.171 904.5 615.5C905.258 614.189 906.258 613.689 907.5 614C904.816 617.371 904.15 621.037 905.5 625C904.833 625.333 904.167 625.667 903.5 626C904.793 626.49 906.127 626.657 907.5 626.5C907.874 631.297 907.208 631.964 905.5 628.5C904.675 627.614 903.675 627.281 902.5 627.5C902.058 631.847 901.225 632.18 900 628.5C898.513 629.253 898.346 630.086 899.5 631C898.262 630.923 897.262 631.089 896.5 631.5C900.459 632.327 904.459 632.827 908.5 633C870.5 633.667 832.5 633.667 794.5 633C798.447 632.291 802.114 631.791 805.5 631.5C805.5 630.167 805.5 628.833 805.5 627.5C806.376 626.749 807.376 626.249 808.5 626C806.901 624.934 805.901 623.434 805.5 621.5C806.262 621.089 807.262 620.923 808.5 621C808.167 620.667 807.833 620.333 807.5 620C808.5 619.667 809.5 619.333 810.5 619C809.542 617.853 809.875 616.853 811.5 616C814.667 615.499 817.001 613.833 818.5 611C817.552 610.517 816.552 610.351 815.5 610.5C815.5 609.5 815.5 608.5 815.5 607.5C814.127 607.657 812.793 607.49 811.5 607C811.833 606.667 812.167 606.333 812.5 606C809.183 605.502 805.85 605.335 802.5 605.5C802.281 606.675 802.614 607.675 803.5 608.5C804.396 607.494 805.062 607.494 805.5 608.5C804.335 609.584 803.002 610.417 801.5 611C803.569 611.324 803.902 612.158 802.5 613.5C802.977 614.931 803.643 616.264 804.5 617.5C805.565 614.216 806.565 610.55 807.5 606.5C808.251 607.376 808.751 608.376 809 609.5C809.333 609.167 809.667 608.833 810 608.5C810.273 610.101 810.773 611.601 811.5 613C811 613.5 810.5 614 810 614.5C809.751 613.376 809.251 612.376 808.5 611.5C807.55 613.34 806.55 615.674 805.5 618.5C804.5 619 803.5 619.5 802.5 620C802.833 620.333 803.167 620.667 803.5 621C801.567 621.251 799.734 621.751 798 622.5C797.544 623.744 798.044 624.577 799.5 625C798.833 625.333 798.167 625.667 797.5 626C799.516 626.899 801.183 628.233 802.5 630C799.449 628.93 796.282 627.763 793 626.5C791.951 628.107 790.451 628.773 788.5 628.5C787.132 628.133 786.966 624.8 788 618.5C788.619 615.968 789.619 613.635 791 611.5C793.33 614.182 793.83 613.849 792.5 610.5C792.977 609.522 793.643 608.689 794.5 608C794.272 607.601 793.938 607.435 793.5 607.5C794.842 606.207 796.509 605.374 798.5 605C804.825 604.5 811.158 604.334 817.5 604.5C817.334 600.154 817.501 595.821 818 591.5C820.667 588.833 823.333 588.833 826 591.5C826.499 595.821 826.666 600.154 826.5 604.5Z" fill="#161712"/>
<path fill-rule="evenodd" clip-rule="evenodd" d="M151.5 608.5C152.167 608.5 152.5 608.833 152.5 609.5C160.607 640.595 167.773 671.928 174 703.5C178.568 730.377 182.068 757.377 184.5 784.5C173.837 789.494 163.837 795.494 154.5 802.5C153.833 801.5 153.167 800.5 152.5 799.5C141.644 785.453 132.144 770.453 124 754.5C118.031 737.965 112.364 721.298 107 704.5C103.917 696.664 100.084 689.33 95.5 682.5C95.5 681.167 95.5 679.833 95.5 678.5C108.89 662.718 121.556 646.384 133.5 629.5C135.604 629.799 137.604 629.466 139.5 628.5C143.526 621.77 147.526 615.103 151.5 608.5Z" fill="#FCFAF6"/>
<path fill-rule="evenodd" clip-rule="evenodd" d="M735.5 503.5C734.903 503.735 734.57 504.235 734.5 505C737.977 515.383 736.977 525.217 731.5 534.5C732.355 535.293 733.189 534.96 734 533.5C738.884 524.508 739.717 515.175 736.5 505.5C747.418 504.271 758.085 501.771 768.5 498C788.167 489.667 807.833 481.333 827.5 473C830.303 472.245 832.97 472.578 835.5 474C836.337 475.011 836.67 476.178 836.5 477.5C834.073 477.523 831.74 478.023 829.5 479C812.754 488.735 795.754 498.068 778.5 507C775.774 507.182 773.107 507.682 770.5 508.5C778.849 518.526 785.682 529.526 791 541.5C803.098 534.871 814.598 527.371 825.5 519C828.971 516.928 832.638 515.428 836.5 514.5C836.5 513.5 836.5 512.5 836.5 511.5C832.895 511.799 829.561 512.965 826.5 515C815.242 523.421 803.576 531.254 791.5 538.5C790.225 534.343 788.558 530.343 786.5 526.5C804.919 513.955 824.252 502.955 844.5 493.5C841.81 492.398 839.143 492.564 836.5 494C818.763 502.948 801.596 512.782 785 523.5C782.361 519.361 779.528 515.361 776.5 511.5C791.328 503.587 805.995 495.42 820.5 487C825.953 483.938 831.62 481.438 837.5 479.5C840.314 477.904 843.314 477.404 846.5 478C854.007 483.383 854.34 489.217 847.5 495.5C848.585 498.773 848.752 502.106 848 505.5C845.37 509.132 842.37 512.465 839 515.5C838.667 518.167 838.333 520.833 838 523.5C832.54 531.294 826.04 538.127 818.5 544C788.661 565.75 755.661 580.75 719.5 589C692.268 611.893 665.935 635.893 640.5 661C607.749 689.129 570.582 709.295 529 721.5C524.611 721.148 520.444 719.982 516.5 718C506.035 709.203 495.868 700.037 486 690.5C473.597 676.937 461.43 663.27 449.5 649.5C449.716 639.162 450.049 628.829 450.5 618.5C452.965 618.233 455.299 617.566 457.5 616.5C463.435 613.864 469.102 610.698 474.5 607C489.689 596.243 505.022 585.743 520.5 575.5C527.773 588.38 534.773 601.38 541.5 614.5C533.336 622.173 526.003 630.673 519.5 640C520.167 640.667 520.833 640.667 521.5 640C528.005 632.329 535.005 625.162 542.5 618.5C549.152 614.171 556.152 610.338 563.5 607C609.756 592.625 651.923 570.792 690 541.5C690.636 528.592 694.302 516.592 701 505.5C711.241 495.255 722.074 485.755 733.5 477C738.544 471.624 743.211 465.958 747.5 460C749.5 459.333 751.5 459.333 753.5 460C756.987 464.427 757.487 469.26 755 474.5C749.481 484.886 742.981 494.552 735.5 503.5Z" fill="#EA9A6E"/>
<path fill-rule="evenodd" clip-rule="evenodd" d="M541.5 614.5C541.833 615.833 542.167 617.167 542.5 618.5C535.005 625.162 528.005 632.329 521.5 640C520.833 640.667 520.167 640.667 519.5 640C526.003 630.673 533.336 622.173 541.5 614.5Z" fill="#1B1512"/>
<path fill-rule="evenodd" clip-rule="evenodd" d="M729.5 539.5C740.387 538.8 751.054 539.967 761.5 543C751.575 541.724 741.575 541.391 731.5 542C726.293 543.27 721.293 545.104 716.5 547.5C715.707 546.645 716.04 545.811 717.5 545C721.475 542.854 725.475 541.02 729.5 539.5Z" fill="#100B09"/>
<path fill-rule="evenodd" clip-rule="evenodd" d="M836.5 477.5C837.338 477.842 837.672 478.508 837.5 479.5C831.62 481.438 825.953 483.938 820.5 487C805.995 495.42 791.328 503.587 776.5 511.5C779.528 515.361 782.361 519.361 785 523.5C801.596 512.782 818.763 502.948 836.5 494C839.143 492.564 841.81 492.398 844.5 493.5C824.252 502.955 804.919 513.955 786.5 526.5C788.558 530.343 790.225 534.343 791.5 538.5C803.576 531.254 815.242 523.421 826.5 515C829.561 512.965 832.895 511.799 836.5 511.5C836.5 512.5 836.5 513.5 836.5 514.5C832.638 515.428 828.971 516.928 825.5 519C814.598 527.371 803.098 534.871 791 541.5C785.682 529.526 778.849 518.526 770.5 508.5C773.107 507.682 775.774 507.182 778.5 507C795.754 498.068 812.754 488.735 829.5 479C831.74 478.023 834.073 477.523 836.5 477.5Z" fill="#130E0B"/>
<path fill-rule="evenodd" clip-rule="evenodd" d="M735.5 503.5C735.833 504.167 736.167 504.833 736.5 505.5C739.717 515.175 738.884 524.508 734 533.5C733.189 534.96 732.355 535.293 731.5 534.5C736.977 525.217 737.977 515.383 734.5 505C734.57 504.235 734.903 503.735 735.5 503.5Z" fill="#1C1410"/>
<path fill-rule="evenodd" clip-rule="evenodd" d="M916.5 726.5C915.815 720.433 915.149 714.266 914.5 708C915.345 692.058 915.679 675.892 915.5 659.5C915.648 656.728 914.981 654.228 913.5 652C914.792 649.243 913.792 647.576 910.5 647C911.68 642.403 911.68 638.236 910.5 634.5C909.667 665.828 909.167 697.161 909 728.5C908.581 729.672 907.915 730.672 907 731.5C906.601 731.272 906.435 730.938 906.5 730.5C906.987 729.527 907.487 728.527 908 727.5C908.5 696.835 908.667 666.168 908.5 635.5C870.5 635.5 832.5 635.5 794.5 635.5C794.5 666.167 794.5 696.833 794.5 727.5C793.759 720.978 793.093 713.145 792.5 704C793.181 684.925 793.514 665.592 793.5 646C791.519 645.395 791.185 644.395 792.5 643C791.551 642.383 790.718 642.549 790 643.5C790 642.167 790 640.833 790 639.5C789.586 639.957 789.086 640.291 788.5 640.5C787.749 671.678 787.749 703.012 788.5 734.5C787.91 733.234 787.41 731.901 787 730.5C786.333 692.5 786.333 654.5 787 616.5C787.84 612.5 790.006 609.5 793.5 607.5C793.938 607.435 794.272 607.601 794.5 608C793.643 608.689 792.977 609.522 792.5 610.5C793.83 613.849 793.33 614.182 791 611.5C789.619 613.635 788.619 615.968 788 618.5C786.966 624.8 787.132 628.133 788.5 628.5C790.451 628.773 791.951 628.107 793 626.5C796.282 627.763 799.449 628.93 802.5 630C801.183 628.233 799.516 626.899 797.5 626C798.167 625.667 798.833 625.333 799.5 625C798.044 624.577 797.544 623.744 798 622.5C799.734 621.751 801.567 621.251 803.5 621C803.167 620.667 802.833 620.333 802.5 620C803.5 619.5 804.5 619 805.5 618.5C806.55 615.674 807.55 613.34 808.5 611.5C809.251 612.376 809.751 613.376 810 614.5C810.5 614 811 613.5 811.5 613C810.773 611.601 810.273 610.101 810 608.5C809.667 608.833 809.333 609.167 809 609.5C808.751 608.376 808.251 607.376 807.5 606.5C806.565 610.55 805.565 614.216 804.5 617.5C803.643 616.264 802.977 614.931 802.5 613.5C803.902 612.158 803.569 611.324 801.5 611C803.002 610.417 804.335 609.584 805.5 608.5C805.062 607.494 804.396 607.494 803.5 608.5C802.614 607.675 802.281 606.675 802.5 605.5C805.85 605.335 809.183 605.502 812.5 606C812.167 606.333 811.833 606.667 811.5 607C812.793 607.49 814.127 607.657 815.5 607.5C815.5 608.5 815.5 609.5 815.5 610.5C816.552 610.351 817.552 610.517 818.5 611C817.001 613.833 814.667 615.499 811.5 616C809.875 616.853 809.542 617.853 810.5 619C809.5 619.333 808.5 619.667 807.5 620C807.833 620.333 808.167 620.667 808.5 621C807.262 620.923 806.262 621.089 805.5 621.5C805.901 623.434 806.901 624.934 808.5 626C807.376 626.249 806.376 626.749 805.5 627.5C805.5 628.833 805.5 630.167 805.5 631.5C802.114 631.791 798.447 632.291 794.5 633C832.5 633.667 870.5 633.667 908.5 633C904.459 632.827 900.459 632.327 896.5 631.5C897.262 631.089 898.262 630.923 899.5 631C898.346 630.086 898.513 629.253 900 628.5C901.225 632.18 902.058 631.847 902.5 627.5C903.675 627.281 904.675 627.614 905.5 628.5C907.208 631.964 907.874 631.297 907.5 626.5C906.127 626.657 904.793 626.49 903.5 626C904.167 625.667 904.833 625.333 905.5 625C904.15 621.037 904.816 617.371 907.5 614C906.258 613.689 905.258 614.189 904.5 615.5C901.932 614.171 901.266 612.338 902.5 610C901.004 608.669 899.671 607.169 898.5 605.5C894.62 605.749 890.62 605.749 886.5 605.5C886.666 601.154 886.499 596.821 886 592.5C885.586 592.043 885.086 591.709 884.5 591.5C883.459 593.991 882.626 593.991 882 591.5C881.661 594.036 881.161 596.536 880.5 599C880.759 600.261 881.426 601.261 882.5 602C881.212 604.708 879.045 606.208 876 606.5C859.53 605.172 843.03 605.172 826.5 606.5C824.025 605.413 824.025 604.747 826.5 604.5C844.167 604.5 861.833 604.5 879.5 604.5C879.334 600.154 879.501 595.821 880 591.5C882.333 588.833 884.667 588.833 887 591.5C887.499 595.821 887.666 600.154 887.5 604.5C893.176 604.334 898.843 604.501 904.5 605C910.767 606.934 914.601 611.1 916 617.5C916.5 653.832 916.667 690.165 916.5 726.5Z" fill="#141512"/>
<path fill-rule="evenodd" clip-rule="evenodd" d="M906.5 730.5C904.567 732.596 902.233 734.096 899.5 735C867.5 735.667 835.5 735.667 803.5 735C799.061 734.049 796.061 731.549 794.5 727.5C794.5 696.833 794.5 666.167 794.5 635.5C832.5 635.5 870.5 635.5 908.5 635.5C908.667 666.168 908.5 696.835 908 727.5C907.487 728.527 906.987 729.527 906.5 730.5Z" fill="#FBF9F6"/>
<path fill-rule="evenodd" clip-rule="evenodd" d="M960.5 1092.5C960.5 1091.5 960.5 1090.5 960.5 1089.5C961.333 784 961.833 478.334 962 172.5C962.667 478.5 962.667 784.5 962 1090.5C961.667 1091.83 961.333 1093.17 961 1094.5C960.536 1093.91 960.369 1093.24 960.5 1092.5Z" fill="#000100"/>
<path fill-rule="evenodd" clip-rule="evenodd" d="M95.5 678.5C95.5 679.833 95.5 681.167 95.5 682.5C85.9363 674.777 75.9363 667.61 65.5 661C67.2889 660.48 68.9556 660.813 70.5 662C79.2415 667.027 87.5748 672.527 95.5 678.5Z" fill="#150F0C"/>
<path fill-rule="evenodd" clip-rule="evenodd" d="M446.5 699.5C445.194 745.499 445.194 791.499 446.5 837.5C445.543 835.95 445.043 832.95 445 828.5C444.649 808.496 444.149 788.496 443.5 768.5C444.145 748.837 444.645 729.171 445 709.5C444.95 704.025 445.45 700.692 446.5 699.5Z" fill="#EC2B1B"/>
<path fill-rule="evenodd" clip-rule="evenodd" d="M916.5 726.5C915.809 736.059 910.809 741.892 901.5 744C868.167 744.667 834.833 744.667 801.5 744C795.682 742.768 791.349 739.601 788.5 734.5C787.749 703.012 787.749 671.678 788.5 640.5C789.086 640.291 789.586 639.957 790 639.5C790 640.833 790 642.167 790 643.5C790.718 642.549 791.551 642.383 792.5 643C791.185 644.395 791.519 645.395 793.5 646C793.514 665.592 793.181 684.925 792.5 704C793.093 713.145 793.759 720.978 794.5 727.5C796.061 731.549 799.061 734.049 803.5 735C835.5 735.667 867.5 735.667 899.5 735C902.233 734.096 904.567 732.596 906.5 730.5C906.435 730.938 906.601 731.272 907 731.5C907.915 730.672 908.581 729.672 909 728.5C909.167 697.161 909.667 665.828 910.5 634.5C911.68 638.236 911.68 642.403 910.5 647C913.792 647.576 914.792 649.243 913.5 652C914.981 654.228 915.648 656.728 915.5 659.5C915.679 675.892 915.345 692.058 914.5 708C915.149 714.266 915.815 720.433 916.5 726.5Z" fill="#151712"/>
<path fill-rule="evenodd" clip-rule="evenodd" d="M862.5 696.5C869.175 696.334 875.842 696.5 882.5 697C883.308 697.308 883.975 697.808 884.5 698.5C885.628 705.116 885.795 711.782 885 718.5C884.626 719.416 884.126 720.25 883.5 721C876.5 721.667 869.5 721.667 862.5 721C862 720.5 861.5 720 861 719.5C860.333 712.5 860.333 705.5 861 698.5C861.717 697.956 862.217 697.289 862.5 696.5Z" fill="#C42617"/>
<path fill-rule="evenodd" clip-rule="evenodd" d="M823.5 696.5C830.175 696.334 836.842 696.5 843.5 697C844.308 697.308 844.975 697.808 845.5 698.5C846.63 705.45 846.797 712.45 846 719.5C845.5 720 845 720.5 844.5 721C837.5 721.667 830.5 721.667 823.5 721C823 720.5 822.5 720 822 719.5C821.333 712.5 821.333 705.5 822 698.5C822.717 697.956 823.217 697.289 823.5 696.5Z" fill="#C32516"/>
<path fill-rule="evenodd" clip-rule="evenodd" d="M862.5 659.5C869.508 659.334 876.508 659.5 883.5 660C884 660.5 884.5 661 885 661.5C885.667 668.167 885.667 674.833 885 681.5C884.692 682.308 884.192 682.975 883.5 683.5C876.55 684.63 869.55 684.797 862.5 684C862 683.5 861.5 683 861 682.5C860.333 675.5 860.333 668.5 861 661.5C861.717 660.956 862.217 660.289 862.5 659.5Z" fill="#C32415"/>
<path fill-rule="evenodd" clip-rule="evenodd" d="M822.5 659.5C829.841 659.334 837.174 659.5 844.5 660C845 660.5 845.5 661 846 661.5C846.667 668.167 846.667 674.833 846 681.5C845.692 682.308 845.192 682.975 844.5 683.5C837.55 684.63 830.55 684.797 823.5 684C823 683.5 822.5 683 822 682.5C821.202 674.754 821.369 667.087 822.5 659.5Z" fill="#C52819"/>
<path fill-rule="evenodd" clip-rule="evenodd" d="M448.5 669.5C449.499 734.665 449.832 799.998 449.5 865.5C448.266 856.188 447.266 846.855 446.5 837.5C445.194 791.499 445.194 745.499 446.5 699.5C447.366 689.664 448.033 679.664 448.5 669.5Z" fill="#14120D"/>
<path fill-rule="evenodd" clip-rule="evenodd" d="M906.5 797.5C903.359 798.321 900.025 798.821 896.5 799C897.654 799.914 897.487 800.747 896 801.5C895.517 800.552 895.351 799.552 895.5 798.5C804.499 798.333 713.499 798.5 622.5 799C619.277 799.938 617.944 802.105 618.5 805.5C616.933 802.526 617.6 800.026 620.5 798C715.833 797.5 811.166 797.333 906.5 797.5Z" fill="#000100"/>
<path fill-rule="evenodd" clip-rule="evenodd" d="M257.5 801.5C250.403 801.659 243.403 800.992 236.5 799.5C230.493 800.168 224.493 800.835 218.5 801.5C214.277 800.098 209.944 799.765 205.5 800.5C202.679 800.461 200.012 799.795 197.5 798.5C198.333 798.167 199.167 797.833 200 797.5C207.985 798.768 215.819 798.768 223.5 797.5C226.508 797.299 229.508 796.966 232.5 796.5C240.931 798.364 249.264 800.031 257.5 801.5Z" fill="#15110D"/>
<path fill-rule="evenodd" clip-rule="evenodd" d="M273.5 798.5C268.579 800.946 263.245 801.946 257.5 801.5C249.264 800.031 240.931 798.364 232.5 796.5C229.508 796.966 226.508 797.299 223.5 797.5C222.448 797.649 221.448 797.483 220.5 797C230.705 794.606 240.705 795.272 250.5 799C258.202 799.731 265.869 799.564 273.5 798.5Z" fill="#E9BA86"/>
<path fill-rule="evenodd" clip-rule="evenodd" d="M218.5 801.5C216.5 801.5 214.5 801.5 212.5 801.5C209.941 801.802 207.607 801.468 205.5 800.5C209.944 799.765 214.277 800.098 218.5 801.5Z" fill="#84160D"/>
<path fill-rule="evenodd" clip-rule="evenodd" d="M906.5 797.5C910.547 799.935 911.214 802.935 908.5 806.5C864.898 806.801 821.065 806.468 777 805.5C763.863 806.175 750.697 806.842 737.5 807.5C706.637 806.837 675.804 806.17 645 805.5C636.402 806.154 627.902 806.82 619.5 807.5C618.662 807.158 618.328 806.492 618.5 805.5C617.944 802.105 619.277 799.938 622.5 799C713.499 798.5 804.499 798.333 895.5 798.5C895.351 799.552 895.517 800.552 896 801.5C897.487 800.747 897.654 799.914 896.5 799C900.025 798.821 903.359 798.321 906.5 797.5Z" fill="#171914"/>
<path fill-rule="evenodd" clip-rule="evenodd" d="M908.5 806.5C908.389 807.117 908.056 807.617 907.5 808C811.43 808.831 715.43 808.664 619.5 807.5C627.902 806.82 636.402 806.154 645 805.5C675.804 806.17 706.637 806.837 737.5 807.5C750.697 806.842 763.863 806.175 777 805.5C821.065 806.468 864.898 806.801 908.5 806.5Z" fill="#030402"/>
<path fill-rule="evenodd" clip-rule="evenodd" d="M579.5 773.5C583.95 773.142 587.45 774.808 590 778.5C590.635 780.635 590.301 782.635 589 784.5C574.533 800.635 559.7 816.468 544.5 832C542.029 832.706 539.695 832.373 537.5 831C532.667 826.167 527.833 821.333 523 816.5C520.523 812.22 521.356 808.72 525.5 806C527.5 805.333 529.5 805.333 531.5 806C534.5 809 537.5 812 540.5 815C541.167 815.667 541.833 815.667 542.5 815C555.098 801.244 567.432 787.411 579.5 773.5Z" fill="#C32618"/>
<path fill-rule="evenodd" clip-rule="evenodd" d="M37.5 580.5C63.9121 607.374 95.9121 623.708 133.5 629.5C121.556 646.384 108.89 662.718 95.5 678.5C87.5748 672.527 79.2415 667.027 70.5 662C68.9556 660.813 67.2889 660.48 65.5 661C75.9363 667.61 85.9363 674.777 95.5 682.5C100.084 689.33 103.917 696.664 107 704.5C112.364 721.298 118.031 737.965 124 754.5C132.144 770.453 141.644 785.453 152.5 799.5C149.499 804.129 145.999 808.463 142 812.5C141.018 813.759 140.685 815.092 141 816.5C145.031 811.304 149.531 806.637 154.5 802.5C163.837 795.494 173.837 789.494 184.5 784.5C198.928 781.476 213.262 777.976 227.5 774C230.167 773.333 232.833 773.333 235.5 774C247.929 779.588 260.596 784.588 273.5 789C275.594 790.255 276.594 792.088 276.5 794.5C276.89 796.982 275.89 798.315 273.5 798.5C265.869 799.564 258.202 799.731 250.5 799C240.705 795.272 230.705 794.606 220.5 797C221.448 797.483 222.448 797.649 223.5 797.5C215.819 798.768 207.985 798.768 200 797.5C199.167 797.833 198.333 798.167 197.5 798.5C200.012 799.795 202.679 800.461 205.5 800.5C207.607 801.468 209.941 801.802 212.5 801.5C220.447 802.984 228.447 804.817 236.5 807C250.426 814.601 264.093 822.601 277.5 831C283.046 836.324 282.712 841.157 276.5 845.5C273.813 845.664 271.146 845.497 268.5 845C264.952 843.059 261.286 841.393 257.5 840C248.135 834.653 238.801 829.319 229.5 824C219.066 821.447 208.566 819.28 198 817.5C195.759 817.68 195.259 818.513 196.5 820C198.813 820.662 201.146 821.162 203.5 821.5C206.946 822.687 210.613 823.354 214.5 823.5C218.84 824.502 223.174 825.669 227.5 827C237.428 832.463 247.428 837.63 257.5 842.5C260.598 844.892 263.931 847.058 267.5 849C270.402 853.499 270.068 857.665 266.5 861.5C260.798 862.931 255.131 862.764 249.5 861C240.374 856.604 231.374 851.937 222.5 847C212.521 844.393 202.521 841.893 192.5 839.5C190.729 840.035 190.396 840.869 191.5 842C194.154 842.941 196.821 843.774 199.5 844.5C203.098 846.74 207.098 848.074 211.5 848.5C222.014 852.755 232.347 857.588 242.5 863C244.333 864.833 246.167 866.667 248 868.5C248.944 871.347 248.444 873.847 246.5 876C241.833 876.667 237.167 876.667 232.5 876C222.49 873.326 212.49 870.659 202.5 868C192.406 865.88 182.406 866.046 172.5 868.5C149.007 874.009 131.507 866.009 120 844.5C105.362 830.863 91.0287 816.863 77 802.5C48.7269 771.975 25.3935 737.975 7.00002 700.5C3.60129 686.453 3.93463 672.453 8.00002 658.5C16.9577 632.121 26.791 606.121 37.5 580.5Z" fill="#EA996D"/>
<path fill-rule="evenodd" clip-rule="evenodd" d="M214.5 823.5C210.613 823.354 206.946 822.687 203.5 821.5C207.361 820.893 211.028 821.56 214.5 823.5Z" fill="#972618"/>
<path fill-rule="evenodd" clip-rule="evenodd" d="M152.5 799.5C153.167 800.5 153.833 801.5 154.5 802.5C149.531 806.637 145.031 811.304 141 816.5C140.685 815.092 141.018 813.759 142 812.5C145.999 808.463 149.499 804.129 152.5 799.5Z" fill="#19130F"/>
<path fill-rule="evenodd" clip-rule="evenodd" d="M276.5 845.5C276.389 846.117 276.056 846.617 275.5 847C273.167 847.667 270.833 847.667 268.5 847C264.907 845.219 261.24 843.719 257.5 842.5C247.428 837.63 237.428 832.463 227.5 827C223.174 825.669 218.84 824.502 214.5 823.5C211.028 821.56 207.361 820.893 203.5 821.5C201.146 821.162 198.813 820.662 196.5 820C195.259 818.513 195.759 817.68 198 817.5C208.566 819.28 219.066 821.447 229.5 824C238.801 829.319 248.135 834.653 257.5 840C261.286 841.393 264.952 843.059 268.5 845C271.146 845.497 273.813 845.664 276.5 845.5Z" fill="#15100B"/>
<path fill-rule="evenodd" clip-rule="evenodd" d="M514.5 776.5C530.837 776.333 547.17 776.5 563.5 777C566.525 777.133 569.192 778.133 571.5 780C569.65 782.018 567.65 783.851 565.5 785.5C557.212 784.848 548.879 784.514 540.5 784.5C514.516 777.651 505.182 787.151 512.5 813C512.667 821.5 512.833 830 513 838.5C513.5 839 514 839.5 514.5 840C531.075 841.637 547.742 841.97 564.5 841C565.931 840.535 567.097 839.701 568 838.5C568.333 828.5 568.667 818.5 569 808.5C571.706 806.129 574.039 803.463 576 800.5C576.667 813.167 576.667 825.833 576 838.5C574.387 844.447 570.553 847.947 564.5 849C548.5 849.667 532.5 849.667 516.5 849C509.964 847.797 506.13 843.964 505 837.5C504.333 820.833 504.333 804.167 505 787.5C506.338 782.102 509.504 778.435 514.5 776.5Z" fill="#131511"/>
<path fill-rule="evenodd" clip-rule="evenodd" d="M199.5 844.5C203.982 844.034 207.982 845.034 211.5 847.5C211.5 847.833 211.5 848.167 211.5 848.5C207.098 848.074 203.098 846.74 199.5 844.5Z" fill="#831D15"/>
<path fill-rule="evenodd" clip-rule="evenodd" d="M266.5 861.5C266.047 862.458 265.381 863.292 264.5 864C258.786 864.632 253.119 864.299 247.5 863C239.221 859.527 231.221 855.527 223.5 851C219.693 849.119 215.693 847.953 211.5 847.5C207.982 845.034 203.982 844.034 199.5 844.5C196.821 843.774 194.154 842.941 191.5 842C190.396 840.869 190.729 840.035 192.5 839.5C202.521 841.893 212.521 844.393 222.5 847C231.374 851.937 240.374 856.604 249.5 861C255.131 862.764 260.798 862.931 266.5 861.5Z" fill="#12110D"/>
<path fill-rule="evenodd" clip-rule="evenodd" d="M620.5 912.5C617.483 910.385 616.816 907.718 618.5 904.5C619.078 905.547 619.744 905.38 620.5 904C627.833 903.833 635.167 903.667 642.5 903.5C730.36 903.398 818.36 903.565 906.5 904C909.167 906.333 909.167 908.667 906.5 911C810.999 911.167 715.666 911.667 620.5 912.5Z" fill="#191C17"/>
<path fill-rule="evenodd" clip-rule="evenodd" d="M620.5 912.5C715.666 911.667 810.999 911.167 906.5 911C909.167 908.667 909.167 906.333 906.5 904C818.36 903.565 730.36 903.398 642.5 903.5C635.167 903.667 627.833 903.833 620.5 904C619.744 905.38 619.078 905.547 618.5 904.5C618.611 903.883 618.944 903.383 619.5 903C715.5 902.333 811.5 902.333 907.5 903C910.167 906 910.167 909 907.5 912C811.834 912.5 716.167 912.667 620.5 912.5Z" fill="black"/>
<path fill-rule="evenodd" clip-rule="evenodd" d="M578.5 879.501C584.979 877.785 588.979 880.118 590.5 886.501C576.12 904.055 560.786 920.889 544.5 937.001C542.029 937.707 539.695 937.374 537.5 936.001C532.667 931.168 527.833 926.334 523 921.501C520.657 913.843 523.49 910.343 531.5 911.001C534.5 914.001 537.5 917.001 540.5 920.001C541.167 920.668 541.833 920.668 542.5 920.001C554.708 906.63 566.708 893.13 578.5 879.501Z" fill="#C32617"/>
<path fill-rule="evenodd" clip-rule="evenodd" d="M516.5 881.5C532.17 881.333 547.837 881.5 563.5 882C566.376 882.438 569.043 883.438 571.5 885C569.624 887.046 567.624 888.879 565.5 890.5C557.026 889.862 548.526 889.529 540 889.5C514.516 882.817 505.349 892.151 512.5 917.5C512.667 925.833 512.833 934.167 513 942.5C513.374 943.416 513.874 944.25 514.5 945C531.1 946.623 547.767 946.956 564.5 946C565.931 945.535 567.097 944.701 568 943.5C568.333 933.5 568.667 923.5 569 913.5C571.333 911.167 573.667 908.833 576 906.5C576.667 918.833 576.667 931.167 576 943.5C574.395 949.438 570.562 952.938 564.5 954C548.5 954.667 532.5 954.667 516.5 954C510.438 952.938 506.605 949.438 505 943.5C504.333 926.833 504.333 910.167 505 893.5C506.348 886.987 510.181 882.987 516.5 881.5Z" fill="#151613"/>
<path fill-rule="evenodd" clip-rule="evenodd" d="M516.5 985.5C532.503 985.333 548.503 985.5 564.5 986C566.949 986.725 569.283 987.725 571.5 989C569.65 991.018 567.65 992.851 565.5 994.5C549.544 993.349 533.544 993.182 517.5 994C515.508 994.574 514.008 995.741 513 997.5C512.333 1013.83 512.333 1030.17 513 1046.5C513.374 1047.42 513.874 1048.25 514.5 1049C531.409 1050.64 548.409 1050.97 565.5 1050C566.333 1049.17 567.167 1048.33 568 1047.5C568.333 1037.5 568.667 1027.5 569 1017.5C571.706 1015.13 574.039 1012.46 576 1009.5C576.667 1022.17 576.667 1034.83 576 1047.5C574.387 1053.45 570.553 1056.95 564.5 1058C548.5 1058.67 532.5 1058.67 516.5 1058C509.991 1056.82 506.158 1052.99 505 1046.5C504.333 1029.83 504.333 1013.17 505 996.5C506.789 990.541 510.622 986.875 516.5 985.5Z" fill="#171814"/>
<path fill-rule="evenodd" clip-rule="evenodd" d="M580.5 982.5C587.029 982.857 590.195 986.19 590 992.5C575.2 1008.97 560.033 1025.13 544.5 1041C542.029 1041.71 539.695 1041.37 537.5 1040C532.667 1035.17 527.833 1030.33 523 1025.5C520.465 1018.4 522.965 1014.9 530.5 1015C534.132 1017.63 537.465 1020.63 540.5 1024C541.167 1024.67 541.833 1024.67 542.5 1024C555.061 1009.94 567.728 996.112 580.5 982.5Z" fill="#C22517"/>
<path fill-rule="evenodd" clip-rule="evenodd" d="M619.5 1006.5C715.501 1006.33 811.501 1006.5 907.5 1007C910.167 1010 910.167 1013 907.5 1016C811.5 1016.67 715.5 1016.67 619.5 1016C616.888 1012.84 616.888 1009.67 619.5 1006.5Z" fill="#010100"/>
<path fill-rule="evenodd" clip-rule="evenodd" d="M620.5 1007.5C704.795 1007.6 789.128 1007.6 873.5 1007.5C884.5 1007.67 895.5 1007.83 906.5 1008C909.371 1010.84 909.037 1013.17 905.5 1015C887.167 1015.17 868.833 1015.33 850.5 1015.5C831.782 1015.49 813.282 1014.83 795 1013.5C790.923 1014.8 786.589 1015.46 782 1015.5C728.308 1015.6 674.474 1015.44 620.5 1015C618.112 1012.6 618.112 1010.1 620.5 1007.5Z" fill="#181A15"/>
<path fill-rule="evenodd" clip-rule="evenodd" d="M947.5 1105.5C948.239 1105.37 948.906 1105.54 949.5 1106C948.167 1106.33 946.833 1106.67 945.5 1107C785.5 1107.5 625.5 1107.67 465.5 1107.5C465.5 1107.17 465.5 1106.83 465.5 1106.5C626.195 1106.83 786.861 1106.5 947.5 1105.5Z" fill="black"/>
<path fill-rule="evenodd" clip-rule="evenodd" d="M951.5 1118.5C789.517 1119.49 627.517 1119.83 465.5 1119.5C463.041 1167.67 458.708 1215.67 452.5 1263.5C451.804 1259.77 451.138 1255.94 450.5 1252C452.004 1250.51 452.837 1248.68 453 1246.5C457.68 1212.07 460.68 1177.74 462 1143.5C461.346 1144.7 460.846 1144.7 460.5 1143.5C461.522 1142.65 462.355 1141.65 463 1140.5C463.167 1137.33 463.333 1134.17 463.5 1131C459.386 1120.25 463.386 1115.75 475.5 1117.5C634.053 1116.68 792.72 1117.02 951.5 1118.5Z" fill="#040403"/>
<path fill-rule="evenodd" clip-rule="evenodd" d="M173.5 880.5C190.694 884.798 208.027 888.465 225.5 891.5C271.709 896.36 318.042 897.693 364.5 895.5C393.165 893.686 421.498 889.686 449.5 883.5C453.995 920.12 458.161 956.786 462 993.5C465.058 1031.1 466.225 1068.77 465.5 1106.5C465.5 1106.83 465.5 1107.17 465.5 1107.5C479.215 1108.28 492.882 1108.95 506.5 1109.5C506.709 1110.09 507.043 1110.59 507.5 1111C505.983 1112.78 505.149 1112.28 505 1109.5C504.5 1111.33 503.333 1112.5 501.5 1113C502.956 1113.42 503.456 1114.26 503 1115.5C502.586 1115.04 502.086 1114.71 501.5 1114.5C499.546 1115.68 497.379 1116.35 495 1116.5C492.46 1116.04 490.127 1116.04 488 1116.5C487.667 1115.83 487.333 1115.17 487 1114.5C485 1117.17 483 1117.17 481 1114.5C479.351 1115.95 477.518 1116.95 475.5 1117.5C463.386 1115.75 459.386 1120.25 463.5 1131C463.333 1134.17 463.167 1137.33 463 1140.5C462.355 1141.65 461.522 1142.65 460.5 1143.5C460.846 1144.7 461.346 1144.7 462 1143.5C460.68 1177.74 457.68 1212.07 453 1246.5C452.837 1248.68 452.004 1250.51 450.5 1252C451.138 1255.94 451.804 1259.77 452.5 1263.5C447.815 1354.11 444.481 1444.78 442.5 1535.5C408.833 1535.5 375.167 1535.5 341.5 1535.5C335.581 1486.48 329.414 1437.48 323 1388.5C321.461 1352.97 323.461 1317.64 329 1282.5C329.667 1273.17 329.667 1263.83 329 1254.5C323.057 1214.51 317.224 1174.51 311.5 1134.5C304.028 1160.39 296.861 1186.39 290 1212.5C277.69 1251.74 265.69 1291.07 254 1330.5C240.124 1398.71 226.957 1467.05 214.5 1535.5C180.833 1535.5 147.167 1535.5 113.5 1535.5C113.754 1497.5 114.254 1459.5 115 1421.5C115.408 1397.74 117.075 1374.07 120 1350.5C127.384 1319.25 134.384 1287.91 141 1256.5C142.086 1174.46 148.086 1092.8 159 1011.5C158.165 967.181 162.999 923.514 173.5 880.5Z" fill="#131511"/>
<path fill-rule="evenodd" clip-rule="evenodd" d="M341.5 1535.5C299.167 1535.5 256.833 1535.5 214.5 1535.5C226.957 1467.05 240.124 1398.71 254 1330.5C265.69 1291.07 277.69 1251.74 290 1212.5C296.861 1186.39 304.028 1160.39 311.5 1134.5C317.224 1174.51 323.057 1214.51 329 1254.5C329.667 1263.83 329.667 1273.17 329 1282.5C323.461 1317.64 321.461 1352.97 323 1388.5C329.414 1437.48 335.581 1486.48 341.5 1535.5Z" fill="#FCFAF7"/>
<path fill-rule="evenodd" clip-rule="evenodd" d="M383.5 1001.5C384.643 1001.91 385.643 1002.57 386.5 1003.5C382.167 1008.5 377.5 1013.17 372.5 1017.5C362.901 1022.88 353.067 1027.88 343 1032.5C334.155 1064.21 325.155 1095.88 316 1127.5C312.636 1132.82 311.302 1132.16 312 1125.5C320.179 1093.78 328.513 1062.12 337 1030.5C338.046 1028.91 339.213 1027.41 340.5 1026C356.685 1020.96 371.019 1012.79 383.5 1001.5Z" fill="#363936"/>
<path fill-rule="evenodd" clip-rule="evenodd" d="M365.5 928.5C368.95 928.573 370.283 930.406 369.5 934C368.463 940.185 367.296 946.351 366 952.5C359.266 973.369 352.933 994.369 347 1015.5C346.167 1016.5 345.333 1017.5 344.5 1018.5C343.914 1018.29 343.414 1017.96 343 1017.5C342.333 1014.5 342.333 1011.5 343 1008.5C351.954 982.253 359.454 955.587 365.5 928.5Z" fill="#373936"/>
<path fill-rule="evenodd" clip-rule="evenodd" d="M225.5 891.5C226.449 890.848 227.615 890.514 229 890.5C245.122 892.259 261.289 893.425 277.5 894C306.665 895.266 335.665 895.766 364.5 895.5C318.042 897.693 271.709 896.36 225.5 891.5Z" fill="#E32A1B"/>
</svg>
